<?xml version="1.0" standalone="no"?>
<!DOCTYPE svg PUBLIC "-//W3C//DTD SVG 1.1//EN" "http://www.w3.org/Graphics/SVG/1.1/DTD/svg11.dtd" >
<svg xmlns="http://www.w3.org/2000/svg" xmlns:xlink="http://www.w3.org/1999/xlink" version="1.1">
<metadata>
Created by FontForge 20170731 at Mon Oct 20 08:36:47 2014
 By Aleksey,,,
Copyright  2014 by Md Mohibubur Rahman. All rights reserved.


Md. Mohibubur Rahman, Dhaka,  Bangladesh.
Phone +8801715823696
email: mmrahmandesign@gmail.com
www.mmrahmandesign.com
www.facebook.com/mmrahmantypography
</metadata>
<defs>
<font id="RajonShoily" horiz-adv-x="1213" >
  <font-face 
    font-family="Rajon Shoily"
    font-weight="400"
    font-stretch="normal"
    units-per-em="2048"
    panose-1="0 0 4 0 0 0 0 0 0 0"
    ascent="1638"
    descent="-410"
    x-height="1023"
    cap-height="1024"
    bbox="-1261.11 -1407 1908 1724"
    underline-thickness="150"
    underline-position="-442"
    unicode-range="U+001D-25CA"
  />
<missing-glyph horiz-adv-x="1024" 
d="M140 0v1434h744v-1434h-744zM220 80h584v1274h-584v-1274z" />
    <glyph glyph-name=".notdef" horiz-adv-x="1024" 
d="M140 0v1434h744v-1434h-744zM220 80h584v1274h-584v-1274z" />
    <glyph glyph-name=".null" horiz-adv-x="0" 
 />
    <glyph glyph-name="glyph2" horiz-adv-x="269" 
 />
    <glyph glyph-name="uni001D" horiz-adv-x="0" 
 />
    <glyph glyph-name="uni001D" horiz-adv-x="0" 
 />
    <glyph glyph-name="space" unicode=" " horiz-adv-x="701" 
 />
    <glyph glyph-name="space" unicode="&#xa0;" horiz-adv-x="701" 
 />
    <glyph glyph-name="exclam" unicode="!" horiz-adv-x="579" 
d="M251 1038q0 -23 1 -45q0 -21 2 -159q1 -184 2 -210q1 -23 2 -96q2 -88 3 -113q6 -144 13 -276h85q8 132 14 276q1 25 2 113q2 73 3 96q0 28 2 210q1 138 2 159q0 20 1 45q1 48 2 84v18v21q2 28 -65 37q-70 -2 -72 -37q0 -15 1 -21v-18q0 -37 2 -84zM425 -237v-1
q-1 -3 -1 -4l-1 -1v0l-2 -4q0 -1 -1 -3q-1 -1 -1 -2q-1 0 -2 -2l-1 -2q-12 -18 -30 -30q-19 -11 -41 -13t-41 6l-2 1l-1 1l-6 2l-2 2q-1 0 -2 1q-2 1 -3 1l-2 2q-2 1 -3 1q-10 7 -18 15q-17 15 -25 35q-8 18 -9 39q-1 20 5 42q3 11 7 21h1v2q1 1 1 2q1 0 1 2q1 1 1 2
q2 2 6 8q10 14 27 25q15 9 35 13q11 2 22 2q27 0 51 -11q19 -9 35 -24q-6 3 -13 6h-2v1l-9 3q-2 0 -3 1q-14 3 -28 3h-1q-29 0 -53 -15q-21 -13 -33 -34l-6 -10v-2q-1 -3 -2 -4l-1 -3v0v-1v0q-4 -11 -4 -21q-1 -18 6 -35q6 -13 16 -24q7 -8 16 -13q5 -3 12 -6l3 -1q6 -2 8 4
l3 7q3 6 -3 9l-3 1q-4 2 -7 5q-6 4 -10 10q-6 8 -8 17q-4 11 -2 23q1 6 4 12v0l2 3q0 1 1 2v1l4 6q10 12 24 19q15 7 31 6q9 -1 17 -4l1 -1h2v-1l3 -1l2 -1q5 -3 8 -5q15 -11 24 -29t7 -37q0 -10 -4 -19zM485 -102q-4 10 -10 20q-6 11 -14 20q-16 22 -38 37q-47 32 -105 32
h-12q-36 -2 -67 -18q-35 -16 -60 -45l-1 -2q-3 -4 -5 -6l-1 -2q-3 -4 -4 -6q-1 0 -2 -2q-2 -4 -4 -6l-1 -2q-2 -4 -4 -7l-3 -7l-5 -12l-3 -6l-3 -9q-12 -38 -9 -76q4 -41 25 -76q19 -33 52 -58q15 -11 32 -19l6 -3l2 -1q2 -1 7 -3l5 -2q0 -1 1 -1l9 -3l4 -2q25 -7 51 -7
q14 0 27 2q38 6 70 29q30 22 47 55l1 2l3 6l1 2l3 6l1 4l1 2v0v2l3 9v0q2 9 3 18q5 0 6 5l1 4q1 6 2 11q4 22 3 44q-2 39 -15 71z" />
    <glyph glyph-name="quotedbl" unicode="&#x22;" horiz-adv-x="653" 
d="M155 1360q-23 10 -26 -7q-5 -29 43 -68q1 -1 5 -6q26 -30 40 -76q46 -148 -74 -323q-27 -46 20 -89q55 -28 88 25q119 172 56 350q-39 109 -124 178q-14 11 -28 16zM412 1360q-18 -17 26 -65q-3 4 5 -8q21 -35 33 -92q31 -146 -60 -316q-28 -58 19 -93q56 -33 90 24
q55 111 54 252q-1 162 -103 271q-44 47 -64 27z" />
    <glyph glyph-name="numbersign" unicode="#" horiz-adv-x="1317" 
d="M503 414q15 38 47 113q31 76 47 114h252q-16 -38 -47 -114q-31 -75 -46 -113h-253zM1018 738q14 35 43 106t43 106q52 107 0 146q-53 32 -97 -67q-20 -49 -59 -146q-40 -97 -60 -145h-251q17 41 43 104q37 89 44 105q50 106 6 153q-66 43 -105 -75q-23 -56 -118 -287
h-210q-70 0 -65 -49q12 -48 82 -48h152q-49 -120 -94 -227h-195q-72 0 -67 -49q2 -48 93 -48h129q-17 -42 -47 -114q-34 -82 -47 -113q-56 -95 -3 -132q63 -33 101 54l126 305h254q-15 -38 -46 -114q-31 -75 -46 -113q-55 -105 -5 -148q64 -20 102 70q83 203 125 305h247
q63 0 57 50q6 47 -73 47h-192q16 38 47 113q31 76 46 114h197q67 0 60 48q-7 49 -64 49h-153z" />
    <glyph glyph-name="dollar" unicode="$" horiz-adv-x="1069" 
d="M978 371v1l-1 9q-1 22 -4 38q-14 81 -65 139q-27 31 -60 51q-17 10 -35 17q-20 8 -38 12q-3 1 -10 2q-1 0 -2 1q-5 1 -7 1l-10 1q-3 1 -6 1h-3q-20 2 -40 -1q-41 -4 -76 -23q-36 -19 -62 -50q-26 -30 -39 -68q-7 -19 -10 -38l-1 -7v-4l-1 -8v-1v-20q2 -21 8 -40t16 -37
q22 -36 56 -57q17 -11 36 -18q8 -2 19 -5q3 0 7 -1l3 -1v0q-2 1 0 0v0q-2 1 0 0v0h3q5 -1 8 -1h6l3 -1h11q11 1 20 3q20 4 39 13q37 20 57 57q5 9 9 18q4 10 6 20v1q1 6 1 9l1 4v1v4q1 11 0 21q-5 44 -38 73q-16 14 -35 21t-39 7h-2q-22 -1 -41 -11t-32 -28q-12 -17 -16 -38
q0 -2 -1 -4v-1v-4v-2v-10q1 -12 5 -22q8 -20 26 -33t40 -14q12 -1 13 11l1 7q1 5 -3 9q-3 4 -8 4q-13 1 -23 9t-14 19q-2 6 -2 12v6v1q1 1 1 2v1v2v0q3 13 11 23q16 21 42 21h1q13 -1 25 -6q13 -5 22 -14q20 -18 22 -45v-13l-1 -3v-4q-1 -2 -1 -5l-1 -1q-3 -13 -10 -25
q-14 -23 -39 -35q-12 -6 -25 -8q-5 -1 -13 -1q-4 0 -6 1h-7q-2 0 -4 1h-3l-2 1q-3 1 -4 1q-8 2 -14 4q-13 5 -24 13q-22 15 -36 40q-13 24 -14 51v13l1 8v2l1 4q3 14 8 27q20 55 73 80q24 12 52 15q14 1 27 -1h3l5 -1l7 -1v0q1 0 4 -1h3v0q4 -1 6 -2v0h1q55 -14 93 -59
q36 -44 45 -104q2 -12 3 -29v-7l-1 -8v-7v-3v-4q-3 -30 -12 -58q-18 -57 -58 -100q-39 -43 -94 -67q-51 -22 -115 -28q-14 -1 -31 -1h-7h-16l-15 1h-8q-4 1 -14 2v0q-11 1 -30 4q-48 10 -88 32l-1 23q6 89 10 184q1 22 3 103q1 67 2 87q0 25 2 191q0 4 1 43h172q18 0 18 18
v39q0 18 -18 18h-172q1 19 1 27q0 14 1 40q1 44 2 76v17v19v3q-3 122 -41 198q-36 70 -123 112q-91 45 -205 39q-14 -2 -11 -23q2 -24 67 -33q182 -22 177 -296v0q0 -13 1 -19v-17q0 -32 2 -76q1 -27 1 -40v-27h-172q-18 0 -18 -18v-39q0 -18 18 -18h173q0 -17 1 -43
q1 -167 2 -191q1 -22 2 -87q2 -80 3 -103q5 -120 12 -233v-16q0 -6 5 -10l14 -10q33 -25 67 -39q36 -15 73 -23q19 -4 37 -6q13 -2 19 -2l9 -1v0l19 -1v0h18v0h9q19 1 37 2q79 7 145 39q72 34 121 93q25 30 43 64q17 33 28 70q10 37 12 75q0 2 1 6v13v1v8z" />
    <glyph glyph-name="percent" unicode="%" horiz-adv-x="1252" 
d="M510 753v-1q-1 -3 -2 -4v-1v0l-2 -5q-1 -2 -3 -3q0 -1 -1 -2q0 -1 -1 -3l-1 -2q-14 -21 -34 -33q-22 -14 -46 -15q-25 -2 -47 7l-3 1v0l-6 3l-4 2l-2 1l-2 1l-4 2t-2 2q-12 7 -22 17q-18 17 -27 38q-10 22 -11 45q0 23 7 48q2 12 8 23v0q0 1 1 3q0 1 1 2q0 1 2 2q0 1 1 2
q1 3 5 8q12 18 31 29q18 10 39 15q13 2 26 2q31 0 57 -11q22 -10 39 -29q-6 4 -14 7l-2 1v0q1 0 0 0q2 0 0 0l-11 4q-2 1 -3 1q-15 4 -31 4h-2q-32 -1 -59 -17q-24 -15 -39 -39q-3 -6 -5 -11v-1q-2 -4 -3 -5l-1 -3q-1 -3 0 -2v0v0v-1q-4 -11 -4 -23q-2 -20 6 -40
q6 -15 18 -26q8 -9 18 -15l14 -7l3 -1q7 -2 9 5l4 8q3 5 -4 9l-3 2q-5 2 -8 6q-7 4 -12 11q-6 8 -9 19q-3 12 -1 26q1 6 4 14h1l1 3l1 1l1 3q1 3 5 6q10 14 26 21q17 8 36 7q9 -1 18 -5q1 0 1 -1h2v0l4 -2l2 -1l9 -6q18 -11 28 -32q9 -21 8 -42q-1 -11 -5 -22zM566 929
q-6 12 -14 22q-20 24 -45 42q-52 36 -118 36h-14q-40 -2 -76 -19q-39 -19 -67 -52l-1 -2q-4 -5 -6 -7l-1 -3q-4 -3 -5 -5q0 -1 -1 -3q-1 0 -1 -1q-2 -4 -4 -7l-1 -2q-3 -3 -4 -7l-5 -8l-6 -15q-1 -3 -2 -5l-3 -11q-14 -43 -11 -86q4 -46 28 -86q22 -37 59 -65q16 -13 36 -22
q2 -1 7 -3l2 -1q2 -2 8 -4l5 -2q1 0 2 -1l10 -4l5 -1q27 -9 57 -9q16 0 31 2q43 7 78 34q36 25 54 61q1 2 1 4l4 6l1 2q2 6 2 7l2 4v3l1 2q2 3 4 9v1q2 11 3 20q6 1 7 5l1 6q2 7 3 12q3 25 2 50q-1 44 -16 80q-5 11 -12 23zM1032 154v-1q-1 -3 -2 -4v-1v0l-2 -5q-1 -2 -3 -3
q0 -1 -1 -2q0 -1 -1 -3l-1 -2q-14 -21 -34 -33q-22 -14 -46 -15q-25 -2 -47 7l-3 1v0l-6 3l-4 2l-2 1l-2 1l-4 2t-2 2q-12 7 -22 17q-18 17 -27 38q-10 22 -11 45q0 23 7 48q2 12 8 23v0q0 1 1 3q0 1 1 2q0 1 2 2q0 1 1 2q1 3 5 8q12 18 31 29q18 10 39 15q13 2 26 2
q31 0 57 -11q22 -10 39 -29q-6 4 -14 7l-2 1v0q1 0 0 0q2 0 0 0l-11 4q-2 1 -3 1q-15 4 -31 4h-2q-32 -1 -59 -17q-24 -15 -39 -39q-3 -6 -5 -11v-1q-2 -4 -3 -5l-1 -3q-1 -3 0 -2v0v0v-1q-4 -11 -4 -23q-2 -20 6 -40q6 -15 18 -26q8 -9 18 -15l14 -7l3 -1q7 -2 9 5l4 8
q3 5 -4 9l-3 2q-5 2 -8 6q-7 4 -12 11q-6 8 -9 19q-3 12 -1 26q1 6 4 14h1l1 3l1 1l1 3q1 3 5 6q10 14 26 21q17 8 36 7q9 -1 18 -5q1 0 1 -1h2v0l4 -2l2 -1l9 -6q18 -11 28 -32q9 -21 8 -42q-1 -11 -5 -22zM1088 330q-6 12 -14 22q-20 24 -45 42q-52 36 -118 36h-14
q-40 -2 -76 -19q-39 -19 -67 -52l-1 -2q-4 -5 -6 -7l-1 -3q-4 -3 -5 -5q0 -1 -1 -3q-1 0 -1 -1q-2 -4 -4 -7l-1 -2q-3 -3 -4 -7l-5 -8l-6 -15q-1 -3 -2 -5l-3 -11q-14 -43 -11 -86q4 -46 28 -86q22 -37 59 -65q16 -13 36 -22q2 -1 7 -3l2 -1q2 -2 8 -4l5 -2q1 0 2 -1l10 -4
l5 -1q27 -9 57 -9q16 0 31 2q43 7 78 34q36 25 54 61q1 2 1 4l4 6l1 2q2 6 2 7l2 4v3l1 2q2 3 4 9v1q2 11 3 20q6 1 7 5l1 6q2 7 3 12q3 25 2 50q-1 44 -16 80q-5 11 -12 23zM308 -195q-9 -33 7 -38q15 -6 34 20q255 438 602 1261q23 50 -35 80q-65 28 -87 -34
q-367 -810 -521 -1289z" />
    <glyph glyph-name="ampersand" unicode="&#x26;" horiz-adv-x="0" 
d="M165 -394q31 -50 70 -57q20 -4 19 14q0 14 -10 28q-148 301 -385 369q-59 5 -63 -51q-2 -48 54 -66q204 -41 315 -237z" />
    <glyph glyph-name="quotesingle" unicode="'" horiz-adv-x="373" 
d="M148 1348q-14 11 -29 17q-23 8 -26 -8q-6 -30 43 -70q1 0 5 -5q23 -27 40 -74q50 -143 -73 -323q-27 -58 19 -92q53 -31 85 8q117 182 60 369q-32 104 -124 178z" />
    <glyph glyph-name="parenleft" unicode="(" horiz-adv-x="542" 
d="M69 475q14 -412 312 -718q54 -56 78 -32q23 23 -31 79q-259 265 -243 647q15 374 274 641q43 57 -3 110q-57 43 -107 0q-296 -303 -280 -727z" />
    <glyph glyph-name="parenright" unicode=")" horiz-adv-x="571" 
d="M135 -205q-56 -57 -34 -79q24 -23 79 34q306 313 322 733q16 431 -287 741q-53 39 -114 0q-44 -56 0 -113q267 -273 283 -654q16 -392 -249 -662z" />
    <glyph glyph-name="asterisk" unicode="*" horiz-adv-x="924" 
d="M580 1100l139 135q35 39 2 86q-46 32 -87 -9l-133 -132v181q-2 48 -42 56q-45 3 -43 -50v-236q-90 90 -180 181q-40 39 -55 24t24 -55l181 -181l-232 2q-53 0 -53 -44q7 -39 55 -42h182q-105 -104 -130 -130q-44 -43 -5 -83q40 -40 97 18l116 116l-1 -159q1 -77 44 -79
q50 3 42 88v199l181 -181q39 -40 55 -24q15 15 -25 54l-181 181l233 -1q58 -3 53 43q-4 41 -56 42h-181z" />
    <glyph glyph-name="plus" unicode="+" horiz-adv-x="1410" 
d="M753 560v386q0 59 -48 62q-49 -2 -49 -64v-384h-429q-63 0 -56 -59q5 -37 61 -37h424v-386q0 -63 49 -62q48 -2 48 64v384h425q67 0 64 48q-4 48 -65 48h-424z" />
    <glyph glyph-name="comma" unicode="," horiz-adv-x="500" 
d="M264 -251q-61 -45 -47 -68q7 -13 29 -8q17 5 33 16q102 73 138 177q64 184 -94 395q-46 40 -95 3q-46 -39 -8 -93q152 -201 95 -343q-19 -46 -45 -73z" />
    <glyph glyph-name="hyphen" unicode="-" horiz-adv-x="1239" 
d="M1037 503q57 0 38.5 47t-76.5 51h-787q-63 0 -49 -49t81 -49h793z" />
    <glyph glyph-name="period" unicode="." horiz-adv-x="656" 
d="M430 8q99 64 22 189q-94 88 -185 22q-64 -75 -8 -169q80 -82 171 -42z" />
    <glyph glyph-name="slash" unicode="/" horiz-adv-x="702" 
d="M19 -193q-9 -33 7 -38q15 -6 34 20q255 438 602 1261q23 50 -35 80q-65 28 -87 -34q-367 -810 -521 -1289z" />
    <glyph glyph-name="zero" unicode="0" horiz-adv-x="1001" 
d="M708 696q-24 12 -50 20l-16 5h-1l-8 2q-4 1 -13 3h-1q-5 1 -13 2h-2q-17 2 -34 2q-41 0 -80 -11q-57 -17 -104 -56t-74 -95q-2 -3 -5 -10l-2 -4l-5 -13v-1l-5 -14l-4 -13v-3l-3 -9l-2 -13q0 -2 -1 -5v-3q-2 -14 -2 -32q0 -66 32 -122q16 -29 38 -52q24 -23 51 -39
q29 -17 58 -25l10 -3l13 -2q6 -1 9 -2q14 -2 28 -2q2 0 5 1q67 2 120 42q51 38 71 98q5 13 8 28v0q1 2 1 4l2 14v3v4q1 3 1 5q0 29 -9 58q-9 28 -26 50q-16 22 -38 38q-21 14 -45 22q-10 3 -23 5l-2 1l-10 1h-6h-1h-6q-23 0 -46 -9q-20 -7 -37 -21q-30 -25 -41 -62
q-3 -8 -4 -16v-3v0v-1v0l-1 -4v-8q-1 -15 3 -30q6 -24 24 -42q12 -13 28 -21q10 -4 20 -6q2 -1 5 -1h2q7 -1 8 5l3 10q1 6 -5 8l-2 1q-1 1 -3 2q-6 3 -12 7q-10 7 -16 17q-8 13 -9 28q-1 18 8 33q11 18 30 27q10 5 19 6q11 2 21 0l2 -1h1h1v0v0l6 -2v0v0q6 -2 11 -5
q10 -6 19 -14q4 -5 8 -9l6 -10t5 -11t3 -12q2 -11 0 -23v-1v-1t-1 -1l-1 -8l-1 -1v0q-2 -7 -5 -13q-7 -14 -15 -23q-5 -6 -10 -10q-6 -5 -11 -8q-25 -17 -53 -17h-2q-6 0 -12 1h-1h-2l-12 3q-16 4 -31 12q-31 15 -51 45q-21 30 -24 66q-1 10 0 18v5v4l2 10l2 9l2 10l4 9
l3 10q16 37 46 65q30 29 69 42q32 12 67 12q6 0 12 -1h2h8l2 -1q5 0 8 -1l7 -1h1v0l13 -3q20 -5 39 -13q38 -16 69 -43q15 -12 28 -28q3 -3 9 -11l4 -4q1 -2 3 -4q5 -8 8 -12q41 -64 43 -139q1 -13 0 -33l-1 -5q-1 -8 -1 -11l-2 -13l-1 -4q-6 -30 -17 -59q-10 -25 -24 -49
q-3 -6 -11 -18l-1 -2q-1 -3 -4 -6l-3 -4l-6 -9q-9 -12 -20 -24l-10 -8q-37 -29 -78 -47q-46 -20 -92 -24q-6 -1 -18 -2h-7h-4h-7h-7l-20 1l-12 1q-3 1 -11 2h-1q-1 0 -4 1q-5 1 -8 2q-22 4 -49 15q-22 9 -46 24q-90 55 -141 163q-49 101 -47 220l1 23l2 20l3 21l4 22l3 16
q1 2 1 4l2 7q6 23 18 53q9 23 23 50q14 24 30 45q18 25 34 41q18 19 38 34q22 18 41 28q21 12 43 21q2 1 7 2q3 2 4 2l6 2l5 2q1 0 5 1t6 2l12 3q2 0 7 1q3 0 4 1h1q7 1 10 1l12 2l16 1h1h18q3 -1 7 -1q9 0 14 -1q2 0 0 0v0q41 -3 85 -20q39 -16 75 -42q64 -44 108 -114
q34 -54 51 -116l3 -13q2 -7 3 -11q0 -3 1 -9q2 -9 3 -13q0 -2 1 -7q1 -9 1 -12l2 -16q1 -6 1 -13l1 -16v-17q0 -7 -1 -13l-1 -16q0 -4 -1 -11q0 -2 -1 -8q0 -5 -1 -14q-1 -5 -2 -8v-3q-2 79 -41 150q-49 91 -144 139zM917 614l-1 3q-6 37 -12 59q-10 38 -23 71
q-17 42 -39 78q-27 44 -59 78q-3 2 -5 5l-14 14l-10 9v0l-11 8q-5 5 -17 13q-2 1 -5 4q-3 2 -8 5q-4 2 -5 3t-4 2q-5 4 -8 6l-12 7q-3 1 -10 4l-4 2t-5 2q-6 3 -9 5l-14 5q-31 12 -60 17q-8 2 -28 4h-5q-2 1 -4 1l-17 1h-1v0v0h-2h-23h-1l-16 -1q-5 -1 -16 -2h-1q-1 0 -5 -1
q-8 -1 -11 -2q-32 -5 -66 -18q-29 -10 -62 -29q-29 -17 -56 -40q-24 -20 -49 -48q-22 -26 -42 -56q-17 -28 -33 -60q-58 -123 -55 -266q3 -142 66 -261q17 -31 36 -57q20 -28 42 -52q25 -25 49 -44q28 -21 55 -36q30 -16 58 -26q33 -11 61 -16q4 -1 11 -2h5h1q10 -2 15 -2
l16 -1v0h22v0h8q2 1 5 1h10q2 1 7 1q15 2 22 4q26 4 56 15l13 5q4 1 9 4q3 1 4 1q8 4 21 11l4 2q3 1 8 4q3 2 4 3q1 0 4 2q5 3 8 5q2 1 5 4q11 7 16 11l10 8v0l10 8q5 4 14 13q4 4 5 4q32 31 60 73q22 32 41 73q27 60 41 128q9 46 12 86q1 6 1 13v18v17q1 7 0 13
q-1 42 -7 87z" />
    <glyph glyph-name="one" unicode="1" horiz-adv-x="940" 
d="M821 676q-15 34 -35 66l-2 4q-5 8 -8 11l-4 6v0l-6 9q-9 12 -22 27q-18 23 -44 50q-24 24 -46 43q-80 72 -181 130q-76 42 -154 71q-4 2 -11 4q-14 5 -20 7l-27 9q-17 5 -43 13h-2q-40 10 -37 9q-6 1 -8 -5l-3 -10q-3 -6 3 -9q-7 4 34 -16l18 -9q2 -1 7 -4q9 -5 14 -8
l25 -13l28 -16q66 -38 134 -88q85 -64 153 -137q42 -45 73 -88q10 -14 16 -24l8 -13q2 -3 5 -9l2 -3q15 -26 25 -52q47 -116 19 -241q-8 -33 -19 -61q-13 -31 -29 -58q-16 -28 -38 -52q-10 -12 -22 -23q-5 -5 -12 -11l-12 -10l-7 -5l-6 -5l-9 -6l-4 -2q-3 -2 -8 -5l-6 -3
q-1 -1 -5 -2q-6 -4 -9 -5q-30 -13 -59 -19q-24 -4 -49 -4q-40 0 -77 12q-12 3 -30 11q-18 9 -29 15q-10 6 -26 18q-16 13 -24 22q0 1 -2 2q-2 2 -3 4l-8 8l-9 12v0l-4 5l-4 6q0 1 -1 3l-3 3l-4 7q-8 15 -12 28q-5 14 -9 29q-12 62 13 120q7 14 14 26q9 13 18 25l7 7q4 5 3 3
l4 4q5 4 7 6l2 3l10 8l6 3l3 3q1 0 2 1q25 15 51 20q28 6 55 2q26 -4 51 -17q22 -12 41 -32l4 -5v0q1 0 2 -2l3 -4l3 -5l4 -4q6 -11 10 -22q8 -22 8 -46q-1 -23 -11 -44q-9 -20 -24 -36q-1 0 -2 -1l-2 -2l-4 -3l-5 -5l-4 -2q-8 -6 -17 -9q-17 -7 -36 -7q-18 1 -35 9
q-15 7 -27 20l-2 3l-4 3l-1 2q-2 3 -3 4q-5 6 -8 13q-5 13 -5 27q0 28 18 49l2 2l5 4l1 1l1 1q4 4 9 6q9 6 19 8q17 3 34 -3q11 -4 20 -12q3 -2 4 -4l2 -2q4 -4 9 0l9 6q5 4 2 9l-1 2q-2 3 -5 8q-10 13 -24 23q-23 16 -52 18h-6q-16 0 -31 -5q-10 -3 -19 -8l-4 -2
q-1 -1 -2 -1l-3 -3q-5 -3 -9 -6q-18 -15 -30 -36q-14 -23 -18 -48q-4 -29 4 -58q4 -15 11 -29l1 -1q2 -4 3 -5l3 -5v0v0l7 -9q2 -3 4 -5q21 -25 51 -39q31 -16 65 -19h12q31 0 59 11q18 6 34 16l5 4l2 2l7 5l8 6q1 1 5 4l2 2q27 26 44 61q17 36 19 76q3 41 -11 81
q-7 19 -18 37q-3 6 -5 9l-3 5l-6 8q-2 2 -3 4l-7 8q-29 33 -64 53q-38 21 -81 29q-43 7 -87 -1q-44 -7 -84 -31l-2 -1q-5 -3 -8 -5l-6 -4q-1 -1 -3 -2l-8 -6l-9 -7q-5 -4 -13 -12l-4 -3v0v-1l-3 -3l-12 -12q-15 -16 -27 -36q-13 -18 -22 -39q-40 -86 -25 -179q4 -23 11 -45
t18 -44l6 -10q1 -2 4 -7l2 -3q2 -5 6 -10l3 -5l13 -18l12 -14l5 -5q1 -2 2 -3q13 -14 33 -32q21 -17 37 -28q15 -10 40 -23q25 -12 42 -18q61 -21 125 -21q29 0 58 4q44 7 89 26q5 2 15 7q4 2 5 3h1v0l6 3q9 5 14 8l2 1q12 7 17 11l11 7l7 6q141 106 179 288q9 40 11 81
q1 42 -3 81q-8 78 -40 150z" />
    <glyph glyph-name="two" unicode="2" horiz-adv-x="889" 
d="M396 243q191 53 312 144q156 145 107 332q-33 125 -156 211q-116 82 -254 90q-126 8 -220 -62q-100 -75 -108 -198q-5 -39 6 -89q24 -99 110 -152h2q11 -7 23 -13q15 -7 31 -13q6 -2 16 -4q2 -1 7 -2l6 -1q1 -1 3 -1l8 -1q2 -1 3 -1h7q9 -1 16 -1h2q16 0 33 3h1
q32 6 61 22q57 33 80 94l1 2q1 3 2 5l2 7v1q3 9 4 14v1q1 5 1 6l1 6v1l1 7v1l1 7q1 30 -10 58q-19 54 -69 81q-23 12 -47 16q-22 4 -43 0q-3 0 -6 -1q-45 -10 -72 -47q-22 -31 -23 -69q0 -31 18 -57q13 -18 33 -29q12 -6 26 -9l3 -1h1l4 -1q13 -2 15 11l2 9q2 13 -10 16
l-6 1q-8 3 -15 7q-11 8 -18 19q-10 15 -8 33q1 22 16 40q17 21 43 25h1q14 3 28 -1q15 -3 29 -12q29 -18 39 -51q5 -17 3 -34v-4l-1 -5l-1 -5q0 -1 -1 -3v-1q-1 -2 -3 -8l-2 -5q0 -1 -1 -3l-1 -2q-8 -18 -21 -32q-14 -14 -32 -23t-38 -12q-10 -1 -20 0q-4 0 -10 1l-4 1l-9 1
v0l-3 1q-1 1 -2 1h-3v1q-7 2 -10 3q-11 4 -20 10q-19 11 -35 27q-31 34 -38 80q0 2 -1 8v5v9v3q5 62 43 109q15 17 32 30q2 1 2 3q116 91 278 50q170 -43 185 -200q12 -134 -143 -253q-183 -122 -512 -112q-43 -16 -27 -62q9 -39 68 -58q307 -29 738 -332q36 -35 61 -17
q15 21 -20 58q-292 246 -492 316z" />
    <glyph glyph-name="three" unicode="3" horiz-adv-x="1138" 
d="M1014 734q-9 22 -20 43l-6 11q-4 7 -6 11q-7 12 -13 21q-42 63 -102 109q-29 23 -60 41q-91 52 -194 52h-2q-53 0 -102 -14q-25 -7 -49 -17l-2 -1q-1 0 -3 -1l-9 -4q-5 -3 -9 -5l-2 -1q-7 -4 -10 -5l-11 -7q-93 -57 -134 -160q-39 -102 -12 -206q7 -26 17 -48l2 -4v0
q0 -1 1 -3l5 -9q0 -1 1 -3l2 -4q6 -11 15 -23q29 -44 74 -74q71 -48 156 -48q19 0 37 3q49 6 91 29q3 1 11 6l6 3l5 4q10 6 20 14q18 16 33 35q60 77 46 173q-3 21 -10 41q-3 9 -8 20l-4 10h-1l-2 5q-1 2 -2 3l-4 8h-1l-1 2l-6 9q-3 4 -7 8q-2 3 -7 8q-14 16 -31 27
q-34 22 -73 29q-37 6 -73 -3q-16 -4 -32 -11l-8 -4q-1 0 -1 -1q0 1 1 1q-1 0 -2 -1l-6 -3q-5 -3 -7 -5h-1l-1 -1q-3 -2 -5 -3q-26 -21 -41 -50q-14 -26 -16 -56q-2 -26 6 -51q3 -11 8 -22l2 -4l1 -1l3 -5q3 -5 7 -10q13 -16 31 -27q26 -16 55 -16h5q20 1 37 9q5 2 9 4l2 1
q8 4 4 12l-4 9q-3 8 -11 5l-3 -1q-2 0 -6 -1q-8 -2 -15 -2q-6 0 -11 1q-21 3 -36 16q-9 8 -14 19q-2 2 -3 5v0v0q0 1 -1 2l-2 5q-2 7 -3 14q-2 15 1 30q4 15 13 29q10 13 25 22v0q1 0 2 1t2 1l1 1h2l4 2v0l5 2q9 3 19 4q20 2 38 -3q20 -6 36 -19q8 -6 14 -14v-1l3 -3v-1
q1 -2 3 -4v0q0 -1 2 -3l2 -6v0l1 -1l2 -4v-1l2 -4q2 -7 3 -12q3 -11 4 -23q1 -24 -7 -46q-8 -23 -24 -42q-8 -9 -18 -16q-5 -4 -10 -7l-2 -1l-2 -1h-1v0q0 -1 -2 -2t-4 -1q-24 -12 -52 -14q-7 -1 -14 -1q-51 0 -93 29q-23 16 -40 41q-4 7 -7 12l-1 2h-1l-4 9v0l-1 3
q-6 13 -11 30q-19 65 3 129q23 67 81 107l7 5l7 4l1 1q1 0 6 3l6 3l3 2q17 8 35 14q35 12 72 13q37 2 75 -7q36 -9 71 -27q69 -36 115 -102q5 -7 11 -16l5 -9l5 -9q10 -17 19 -36q9 -21 17 -43q52 -218 -58 -376q-56 -81 -155 -135q-119 -66 -258 -66q-184 0 -377 118
q-10 8 -18 16q-6 6 -12 1l-5 -4q-3 -2 -3 -6q-1 -4 2 -7q30 -32 66 -60q2 -2 6 -5q6 -5 11 -8q40 -32 88 -58q52 -28 110 -46q65 -21 131 -28q32 -3 64 -3q41 0 82 6q36 5 76 16q41 11 75 28q80 37 140 91q69 61 110 139q43 81 53 176q10 94 -14 188q-11 45 -31 90z" />
    <glyph glyph-name="four" unicode="4" horiz-adv-x="864" 
d="M635 153q-22 -23 -46 -38q-11 -7 -27 -14l-2 -1q-8 -3 -12 -5q-1 0 -3 -1t-4 -1l-7 -3q-60 -17 -127 -12q-65 5 -121 33q-58 28 -96 73q-20 23 -33 49q-7 13 -12 27q-2 6 -5 13l-2 7l-2 7l-2 7q0 2 -1 6t-2 12v1q-1 15 0 27q2 26 11 51q18 48 58 88q37 36 85 60
q43 21 91 30q35 7 72 7q-2 -1 -4 -1l-1 -1q-7 -2 -10 -3q-42 -13 -75 -41q-32 -27 -52 -64t-24 -76q-5 -40 5 -77l1 -5l4 -14l4 -9q1 -2 3 -7l1 -2q9 -18 22 -34q24 -30 59 -48q33 -18 70 -22q18 -1 35 0q4 0 9 1q4 0 9 1t8 2l5 1q1 0 2 1v0v0v0l14 4l4 2q8 3 16 7
q15 8 28 19q25 22 38 51q12 28 11 58q0 14 -3 27q0 4 -1 7l-1 3l-1 2v0l-2 7q-1 3 -3 7q-11 24 -32 42q-19 15 -43 22q-21 7 -42 5q-10 -1 -20 -3l-5 -2v0l-8 -2q-1 -1 -3 -2h-1q-16 -7 -28 -20q-19 -19 -23 -44q-2 -16 1 -30q1 -5 2 -8l1 -2q2 -6 9 -5l9 2q6 2 6 8l-1 2v5
q0 11 4 20q6 14 19 23q16 11 38 9h1q12 -1 22 -6q11 -6 20 -15q8 -10 12 -22q3 -12 1 -27t-9 -27q-8 -13 -21 -22q-7 -5 -13 -7q-5 -2 -8 -3l-9 -2v0h-3q-2 0 -5 -1h-4h-4q-10 0 -18 2q-19 3 -34 13q-16 11 -27 26q-5 7 -8 15q0 1 -1 2q0 2 -1 3v2l-3 9v1v1q-4 20 -1 41
q8 43 43 71q17 14 38 21l5 2v0h2l6 2v0l5 1q3 0 5 1v0q10 1 25 2q12 0 26 -2q13 -1 25 -5q12 -3 24 -8q12 -6 23 -13q22 -14 39 -35q8 -10 15 -22l3 -5l3 -7q1 -1 2 -3t1 -3l3 -8l4 -11l1 -7q1 -4 2 -6v-1q2 -9 2 -13v0q1 -4 1 -11l1 -3q2 -28 -4 -57q-12 -58 -54 -102z
M248 890q59 56 161 72q100 15 176 -17q83 -35 90 -114q10 -149 -177 -203q-86 -25 -173 -2q-103 28 -124 114q-20 88 47 150zM789 318q-1 11 -1 17q-1 8 -3 20q0 3 -1 10l-2 9l-1 2l-2 9l-4 16l-2 5q0 1 -1 3q-2 4 -3 7l-4 10l-4 9q-10 19 -23 37q-3 5 -7 10v1q0 3 -3 5
l-15 13l-2 2q-15 16 -33 29t-37 22l-8 4l-6 3q139 65 143 194q1 2 0 4q-9 110 -105 190q-86 73 -203 92q-122 20 -233 -41q-121 -66 -123 -188q-1 -71 48 -134q43 -56 116 -97q-7 -3 -5 -2q-56 -25 -100 -65q-50 -46 -74 -103q-29 -69 -13 -138l2 -7l2 -9q3 -9 5 -17
q6 -17 14 -33q15 -33 37 -62q45 -58 115 -96q67 -36 147 -46q2 0 6 -1q77 -8 151 11l10 3q2 1 7 2q2 1 3 1q6 2 17 7h2q21 9 37 18q35 20 66 50q60 60 80 140q6 22 8 40q2 19 2 41v3z" />
    <glyph glyph-name="five" unicode="5" horiz-adv-x="1063" 
d="M526 81q-141 -5 -205 25q-36 17 -71 56q-40 44 -54 91q-36 126 15 267q45 123 151 242q-4 -17 -4 -34q0 -3 -1 -9v-5q1 -8 1 -11q1 -15 3 -26q8 -51 36 -95q14 -21 33 -39l2 -2l7 -7l1 -1q6 -5 9 -7l1 -1q6 -5 9 -7l7 -4v0v0l12 -8v0l12 -7h1q13 -7 22 -10q22 -10 45 -15
q3 0 4 -1q22 -4 43 -5h10q-29 -51 -42 -102q-20 -77 18 -151q33 -66 105 -116q-83 -16 -170 -18zM768 636q-3 -1 -5 -2q-12 -11 -20 -17h-1q-2 -1 -7 -5q-2 -1 -3 -2l-4 -2q-5 -3 -8 -5q-12 -6 -25 -10q-56 -20 -112 -8q-12 3 -29 9q-3 1 -10 4q-3 1 -4 1l-6 3l-10 6h-1v0
l-3 2q-1 1 -4 3l-2 1q-6 4 -11 8q-11 9 -21 21q-19 23 -26 53q-8 29 -1 61q3 16 9 30v1l1 2l2 4v0q0 1 1 2l3 6l4 6l1 1q2 3 3 4v0l5 7l2 2l3 3q2 2 7 6l4 4q1 0 3 2q2 1 3 2h1q3 3 4 3h1l6 4l4 2t3 1l4 2h1l2 1l7 2l11 2l11 2h7h2h2l11 -1l11 -2l11 -3l9 -3l12 -6l8 -5
l1 -1l1 -1q1 0 3 -2q2 -1 2 -2l6 -5q0 -1 2 -3q2 -1 2 -2q1 -1 3 -4l1 -1v-1q2 -2 6 -8q0 -2 1 -3l3 -6q0 -1 1 -4q1 -1 1 -3q8 -25 1 -52q-1 0 -1 -2v0v0v-1l-3 -7v-1v0l-4 -8l-3 -4q-7 -11 -16 -18q-19 -14 -43 -15q-12 1 -22 4q-1 0 -3 1q-1 0 -2 1h-1h-1l-8 4l-4 3
q-16 11 -22 30q-5 17 0 34q5 16 16 24q9 8 21 10q9 2 18 0h2l1 -1h3q1 -1 2 -1q1 -1 2 -1v0l5 -2q8 -4 12 3l4 8q5 8 -3 13l-4 2q-2 1 -5 3q-3 1 -2 1q-2 1 -5 2q-1 0 -1 1q-3 0 -4 1q-14 4 -29 3q-21 -2 -38 -14q-9 -6 -17 -16h-1l-3 -5l-1 -1l-4 -7v0q-1 -1 -1 -2l-3 -7
l-1 -1q-5 -14 -7 -27q-1 -15 2 -30q7 -34 34 -57v-1l8 -5l1 -1l9 -5q1 -1 3 -2l4 -2l6 -3q17 -6 37 -8q42 -3 77 20q19 12 32 29l5 6q0 1 1 2l5 9q1 2 3 5l5 11q1 1 2 4v1q17 44 6 90q-1 2 -1 4q-2 5 -3 8l-3 10q0 1 -1 1v1q-6 14 -10 20l-1 1q-4 7 -6 10l-2 2q-3 5 -5 7v0
l-8 9q-2 3 -7 6q-1 2 -2 3l-2 1l-3 3v0l-12 9h-1l-15 9v1l-9 4q-7 3 -10 4l-1 1l-16 5q-1 0 -1 1l-17 4h-1q-3 0 -9 1l-9 1q1 0 0 0q-2 1 -5 1h-2h-11q10 9 19 17q13 11 2 27q-10 13 -34 26q-58 29 -85 11q-214 -145 -319 -350q-122 -239 -19 -445q88 -176 294 -213
q168 -30 383 32q15 4 20 16q5 11 0 25q-10 32 -39 35q13 -1 -2 3q-24 5 -23 5q-42 14 -60 40q-36 50 -19 125q13 59 54 121q38 56 96 109l31 27q68 56 150 100q12 6 5 23q-7 15 -26 32t-38 26q-21 10 -32 4q-82 -44 -149 -97z" />
    <glyph glyph-name="six" unicode="6" horiz-adv-x="1019" 
d="M931 536l-17 39q-1 4 -5 5t-8 -1l-2 -1l-183 -93q2 24 4 56q1 15 3 72q1 47 2 61q1 18 2 134q1 88 2 102q0 12 1 29q1 31 2 53v12v13q1 8 -12 8h-92q-13 0 -13 -8q0 -10 1 -13v-12q0 -22 2 -53q1 -20 1 -29q0 -14 2 -102q1 -117 2 -134q1 -14 2 -61q2 -57 3 -72
q5 -92 13 -176h66l153 74q0 -7 0 -4q0 -37 -9 -71q-10 -35 -27 -66q-18 -32 -42 -59q-49 -53 -117 -83q-16 -7 -33 -12q-18 -5 -35 -9q-19 -4 -36 -5q-2 -1 -8 -1l-11 -1h-7h-8h-4q-79 0 -143 23q-71 24 -122 75q-26 26 -45 57t-30 67q-12 34 -14 71q-1 19 0 37v3v6l2 15v0
v3q1 6 2 9q14 78 59 133q23 28 52 43q29 17 62 18q34 1 64 -14q31 -14 52 -42q10 -14 17 -29q7 -16 9 -32q1 -5 2 -9v-4l1 -10v-3q0 -2 -1 -5v-3l-2 -16q-2 -8 -5 -15q-13 -32 -41 -51t-63 -19h-1q-16 0 -31 6t-27 17q-12 12 -19 27q-4 7 -6 15l-2 8l-1 8v5v4q0 5 1 8
q1 8 4 15q6 15 18 26t29 16q4 1 8 1v0l2 1h2q-1 0 2 0h2q8 0 15 -2q16 -4 27 -16q11 -13 14 -30v-2v-3v-3v-8q-1 -10 -4 -17q-6 -15 -20 -16q-4 -1 -6 -4q-3 -3 -2 -6l1 -11q1 -8 10 -7q7 0 14 2q7 3 13 7q11 8 18 22q5 11 8 25q1 6 1 12v8v5q-2 27 -19 49t-43 31
q-6 2 -13 3q-4 1 -7 1h-4v0h-3h-7h-6q-6 0 -13 -2q-26 -5 -47 -22q-21 -16 -33 -41q-6 -13 -8 -26q-2 -6 -2 -13l-1 -6v-7v-6v-1l1 -6q1 -7 2 -13q3 -13 7 -25q11 -24 29 -44q18 -19 43 -30q24 -12 51 -13q5 -1 10 -1q48 0 89 25q47 28 69 77q6 12 10 24q3 13 5 27l1 2v10
l1 4v2v10l-1 10q0 5 -1 13q-3 26 -12 50q-9 23 -24 45q-30 44 -77 69t-100 26t-102 -23q-44 -21 -81 -62q-32 -35 -54 -81q-21 -44 -32 -92q-21 -95 6 -193q13 -47 37 -90q23 -44 56 -80q66 -74 160 -113q88 -36 189 -37h12h10l9 1h6q7 1 12 1q27 3 49 8q24 5 48 13t46 18
q92 43 155 122q31 40 52 84q21 47 29 95q9 51 3 99q-5 50 -25 95z" />
    <glyph glyph-name="seven" unicode="7" horiz-adv-x="810" 
d="M538 491q6 19 9 41l1 6v4l1 10q1 12 0 22q-2 22 -8 42q-7 20 -18 39q-23 37 -59 60q-18 11 -38 18q-9 3 -21 5q-2 1 -7 2h-3q-1 0 0 0l-7 1h-4l-7 1v0h-3h-11q-12 -1 -21 -3q-22 -4 -41 -14q-39 -21 -60 -59q-10 -19 -15 -41v-1q-1 -6 -2 -9v-5v0v0v0v0v-5q-1 -11 0 -22
q6 -45 40 -75q17 -14 37 -22q19 -7 39 -7h3q23 1 42 12q20 11 33 28q12 18 16 40v4v1q1 2 1 4v2v11q-2 11 -6 21q-8 21 -27 34q-18 13 -40 14q-8 0 -9 -8l-1 -11q-1 -8 8 -9q14 -2 24 -10q11 -9 15 -21q2 -6 2 -13v-6l-1 -1v-2v-2v-1q-3 -14 -12 -24q-18 -22 -45 -21
q-13 0 -26 6q-12 5 -22 14q-20 20 -22 47q0 6 1 12v4l1 4q0 1 1 5v1q2 6 5 13q2 6 6 12q14 23 39 35q12 5 26 7q5 1 12 1h7h1v0l7 -1h1q1 -1 2 -1h3q1 0 2 -1q3 0 4 -1q8 -2 13 -4q13 -5 24 -13q23 -16 36 -40t13 -51v-13l-1 -8v-2l-1 -4q-3 -14 -8 -27q-21 -54 -73 -78
q-24 -12 -52 -14q-13 -1 -26 1h-4q-3 0 -4 1l-7 1v0q-2 0 -4 1h-3v0q-4 1 -6 2q-55 14 -92 59q-35 44 -44 103q-2 12 -2 29v7v7l1 7v2v1v5q3 30 12 57q18 56 58 99q39 42 94 65q51 21 115 26q15 1 31 2h7l16 -1h15l7 -1q5 0 14 -1h1q12 -1 30 -5q6 -1 14 -3q2 0 5 -1
q6 -2 9 -2l2 -1q8 -2 12 -4q4 -1 12 -4h1q5 -2 12 -5v-2q0 -22 1 -40q0 -20 2 -144q1 -164 2 -189q1 -18 2 -58q-44 18 -102 18q9 18 15 35zM750 926q-1 3 -3 5l-22 16q-65 48 -149 67q-21 4 -39 6q-13 2 -20 3h-10l-20 1l-19 1l-10 -1q-19 0 -39 -2q-83 -8 -154 -42
q-76 -37 -128 -100q-26 -32 -45 -68q-18 -35 -29 -75q-10 -39 -13 -80v-6v-14v-10v-10q2 -23 5 -41q15 -85 70 -147q29 -33 64 -53q19 -12 38 -19q21 -8 40 -12q3 -1 10 -3h3q5 -1 8 -1l10 -2h6h3q22 -2 43 1q43 5 81 25q10 6 21 13q103 21 158 -13q9 -6 17 -14q0 -28 1 -43
q9 -213 24 -392q1 -18 4 -49l1 -14q3 -32 5 -47q1 -19 4 -39q1 -10 12 -10h11q11 0 12 10q2 20 4 39q2 15 5 47l1 14q3 30 4 49q15 178 24 392q1 22 2 93q2 37 3 60l1 88l2 105l2 191l1 78v1q0 5 0 2v0z" />
    <glyph glyph-name="eight" unicode="8" horiz-adv-x="985" 
d="M655 397v-7v-8l-1 -6v-3v-5q-3 -29 -12 -56q-18 -55 -57 -97q-39 -41 -92 -63q-50 -22 -113 -27q-14 -1 -30 -1h-7h-16l-14 1l-8 1q-5 0 -14 1h-1q-10 1 -28 4q-7 2 -14 3q-2 1 -6 2q-5 1 -8 2h-2q-8 3 -12 4t-11 4l-2 1l-9 3v2q-1 25 -1 40q-1 20 -2 144q-2 164 -2 189
q-1 20 -3 86q0 -2 0 35q13 -9 26 -16q19 -10 40 -18q20 -8 46 -14q5 -2 12 -3q-27 -32 -40 -70q-6 -20 -9 -41l-1 -6v-4l-1 -10q-1 -12 0 -21q2 -21 8 -41t18 -39q22 -36 58 -59q17 -11 37 -17q9 -3 20 -6q3 0 8 -1l2 -1h1l6 -1h4h7v0h3q4 -1 11 0q12 0 21 2q21 4 40 14
q38 21 59 59q10 18 14 39l1 2q1 5 1 8l1 6v0v4q1 11 -1 22q-5 44 -39 74q-16 14 -36 21q-19 7 -39 7h-3q-22 -1 -41 -12q-20 -10 -32 -28q-13 -17 -16 -38v-4l-1 -2v-3v-2v-11q1 -11 6 -21q8 -21 26 -33q18 -13 40 -14v0q8 0 9 8l1 10q1 9 -8 10q-13 1 -24 10q-10 8 -14 20
q-2 6 -2 12v6v2v2q1 0 1 1v2q3 13 11 23q17 22 44 21q14 -1 26 -6t22 -14q19 -19 21 -46q0 -6 -1 -12v-4l-1 -3q0 -2 -1 -5v-2q-2 -6 -5 -12q-2 -6 -6 -12q-14 -23 -38 -34q-12 -6 -25 -7q-5 -1 -13 -1h-6h-1l-6 1h-2h-1l-3 1h-3q-2 1 -4 1q-8 3 -13 5q-13 5 -23 12
q-22 16 -35 40t-13 50v12l1 8v2l1 4q3 14 8 26q20 53 71 78q20 9 41 12q7 0 16 1q11 0 20 -1h3q4 -1 5 -1l7 -1v0q1 0 4 -1h2h1q4 -1 6 -2q54 -14 90 -58q35 -43 43 -101q1 -12 2 -28zM954 792q-8 9 -20 4l-37 -15l-23 -9q-6 -3 -7 -3l-12 -5q-20 -8 -56 -20q-3 -1 -9 -4
q-15 -5 -23 -8l-10 -3l-24 -8q-13 -4 -18 -5l-19 -6q1 0 -9 -2q-20 -6 -30 -8q-39 -10 -81 -18q-36 -6 -69 -9q-1 1 -4 1h-3q-21 1 -42 -1q-5 -1 -11 -2q-6 0 -14 1h-4h-6q-2 1 -4 1h-4t-5 1h-1q-36 3 -74 13q-19 4 -34 9q-17 6 -30 11q-28 12 -53 27q-11 6 -21 14
q-5 3 -10 7l-1 1q-9 190 -22 349q-1 18 -4 49l-2 14q-2 33 -4 47q-2 19 -4 39q-1 10 -12 10h-11q-11 0 -13 -10q-2 -19 -4 -39q-1 -15 -4 -47l-1 -14q-3 -31 -4 -49q-15 -178 -24 -392q-1 -23 -3 -101q-1 -36 -2 -59l-2 -86l-2 -103l-1 -188l-2 -76v-1q0 -5 0 -4h2
q0 -2 2 -3l21 -16q64 -47 147 -65q20 -5 38 -7q13 -1 20 -2l10 -1l20 -1h18v0h9q20 1 39 2q81 8 151 42q75 36 126 98q26 31 44 67q18 34 29 74q10 38 12 78v6l1 14v10l-1 10q-1 22 -5 39q-15 84 -69 145q-18 21 -39 37q20 6 43 14q10 3 30 10l9 4h1v0q2 1 9 3q19 8 28 11
l17 8l17 7q8 4 23 10l8 4q7 3 20 10q8 3 9 4q7 3 18 9l7 3q12 6 32 17q5 3 8 5q10 5 22 12l12 7q8 4 9 12q2 9 -4 15z" />
    <glyph glyph-name="nine" unicode="9" horiz-adv-x="1019" 
d="M886 739q-44 86 -115 149q-34 31 -73 55l-3 2q-7 5 -11 7q-2 1 -5 2q-3 2 -7 4q-9 5 -13 7l-21 10l-23 9l-16 6l-6 2q-10 4 -15 5l-20 6q-4 2 -13 4q-5 1 -7 2q-11 3 -34 7l-6 1q-5 1 -14 3q-4 0 -7 1q-1 0 -7 1q-8 1 -13 1q-3 1 -8 1q-21 2 -31 3h-7h-13h-20h-19l-20 -1
l-19 -2q-12 -1 -17 -2q-70 -10 -137 -35q-59 -23 -113 -57v-1q-7 -3 -4 -11q1 -1 2 -4q10 -22 14 -23v0q59 31 120 50q41 13 124 19q5 1 15 1l19 1l17 -1h17l18 -1q4 0 10 -1q5 -1 7 -1q9 -1 26 -3l1 -1q4 0 8 -1q4 0 11 -2q5 -1 7 -1q2 -1 6 -2q7 -1 11 -2l7 -2
q19 -5 28 -8q2 -1 7 -2q7 -3 11 -4l17 -6q4 -2 12 -5q4 -2 5 -3l14 -6l21 -10l15 -8q4 -2 10 -6l-4 -7l4 7q5 -3 6 -4q4 -2 12 -8l4 -2q31 -22 58 -49q54 -55 86 -127q32 -73 35 -153q3 -82 -25 -156l-4 -10l-8 -19l-7 -15q-1 -2 -2 -3l-6 -11l-8 -13q-21 -31 -50 -58
q-12 -11 -25 -21l-14 -10q2 7 3 12l2 12q1 6 1 8l2 17v1v1v7q1 9 1 14q1 45 -11 89q-2 6 -5 17q-2 4 -2 6v1l-2 4q-5 12 -7 18q-3 7 -11 22v0l-2 4q-7 12 -11 18q-3 6 -12 18l-2 3v0l-3 4q-8 11 -13 16q-20 22 -38 37q-22 18 -45 31q-22 13 -50 23q-26 10 -54 15
q-11 2 -29 4l-16 1h-1h-16v0h-9q-5 0 -14 -1h-1q-5 0 -14 -2h-1q-4 -1 -12 -2l-3 -1q-30 -6 -57 -18q-56 -25 -97 -70q-9 -10 -19 -23q-2 -4 -7 -11l-1 -1v-1l-3 -3q-3 -6 -5 -9q-15 -26 -24 -54q-10 -29 -13 -58q0 -3 -1 -8v-8v-5v-10v-1l1 -16q0 -8 1 -13l2 -14
q1 -4 3 -11q0 -2 1 -4q2 -8 7 -23q1 -2 2 -6q2 -3 5 -10q2 -3 2 -4v-1q5 -8 7 -12l8 -13v0v0q2 -3 6 -8q2 -2 3 -4l5 -6q1 -1 3 -4l11 -12q1 0 1 -1l16 -14v0l9 -7l9 -6v0q6 -4 13 -8l1 -1q3 -2 5 -2l10 -5q6 -3 10 -4v-1l20 -7h1l20 -5v0q5 -1 14 -2l10 -1h1l20 -1h1l18 1
v0q2 0 5 1h2q2 1 5 1q6 1 10 2l13 4q4 1 10 3l3 1q5 2 12 6h1q9 4 23 14l2 1v0l11 8q2 2 7 6l3 3q40 38 52 92v2q1 3 1 5l2 13v7l1 12v0v3v1l-1 7q-2 26 -12 49q-21 46 -64 69q-20 11 -41 15q-3 0 -8 1h-4q-3 1 -5 1h-12h-1l-11 -1h-1q-41 -5 -69 -34q-12 -13 -21 -29
q-6 -13 -10 -30v-1l-1 -9v-3v0l-1 -9v-2l1 -7q2 -15 7 -26q9 -22 28 -37q14 -11 30 -15q1 -1 4 -1q1 -1 2 -1q4 -1 6 -1h3q4 -1 6 -1h6q8 0 9 8v11q1 8 -8 9l-5 1h-1l-2 1h-3t-3 1q-1 0 -2 1q-2 0 -2 1q-10 3 -19 11q-11 11 -15 25q-5 15 0 34q6 22 22 36q18 16 42 17l7 -1
l10 -1h2h1t3 -1q2 0 3 -1q13 -3 25 -11q24 -16 34 -43q5 -14 5 -28v-5l-2 -12v-1v-1l-2 -9v-1l-1 -2q-10 -32 -35 -53q-1 -1 -3 -2l-3 -3l-7 -5q-2 0 -3 -1q-8 -4 -11 -6h-1v0h-1q-4 -2 -6 -2l-4 -2q-3 0 -4 -1l-9 -1q-1 -1 -4 -1h-4h-1l-2 -1h-9l-17 2l-13 3l-13 4l-12 5
l-12 7l-2 1l-1 1q-4 3 -8 5l-10 9l-9 9l-6 7l-1 2l-2 2l-2 3q-1 1 -2 4q-2 2 -3 4l-4 8v0h-1q-1 2 -2 6l-1 1q0 1 -1 4q-2 3 -2 4q-1 2 -2 6q-2 8 -3 11q0 2 -1 4v5l-1 9v1q-1 1 -1 5v3v7l1 7v2v2v1l1 5v4q4 18 10 36q15 36 42 60q27 25 61 37q17 5 34 7q8 1 17 1h2h6h4h1v0
l12 -1l10 -1q2 0 6 -1q8 -1 12 -2q20 -5 34 -11q65 -24 108 -79q9 -13 18 -28q1 -3 5 -9q1 -2 2 -5l2 -4q3 -7 4 -10v0q5 -12 10 -29l1 -3q2 -8 2 -12q1 -2 1 -3q1 -3 1 -4l1 -8q0 -3 1 -9q0 -4 1 -6v-1v-15v-5v-10v-9v-4q-2 -29 -8 -55v-1q-1 -2 -2 -7q-1 -3 -1 -5l-4 -12
q0 -2 -1 -5q-2 -4 -2 -7l-4 -11l-5 -10l-1 -4l-3 -6l-5 -10q-2 -6 -4 -9q-9 -17 -18 -31q-1 -1 -3 -4q-3 -6 -5 -8l-7 -10q-3 -4 -7 -9l-4 -4l-3 -5q-5 -6 0 -11l7 -8l2 -2l1 -1q1 -1 2 -1h2v1q2 0 4 1h1l7 3q197 74 282 163q41 43 66 85l10 18l10 19q1 2 2 5l8 19l9 24
l4 12q32 100 22 201q-9 100 -54 189z" />
    <glyph glyph-name="colon" unicode=":" horiz-adv-x="525" 
d="M385 140q99 64 22 189q-94 88 -185 22q-64 -75 -8 -169q80 -82 171 -42zM385 717q99 64 22 189q-94 88 -185 22q-64 -75 -8 -169q80 -82 171 -42z" />
    <glyph glyph-name="semicolon" unicode=";" horiz-adv-x="578" 
d="M288 -167q-61 -45 -47 -68q7 -13 29 -8q17 5 33 16q102 73 138 177q64 184 -94 395q-46 40 -95 3q-46 -39 -8 -93q152 -201 95 -343q-19 -46 -45 -73zM385 717q99 64 22 189q-94 88 -185 22q-64 -75 -8 -169q80 -82 171 -42z" />
    <glyph glyph-name="less" unicode="&#x3c;" horiz-adv-x="1155" 
d="M165 593q-84 -44 -73 -72q4 -29 57 -51q284 -153 814 -438q52 -39 71 -5q12 37 -48 61q-497 269 -746 403q153 83 399 216q316 170 338 181q77 39 40 93q-42 47 -103 19q-534 -293 -749 -407z" />
    <glyph glyph-name="equal" unicode="=" horiz-adv-x="1361" 
d="M1141 676q57 0 38.5 47t-76.5 51h-887q-63 0 -49 -49t81 -49h893zM1141 295q57 0 38.5 47t-76.5 51h-887q-63 0 -49 -49t81 -49h893z" />
    <glyph glyph-name="greater" unicode="&#x3e;" horiz-adv-x="1160" 
d="M216 978q-50 28 -85 6q-10 -35 36 -56q115 -61 747 -402q-133 -72 -400 -216q-266 -144 -336 -178q-74 -40 -42 -96q28 -52 113 -9l768 412q59 34 44 61q-7 22 -56 48q-567 306 -789 430z" />
    <glyph glyph-name="question" unicode="?" horiz-adv-x="1149" 
d="M593 -228h-1l-7 2q-2 1 -3 1q-12 3 -24 3h-2q-24 0 -45 -13q-19 -11 -29 -30q-3 -4 -5 -9v-1q-1 -2 -2 -3l-1 -3v0v-1v0q-3 -9 -3 -18q-1 -16 5 -31q5 -11 13 -20q7 -7 15 -12l10 -5l3 -1q5 -2 7 3l3 7q2 5 -3 7l-3 1q-4 3 -6 5q-5 4 -9 9q-5 6 -7 14q-3 10 -1 20
q1 5 3 11v0l2 2v2l1 1q1 2 3 5q9 11 21 17q13 6 27 5q8 -1 15 -4h1l1 -1v0l3 -1l2 -1q4 -3 6 -4q14 -10 21 -25q8 -16 7 -33q-1 -8 -3 -17l-1 -1q-1 -1 -1 -3l-1 -1l-1 -3q-1 -1 -2 -3v-1l-2 -2q-2 -3 -1 -2q-10 -16 -26 -26t-35 -11q-19 -2 -36 5l-2 1v0l-6 3l-2 1l-2 1
q-1 1 -2 1l-2 1l-2 2q-9 5 -16 12q-15 13 -22 31q-7 16 -8 34q0 17 5 37q3 9 6 17v1l1 1l1 2l1 2l1 1q1 2 4 7q9 13 24 22q13 8 31 12q9 1 19 1q23 0 44 -9q16 -8 30 -21q-5 2 -11 5zM659 -228q-3 8 -8 18q-6 9 -12 17q-14 19 -34 32q-40 28 -91 28h-11q-30 -2 -58 -15
q-30 -14 -52 -40l-1 -2q-3 -3 -4 -5l-1 -2q-2 -3 -4 -5l-1 -2q-2 -3 -3 -5l-1 -2q-2 -3 -4 -5l-3 -6l-4 -11q-2 -4 -2 -6l-3 -7q-10 -34 -8 -66q3 -36 22 -66q16 -29 45 -51q13 -9 28 -17q2 -1 5 -2l2 -1l6 -3l4 -1q0 -1 1 -1l8 -3l4 -1q21 -7 44 -7q12 0 23 2q33 6 61 25
q26 20 41 48l1 2q2 3 3 5v2q2 4 3 5l1 4v1l1 2q1 2 2 8v0q2 8 3 15q4 1 5 5l1 4q1 5 2 9q3 19 2 39q-1 33 -13 61zM616 310q11 8 21 14q-11 -7 -21 -14zM1006 989q-21 38 -50 71q-14 18 -30 33q-8 8 -16 15l-4 3l-12 10q-3 2 -8 6l-11 9h-1v0q-2 2 -6 4q-8 6 -13 8
q-3 2 -5 3l-15 9l-10 5v0l-10 5q-42 19 -89 28q-24 5 -49 6q-69 4 -136 -17q-44 -13 -86 -38q-40 -24 -75 -58l-14 -14l-5 -6q0 -1 -2 -2v0v-1l-8 -9v0l-10 -14q-1 -1 -5 -7l-2 -3q-3 -4 -7 -10q-1 -3 -2 -4q-3 -4 -4 -7q-24 -44 -34 -92q-5 -23 -6 -49q-2 -24 0 -49
q3 -25 9 -48q6 -25 15 -47q10 -24 22 -43q14 -22 28 -39q4 -5 13 -14l3 -4l1 -1l4 -3q8 -9 13 -13l4 -4l14 -11v0l11 -8q3 -2 8 -5l3 -2q42 -26 92 -36q48 -9 97 -1q47 7 89 31q40 22 71 57q17 19 28 37q12 20 20 42q15 44 12 89q-2 44 -21 83q-17 38 -48 67q-8 8 -15 13
l-3 3h-1l-14 10h-1l-6 4l-6 3l-3 2q-3 1 -7 3l-2 1v0q-6 2 -10 4q-37 13 -76 11q-37 -3 -69 -20q-31 -15 -53 -41h-1q-3 -4 -4 -6l-4 -4l-1 -2l-2 -2q-1 -3 -3 -5q-3 -5 -4 -7q-8 -14 -13 -29q-9 -29 -6 -60q3 -27 16 -51q11 -21 30 -37l1 -1q5 -4 7 -6l3 -2q0 -1 1 -1l5 -3
q4 -3 10 -6q4 -2 10 -4q16 -6 34 -7h3q16 -1 32 4q12 3 24 10q15 9 27 22q3 4 5 7l2 2q5 7 -2 13l-9 7q-6 6 -12 0l-2 -2q-2 -1 -5 -3q-10 -8 -20 -11q-18 -5 -35 -2q-10 3 -19 8q-3 2 -4 3q-3 2 -4 4h-1l-1 1l-1 1q3 -3 0 0l-2 2q-1 1 -3 4l-1 1q-8 11 -13 23q-4 14 -4 28
q1 15 7 28q4 6 9 13l1 1l1 1l2 2l4 4q0 1 2 2v1q13 11 30 17t34 5h1q18 -1 33 -9l4 -2l4 -3h1l1 -1q1 -1 2 -1l5 -4v-1l4 -3q2 -2 0 0v0q-1 1 0 0l2 -1q2 -3 7 -8q28 -33 27 -76q-1 -22 -9 -41q-4 -10 -11 -19l-1 -2l-1 -1v-1l-6 -7l-2 -1q0 -1 -1 -1q0 -1 -1 -2l-2 -2
q-36 -36 -86 -42q-25 -3 -50 2q-24 5 -46 19l-6 3q-2 2 -4 3l-7 6l-5 4q-2 2 -7 6l-1 1l-1 1q3 -3 0 0q2 -2 0 0l-1 1v0l-3 4q-5 4 -6 6l-1 1q-18 20 -31 48q-5 12 -10 27q-4 13 -6 28q-3 15 -2 30q0 17 2 30q4 30 18 58q0 1 2 4q1 1 1 3q2 4 4 6q1 1 1 3q2 3 3 4l3 6l9 10
v1l4 5q5 6 8 9q24 26 50 43q30 19 60 30q33 11 65 14q35 3 67 -2q35 -5 65 -18l8 -3l8 -4q3 -1 10 -5l4 -3q3 -1 9 -5q5 -3 6 -3l6 -5l2 -1q3 -2 5 -3l8 -6l6 -5q6 -5 13 -12q13 -11 25 -24q23 -26 41 -55q36 -59 49 -127q12 -66 0 -132q-11 -64 -44 -121q-7 -12 -16 -26
q-3 -4 -8 -11l-6 -8l-5 -6q-19 -23 -42 -45q-38 -36 -95 -71q-18 -10 -54 -31q-31 -17 -46 -27l-20 -12q-63 -29 -117 -89q-108 -120 -64 -275q3 -11 13 -18q21 -14 55 4q16 8 9 36q-1 2 -2 11q-2 8 -2 11q-1 7 -2 19q-2 10 -2 18q4 57 4 60q7 37 23 68q19 37 51 65
q29 26 82 53q13 7 42 22q40 20 61 31q65 35 110 73q28 23 51 50l12 14q8 9 12 14q11 16 21 31q42 66 60 143q18 81 6 163q-12 86 -54 161z" />
    <glyph glyph-name="at" unicode="@" horiz-adv-x="1291" 
d="M864 740v0l-4 6l-3 2q-4 6 -7 8l-6 6l-5 5l-9 8v0l-2 1l-3 3q-6 5 -9 7q-26 19 -59 31q-4 2 -12 4q-1 1 -2 1l-2 1h-1l-3 1q-10 2 -14 3l-18 3v0h-4q-9 1 -15 2h-16h-3h-3q-11 -1 -16 -1q-22 -3 -39 -7q-20 -6 -37 -14q-18 -8 -36 -20q-17 -12 -32 -27q-6 -6 -15 -16
l-8 -10v0l-7 -9v-1l-4 -5q-2 -3 -5 -9v-1q-2 -3 -5 -8l-1 -2q-1 -2 -3 -8l-1 -2q-9 -20 -14 -42q-9 -44 1 -89q2 -10 6 -21q1 -3 4 -10v0v-1l1 -3q3 -5 3 -7q10 -20 23 -38t30 -32q1 -2 4 -4l5 -4q1 -1 3 -2l6 -4v-1l10 -6q6 -3 9 -5l9 -4q3 -2 8 -3q2 -1 3 -2q6 -2 17 -5
q3 -1 4 -1q3 -1 8 -2h4v0q7 -1 11 -1l11 -1v0h8h3h5q2 0 4 1l13 1v1l16 3v0l8 3q6 2 8 2v0v0q5 3 10 5h1l4 2l7 4q4 3 7 4v0v0l13 9v1l12 10v0l7 7l5 6q0 1 1 1l9 12v0l7 11v0l2 4v1q1 2 2 3q2 5 3 7l3 10q1 2 3 7v3q1 3 2 10v1q2 6 2 19v1v1v9q0 3 -1 8q0 1 -1 3
q-5 40 -33 70q0 1 -1 1q-1 2 -2 3l-8 7q-2 2 -4 3l-7 5l-2 2v0l-5 3q-16 10 -35 14q-36 6 -69 -10q-15 -7 -26 -18l-5 -5l-2 -2q-1 -2 -2 -2l-6 -8v0l-4 -8v0q-15 -27 -9 -57q2 -13 8 -24q6 -10 14 -20h1l5 -5l1 -1v0v0l6 -4l1 -1l4 -2v0q10 -6 20 -8q17 -3 34 2q12 3 22 11
l2 2q3 3 1 1q3 2 4 4v0l1 1l3 3l3 4q3 5 -2 9l-6 5q-5 4 -9 -1l-3 -3v0v0q0 -1 -1 -2t-2 -1l-2 -2h-1l-1 -1q-7 -5 -15 -7q-11 -2 -22 2q-29 8 -33 43q-1 18 8 33l3 4l5 6h1q0 1 1 1l1 1l2 2q8 6 18 10q20 8 41 2q10 -3 19 -9l2 -2l7 -6v0q1 0 1 -1l5 -5v-1q1 0 1 -1
q15 -19 17 -44v-2q1 -2 1 -3l-1 -7v-2q-1 -7 -1 -9q-1 -1 0 -1l-1 -1q0 -3 -1 -4q0 -1 -1 -3t-1 -3l-3 -6q0 -1 -1 -3t-2 -2v-1q-1 -1 -1 -2l-4 -5l-9 -10l-2 -2l-4 -4l-8 -6l-9 -5l-9 -5h-1t-2 -1q-2 0 -6 -2l-9 -3l-10 -1l-7 -1h-1h-2h-3h-3h-4l-7 1v0q-2 0 -5 1h-1l-3 1
q-2 0 -3 1q-1 0 -4 1q-6 2 -8 3q-1 1 -3 1q-2 1 -3 2l-6 3l-1 1q-1 0 -3 2q-1 0 -2 1l-4 3l-4 3l-1 1q-1 1 -2 1v0v1l-3 2q-1 1 -1 2h-1q-9 10 -17 22q-16 24 -19 50q-4 27 4 53q4 13 10 24q3 5 7 11v1q2 3 3 4l2 2v1v0l7 8l4 4l3 3q4 4 7 6q11 11 20 17q43 29 95 31
q12 0 24 -1q3 0 8 -1h4q1 -1 4 -1q5 -1 7 -2v0q10 -2 22 -6l3 -1q5 -2 8 -4q1 0 2 -1q2 0 3 -1l5 -3l6 -3l4 -2v0l9 -6q2 -1 4 -3l5 -3q2 -2 6 -5q2 -2 3 -2q14 -11 30 -28v0v0q1 -2 4 -5l2 -2l6 -8q-2 2 2 -2q2 -3 3 -5l5 -7q2 -3 5 -7l1 -3l3 -4l4 -7q2 -5 3 -7
q7 -13 11 -24q1 0 2 -3q1 -4 2 -7l3 -8q1 -4 3 -8q1 -4 1 -5l1 -4q2 -5 7 -4h8q6 1 6 6l1 11v8v10v8q-1 2 -1 4q-1 16 -4 30q-8 40 -30 78l-6 10v1q-2 2 -5 7l-2 3q-2 3 -6 8q-2 2 -2 3zM569 1023q-250 -17 -380 -227q-124 -197 -50 -435q88 -215 325 -334q167 -78 329 -43
q79 19 103 55q17 47 -43 49q-170 -23 -275 -3q-191 42 -283 157q-76 94 -77 229q-1 126 62 236q57 100 161 161q101 58 221 65q135 9 252 -60q126 -73 156 -196q31 -238 -134 -319q-46 -18 -105 -27q87 37 114 133q44 199 -144 332q36 -61 78 -178q64 -197 -167 -281
q-60 -18 -126 -27q-59 -3 -63 -41q3 -25 35 -37q226 -48 414 15q165 73 186 259q8 125 -23 203q-48 95 -137 170q-191 161 -429 144z" />
    <glyph glyph-name="A" unicode="A" horiz-adv-x="1278" 
d="M-6 1022q-18 0 -18 -18v-39q0 -18 18 -18h1073q1 -24 2 -63q1 -28 1 -44q0 -22 2 -158q1 -181 2 -208q1 -22 2 -94q1 -34 1 -56q-18 19 -39 34q-30 22 -65 36q10 85 -14 169l-3 11l-4 11l-3 9l-5 11q-7 19 -20 42q-14 23 -26 39l-2 3q-3 4 -5 7l-8 8q-3 5 -11 12
q-3 4 -5 6q-33 33 -74 57q-43 24 -86 36q-47 13 -92 13q-19 1 -47 -2q-26 -3 -45 -8l-3 -1q-5 -1 -8 -2l-16 -5v0l-19 -6v0l-14 -6q-2 -1 -3 -1v0l-12 -6q-2 -1 -7 -4l-4 -1q-41 -22 -74 -56q-66 -67 -82 -160q-1 -7 -3 -19v-3v-1v-2q-1 -13 -1 -20q-1 -23 2 -44
q3 -23 9 -43q1 -6 5 -18l2 -4v0l6 -14l2 -5q19 -42 50 -73q32 -30 72 -48q47 -21 98 -21q33 0 63 8l3 1q5 1 7 2l9 3l4 2l10 4l4 2q19 8 35 21q32 23 52 58q19 33 24 70q5 36 -3 71q-4 17 -11 33t-17 30q-21 28 -50 44q-28 16 -60 19q-29 3 -58 -5h-1q-4 -2 -6 -2l-5 -2v0v0
l-7 -3h-1v0l-2 -1q-3 -2 -4 -2q-12 -7 -23 -16q-21 -17 -32 -40q-11 -22 -13 -46q-1 -21 5 -42q1 -4 3 -10v0v0l2 -6h1l1 -3q4 -8 10 -16q10 -14 25 -24q23 -15 50 -16q16 0 32 5q5 1 8 2l2 1q8 4 5 12l-4 11q-3 8 -11 5l-2 -1q-2 0 -6 -1q-7 -2 -14 -2q-4 0 -8 1
q-17 2 -31 13q-9 6 -15 16q-3 5 -5 10l-1 2v0l-1 5q-1 4 -2 6q-6 29 10 56q8 14 21 23q7 5 15 9h2q1 1 2 1l4 2l5 1q1 0 3 1h1q19 4 38 0q19 -3 36 -14t29 -29q5 -8 9 -18q3 -11 5 -22q4 -23 -1 -46q-4 -23 -18 -43q-13 -20 -33 -33q-11 -7 -22 -11l-11 -4h-1v-1l-6 -1
l-7 -2q-15 -3 -31 -3q-38 0 -71 18q-50 26 -71 78l-5 14q0 2 -1 5q-2 5 -2 8q-4 14 -5 29q-1 13 0 29q0 4 1 11l1 7q1 7 2 11q14 59 57 99q23 20 49 32q1 0 2 1q3 1 4 2l8 3v0l11 4l11 3l14 3q2 0 5 1h3q11 2 30 3h8q13 0 23 -1q29 -2 59 -13q56 -19 99 -63l5 -5q3 -4 6 -6
l4 -6l5 -6q7 -9 17 -24q9 -17 13 -26l3 -7l6 -15l3 -7q21 -59 19 -122t-26 -122q-8 -21 -20 -41l-2 -2q-25 -41 -78 -83q-102 -82 -232 -82q-141 0 -301 96q-34 28 -62 62q-18 22 -34 46q-11 18 -21 37q-7 13 -12 24l-3 8q-4 8 -12 5l-11 -4q-8 -3 -5 -12l4 -9q4 -11 11 -26
q24 -50 56 -91q51 -68 122 -114q22 -15 46 -27q120 -64 244 -64v0q140 0 267 85q19 11 36 24q15 13 31 27l1 1l3 3l2 2q10 10 20 21q27 31 47 66q24 42 38 89q20 -9 37 -21q65 -47 89 -131q9 -179 20 -330q1 -20 4 -54l1 -16q3 -36 4 -51q2 -21 5 -43q1 -11 12 -11h11
q11 0 12 11q2 23 4 43q1 14 4 51l2 15q2 34 4 55q14 196 23 431q1 24 3 112q2 74 2 94q1 28 3 208q1 136 1 158q1 17 2 44q1 39 1 63h93q18 0 18 18v39q0 18 -18 18h-1300z" />
    <glyph glyph-name="B" unicode="B" horiz-adv-x="937" 
d="M953 1007q0 16 -16 16h-179l5 14v0v1l8 31q0 2 2 8v4q1 5 2 7q2 11 3 17v0v0l3 25q0 4 1 11v4l1 13q1 29 -2 58q0 4 -1 11q-1 3 -1 4l-2 14v1q-1 3 -2 10q0 1 -1 4v1q-1 1 -1 4q-2 7 -3 11q0 2 -2 6q-4 14 -7 22q-1 3 -1 4q-2 6 -4 10v0l-6 13q-2 4 -6 13l-2 4q-3 6 -5 9
v0q-1 1 -4 6q-7 12 -11 18q-13 19 -33 41q-13 14 -33 33q-17 13 -32 23q-14 10 -25 16q-9 5 -17 9q-5 3 -7 4q-14 5 -21 -8q-6 -14 7 -21q2 -1 5 -3l14 -10q9 -7 21 -17t25 -24q16 -19 26 -32q15 -21 23 -39h1q2 -5 7 -15q1 -3 3 -7q0 -1 2 -6q1 -3 2 -5q3 -7 4 -10v-1
l3 -12q1 -2 2 -7l1 -5v0l1 -4q7 -64 -12 -123q-34 -101 -140 -135h-562q-16 0 -16 -16v-43q0 -16 16 -16h950q16 0 16 16v43zM425 126q223 39 341 133q150 119 101 306q-33 125 -156 211q-116 82 -254 90q-126 8 -220 -62q-100 -75 -108 -198q-5 -39 6 -89q24 -99 110 -152
h2q11 -7 23 -13q15 -7 31 -13q6 -2 16 -4q2 -1 7 -2l6 -1q1 -1 3 -1l8 -1q2 -1 3 -1h7q9 -1 16 -1h2q16 0 33 3h1q32 6 61 22q57 33 80 94l1 2q1 3 2 5l2 7v1q3 9 4 14v1q1 5 1 6l1 6v1l1 7v1l1 7q1 30 -10 58q-19 54 -69 81q-23 12 -47 16q-22 4 -43 0q-3 0 -6 -1
q-45 -10 -72 -47q-22 -31 -23 -69q0 -31 18 -57q13 -18 33 -29q12 -6 26 -9l3 -1h1l4 -1q13 -2 15 11l2 9q2 13 -10 16l-6 1q-8 3 -15 7q-11 8 -18 19q-10 15 -8 33q1 22 16 40q17 21 43 25h1q14 3 28 -1q15 -3 29 -12q29 -18 39 -51q5 -17 3 -34v-4l-1 -5l-1 -5q0 -1 -1 -3
v-1q-1 -2 -3 -8l-2 -5q0 -1 -1 -3l-1 -2q-8 -18 -21 -32q-14 -14 -32 -23t-38 -12q-10 -1 -20 0q-4 0 -10 1l-4 1l-9 1v0l-3 1q-1 1 -2 1h-3v1q-7 2 -10 3q-11 4 -20 10q-19 11 -35 27q-31 34 -38 80q0 2 -1 8v5v9v3q5 62 43 109q15 17 32 30q2 1 2 3q116 91 278 50
q170 -43 185 -200q12 -134 -155 -234q-171 -101 -500 -91q-43 -16 -27 -62q9 -39 68 -58q389 -72 738 -372q36 -35 61 -17q15 21 -20 58q-275 266 -515 353z" />
    <glyph glyph-name="C" unicode="C" horiz-adv-x="1103" 
d="M1005 1021l4 14v1l8 31q1 2 2 8q0 2 1 4q1 6 1 7q2 11 3 16v1l3 25q1 4 1 10q1 9 0 4l1 14q1 28 -2 57q0 4 -1 11v4l-2 14h-1v1q0 2 -2 10l-1 4v0q0 2 -1 5q-1 7 -2 10q-1 1 -1 4q-1 2 -1 3q-4 14 -7 21q-1 2 -2 5l-3 9h-1l-5 13q-2 5 -7 14l-2 4l-4 8l-1 1l-3 6
q-7 11 -11 17q-13 19 -33 41q-13 15 -33 32q-17 14 -31 24q-15 10 -26 16q-9 5 -17 9q-3 2 -7 3q-13 6 -20 -8q-6 -13 6 -20q2 -1 5 -3l14 -10q9 -7 21 -17t25 -24q16 -19 26 -32q15 -21 23 -39h1q2 -5 7 -15q-2 3 2 -6q1 -2 3 -7q1 -3 2 -4q2 -7 3 -11v0l4 -12q1 -2 2 -7
q0 -2 1 -5v0v0l1 -4q7 -64 -13 -123q-33 -100 -138 -134h-809q-16 0 -16 -16v-43q0 -15 16 -15h1115q16 0 16 15v43q0 16 -16 16h-98zM1103 -294l-18 22q1 -1 -4 5q-4 5 -6 8l-11 14q-18 23 -47 63q-3 4 -8 10l-18 27l-13 20l-14 20q-8 14 -13 21l-13 22q-2 4 -6 11
q-13 23 -19 34q-25 48 -45 98q-22 53 -32 102q-1 3 -2 9q-2 11 -3 17l-2 13q0 2 -1 8v6q-1 6 -1 20l-1 6v7l1 10v8q2 47 15 97q6 24 13 44q8 23 17 42q19 39 44 74q13 17 25 31q4 5 13 14q1 2 5 6q4 5 7 8q22 22 45 43q13 11 32 26l1 1q1 1 6 5l2 2l4 2q5 5 2 11l-4 8
q-3 6 -9 5h-5l-12 -3q-21 -5 -46 -14q-34 -14 -66 -32q-17 -10 -38 -25q-6 -4 -18 -13l-2 -1q-10 -8 -19 -17q-9 -8 -20 -18l-9 -10l-10 -11l-1 -1q-3 16 -7 31q-10 35 -29 71q-9 18 -20 34q-10 16 -23 31q-50 61 -120 96q-17 9 -36 16q-10 4 -18 7q-5 1 -15 4l-4 2
q-41 10 -79 10h-2q-81 0 -151 -38q-34 -19 -63 -47t-49 -60l-5 -8q-1 -3 -3 -6l-1 -2q-3 -5 -7 -14l-2 -4q-3 -6 -7 -17l-5 -13q0 -1 -1 -2l-1 -3q-5 -18 -8 -39q-3 -20 -3 -39q1 -79 47 -142q22 -31 52 -53q13 -10 30 -19q6 -4 16 -8l6 -3q1 0 3 -1l4 -2q1 0 3 -1l8 -3h2
l8 -3q10 -2 17 -4q18 -3 36 -3h2q34 0 67 12q65 24 101 83l2 2q1 3 2 5l4 7l1 1q4 8 6 13v1q2 5 3 6l2 7v1l2 7v0l2 8q7 31 1 61q-10 60 -57 97q-21 17 -46 26q-21 7 -44 7h-6q-47 -2 -82 -35q-29 -27 -36 -66q-6 -31 8 -61q10 -21 28 -35q11 -9 24 -15l3 -1h1l4 -2
q8 -2 11 5l4 10q3 8 -5 12l-6 3q-9 4 -16 11q-12 10 -18 25q-7 20 -2 41q6 25 28 43q23 20 54 20h1q17 -1 32 -7q17 -7 30 -20q30 -26 34 -66q3 -20 -3 -39l-1 -5l-2 -5l-2 -5l-2 -4v-1q-2 -3 -5 -8l-3 -6q-1 -1 -2 -3l-1 -1q-13 -19 -31 -32t-40 -20q-23 -6 -45 -5
q-12 1 -23 3q-4 1 -11 3l-5 2l-6 3h-2l-1 1l-3 1q-1 1 -2 1q-2 1 -3 2v0q-8 4 -11 6q-11 7 -20 14q-19 16 -33 38q-29 44 -26 96v9l1 6q1 6 1 10q3 13 7 24l5 13l2 3q2 6 4 8v2q1 1 1 2q3 5 5 8l2 3q1 1 1 3l4 6q14 21 36 40q21 18 44 29q50 25 104 22q26 -1 51 -10
q2 0 5 -1q5 -2 8 -3q5 -2 13 -6q13 -6 24 -13q47 -28 79 -72q8 -11 15 -22q7 -12 12 -24q10 -22 17 -49q13 -50 7 -101q-3 -25 -11 -49l-1 -3v-1v0l-3 -8q-1 -3 -1 -4q-2 -6 -3 -8q-4 -11 -10 -24q-21 -44 -55 -83q-32 -37 -72 -63q-37 -25 -81 -41q-11 -4 -21 -7t-21 -5
q-19 -5 -41 -8q-40 -5 -79 -1q-18 1 -36 4q-6 1 -17 3l-8 2l-8 3q-28 8 -58 21q-40 18 -76 42q-5 3 -11 8q-5 4 -7 5l-7 5q-6 5 -12 -1l-7 -8q-5 -6 1 -12l5 -6q9 -9 18 -17q35 -31 76 -56q30 -17 60 -31l17 -7q11 -5 18 -8q20 -7 41 -13q46 -12 93 -13h12q19 0 39 2
q27 2 54 8q56 12 109 40q58 31 102 74q22 21 41 45q7 -39 21 -84q17 -54 46 -112q23 -46 60 -100q8 -12 24 -34q6 -9 8 -11q1 -2 8 -11q16 -21 25 -31l16 -20l16 -18q8 -9 23 -26l9 -9q7 -8 20 -22l10 -10l20 -20q7 -8 7 -7q13 -13 36 -35l10 -10q11 -10 26 -23l16 -14
q2 -2 5 -2t6 2l8 6q3 2 3 6q1 4 -2 7z" />
    <glyph glyph-name="D" unicode="D" horiz-adv-x="1024" 
d="M906 1023l4 12v1l8 30q0 2 1 8t1 3q0 2 1 7q2 11 3 16v1l3 24q1 3 1 10v4l1 13q1 27 -1 55q-1 4 -2 11q-1 5 0 4l-2 13v1v0v0q-1 3 -2 9q-1 3 -1 5v0q-1 1 -1 4q-2 7 -3 11q-1 2 -2 6l-6 21l-2 4l-3 9h-1l-5 12q-2 5 -6 14q-2 2 -3 4q-2 5 -4 8v0v0q-1 1 -4 6
q-6 11 -10 17q-13 18 -32 39q-12 14 -32 32q-16 13 -30 22q-14 10 -25 16q-8 5 -16 9q-4 1 -7 3q-13 5 -19 -8q-7 -13 6 -20q1 0 4 -3q7 -4 14 -9q9 -7 20 -17q12 -10 24 -23q16 -18 25 -31q14 -20 23 -37v0q3 -5 7 -15l3 -6t2 -6q1 -3 2 -5q2 -6 3 -10v0l4 -12q0 -1 2 -7
q0 -3 1 -4v-1l1 -3q6 -62 -12 -118q-32 -96 -132 -129h-710q-18 0 -18 -18v-39q0 -18 18 -18h610q0 -2 1 -5q0 -19 1 -29q0 -15 1 -102q2 -117 3 -135q0 -14 2 -61q2 -57 3 -73q5 -91 13 -177h66l154 75v-4q0 -38 -9 -72q-10 -35 -28 -66q-18 -32 -42 -59q-49 -53 -117 -83
q-16 -7 -34 -12q-17 -6 -34 -9q-20 -4 -36 -6h-9l-11 -1h-7l-8 -1h-3q-80 0 -145 23q-71 25 -122 76q-26 26 -45 57t-30 67q-12 35 -14 72q-2 19 -1 37v2l1 1v6l2 15v0v3q1 5 2 9q14 79 59 133q23 29 52 44q29 16 63 17q33 2 64 -13t52 -42q10 -14 17 -29q7 -16 10 -33
q1 -6 1 -8v-4l1 -11v-3v-5l-1 -3q0 -8 -2 -16t-5 -15q-13 -32 -41 -51q-29 -19 -63 -19h-1q-16 0 -31 6q-16 6 -28 17q-12 12 -19 27q-4 7 -6 16q-1 3 -2 8v4l-1 4v5v3q0 5 1 8q1 8 4 16q6 15 18 26q13 11 29 15q5 1 8 2h1h2h2h1h3q8 1 15 -1q16 -4 27 -17q11 -12 14 -29v-3
v-3v-2v-9q-1 -9 -5 -17q-6 -15 -20 -16q-3 -1 -6 -3q-2 -3 -1 -7l1 -11q1 -8 9 -7q8 0 14 2q8 3 14 7q11 9 18 23q5 10 8 24q1 7 1 13v4v2v0v1v6q-2 27 -19 49q-17 21 -43 30q-6 2 -14 4q-3 0 -6 1h-4h-1h-3h-6h-1h-5q-6 -1 -13 -2q-27 -5 -48 -22t-33 -42q-6 -12 -8 -25
q-2 -6 -2 -14l-1 -5v-1v-6v-1v-6l1 -1v-6q1 -7 2 -13q3 -13 8 -25q10 -25 28 -44q19 -19 43 -31q25 -11 52 -13h10q48 0 89 25q47 27 70 77q5 12 9 25q4 12 6 26v3q1 6 1 10v4v2v9v1v10q0 5 -1 12q-3 26 -13 50q-9 24 -24 46q-30 44 -77 69q-47 26 -101 26q-53 1 -102 -22
q-44 -22 -81 -63q-32 -35 -55 -82q-21 -43 -31 -91q-21 -96 6 -194q13 -48 36 -91q24 -44 57 -81q66 -74 161 -113q88 -36 189 -37h13h10l8 1h6q8 1 13 1q26 3 49 8q24 5 48 13t47 19q91 43 154 122q32 40 53 84q21 47 29 95q9 52 4 100q-6 50 -26 95l-17 40q-1 3 -5 5
q-4 1 -8 -2l-2 -1l-184 -93q3 31 4 56q1 16 3 73q1 47 2 61q1 18 2 135q2 88 2 102q0 10 1 29q0 3 1 5h307q18 0 18 18v39q0 18 -18 18h-122z" />
    <glyph glyph-name="E" unicode="E" horiz-adv-x="1031" 
d="M903 1023l4 13v1l8 29q0 3 1 8q0 2 1 4q0 1 1 7q2 10 3 16v1l3 24q1 3 1 10v4l1 13q1 27 -1 55q-1 4 -2 11v4l-2 13v0v1q-1 1 0 0q-1 4 -2 9q-1 3 -1 5v0v0q-1 2 -1 4q-2 7 -3 11l-2 6l-6 21q-2 2 -2 4l-3 9h-1l-5 12q-2 6 -6 14l-2 4q-4 6 -5 8v0v0l-4 6q-6 11 -10 17
q-13 19 -32 39q-12 14 -32 32q-16 13 -30 23q-14 9 -25 15q-8 5 -16 9q-4 2 -7 3q-13 5 -20 -8q-6 -13 7 -20q2 -1 4 -3q7 -4 14 -9q9 -7 20 -17q12 -10 24 -23q16 -18 25 -31q14 -20 23 -37v0q3 -5 7 -15q2 -5 3 -6q0 -2 2 -6q1 -3 2 -5q2 -7 3 -10v0l4 -12q0 -2 2 -7
q0 -3 1 -4v-1l1 -3q6 -62 -12 -118q-32 -96 -132 -130h-821q-18 0 -18 -17v-39q0 -18 18 -18h721v-5q1 -17 2 -29q0 -16 1 -103q2 -117 2 -134q1 -16 3 -62q1 -57 2 -72q6 -92 14 -178h66l154 76q0 -6 0 -5q0 -37 -9 -71q-10 -36 -28 -67q-18 -32 -42 -59q-49 -53 -117 -83
q-16 -7 -34 -12q-17 -6 -34 -9q-20 -4 -36 -6h-9l-11 -1h-7l-8 -1h-3q-80 0 -145 23q-71 25 -122 76q-26 26 -46 58q-18 31 -30 66q-11 36 -14 72q-1 19 0 37v4v5l2 15v1l1 3q0 5 1 9q14 78 59 133q24 28 53 44t62 17q34 1 65 -13q30 -15 51 -43q11 -14 18 -29q6 -16 9 -32
q1 -5 2 -9v-4v-11v-2v-6v-2q-1 -9 -2 -16q-2 -8 -5 -16q-13 -31 -42 -51q-28 -19 -63 -19v0q-17 0 -32 6t-27 18q-12 11 -19 26q-4 8 -6 16q-1 3 -2 8l-1 4v4v5v4v8q2 8 5 15q6 15 18 26q13 11 29 16q4 1 8 1v0q1 0 3 1h1h2h2q8 0 16 -2q16 -4 27 -16q11 -13 13 -30v-2l1 -3
v-3q0 -4 -1 -9q-1 -9 -4 -16q-6 -15 -20 -17q-4 0 -6 -3t-2 -7l2 -10q1 -9 9 -8t14 3q7 2 13 7q12 8 18 22q6 11 8 25q2 6 2 12v4v4v5q-2 27 -19 49t-44 31q-6 2 -13 3q-3 1 -7 1h-3h-1q-2 1 -3 1h-6h-1q-4 -1 -6 -1q-6 0 -13 -2q-26 -5 -47 -22q-22 -16 -33 -41
q-6 -13 -9 -26q-1 -6 -2 -14v-5v0v-7v0v-7v0l1 -7q0 -7 2 -12q2 -13 7 -26q10 -24 29 -44q18 -19 43 -30q24 -12 51 -14h11q48 0 89 25q47 28 70 77q5 12 9 25q4 12 6 26v3q1 7 1 10v4v2v10v0v10q-1 5 -1 13q-4 26 -13 50t-24 46q-30 44 -77 69t-101 26t-102 -23
q-45 -21 -82 -62q-32 -36 -54 -82q-22 -44 -32 -92q-13 -61 -7 -126q-14 36 -22 73q-12 52 -14 105q-1 47 7 94q6 37 19 77q17 55 46 103q5 9 13 22q0 1 1 2t1 2l6 9q5 7 -2 12l-10 7q-7 4 -12 -2l-6 -9q-2 -3 -3 -4q-10 -12 -16 -22q-33 -49 -55 -107q-17 -43 -25 -82
q-11 -51 -12 -102q-2 -58 8 -116q11 -65 37 -125q2 -5 7 -14l7 -17q1 0 1 -1l8 -15q5 -10 9 -15l9 -16q2 -3 6 -10q2 -2 3 -5q6 -8 17 -23q4 -6 5 -6q2 -4 8 -10q2 -3 4 -5q1 -2 4 -5q5 -7 8 -10l4 -4q14 -16 22 -23q1 -2 4 -5q7 -6 10 -9l14 -12q3 -4 11 -10l4 -3l12 -10h1
l18 -14q1 -1 0 0q1 -1 0 0q1 -1 0 0v0l18 -11q4 -3 11 -8q5 -2 6 -3q5 -3 15 -8l4 -2q37 -19 77 -31q66 -20 137 -21q16 -1 32 -1h12h10l9 1h6q8 1 13 1q26 3 49 8q24 5 48 13t46 19q92 43 155 122q32 40 53 84q21 47 30 95q8 52 3 100q-6 50 -26 96l-17 39q-1 4 -5 5t-8 -1
l-2 -1l-184 -93q2 27 4 56q1 15 3 72q1 46 2 62q1 17 2 135q1 86 2 102q0 10 1 29v5h319q18 0 18 18v39q0 17 -18 17h-133z" />
    <glyph glyph-name="F" unicode="F" horiz-adv-x="1194" 
d="M622 306q-42 30 -90 58l-6 3q-11 7 -17 10l-24 12q-26 13 -48 23q-19 9 -49 21q-29 11 -50 19q-8 2 -18 6q332 168 414 238q2 -206 3 -213q0 -23 2 -95q1 -88 3 -113q1 -40 3 -81q-20 23 -41 43q-38 37 -82 69zM705 100q14 -18 28 -37q6 -10 12 -19q3 -5 5 -9l3 -6
q1 -9 2 -28h32q4 -1 7 -1h1q3 0 6 1h38q8 132 13 274q1 17 2 58q55 -22 79 -72q68 -78 73 -195l1 4q2 -34 4 -69h84q8 132 14 274q1 25 2 112q2 74 3 96q0 27 2 209q1 135 2 158q0 16 1 45q1 37 1 59h82q18 0 18 18v39q0 18 -18 18h-199h-3h-3q-12 0 -12 -12v-45q0 -2 1 -5
q0 -30 1 -72q1 -29 2 -45q0 -21 1 -159q2 -181 3 -208q0 -22 2 -95q1 -64 2 -87q-68 78 -142 96q2 64 2 86q1 26 3 209q1 137 1 158q1 16 2 45q1 46 1 83q1 12 1 18v21q0 12 -12 12h-112q-12 0 -12 -12v-21t1 -18q0 -35 1 -83q1 -16 1 -30q-56 -20 -107 16q-44 31 -47 67
q-12 95 -37 129q-19 25 -41 14q-23 -12 -13 -49v-4q1 -6 1 -9l-1 -8v-5l-1 -13v-1v-6q-1 -5 -2 -8l-1 -7q0 -1 -1 -3v-3q-1 -4 -3 -11l-1 -2q-4 -16 -9 -27v0q-1 -3 -4 -9q-2 -3 -2 -4q-1 -1 -2 -4q-3 -6 -5 -8q-8 -13 -17 -24q-40 -50 -100 -71q-12 -4 -31 -8q-3 -1 -11 -2
h-5l-7 -1l-13 -1v0h-4h-6h-2q-8 0 -15 1q-16 3 -31 8q-30 11 -54 35q-24 22 -36 55q-6 16 -8 33q-1 1 -1 3v5v0v3l-1 7v7v3q0 3 1 4v1l1 8q0 1 1 4q0 3 1 4q0 4 2 10q2 4 2 5q0 2 2 4l1 3l1 2q1 3 2 5v0h1l4 8q0 1 2 3q1 2 2 3l3 4l1 1l1 1l5 6l9 9l10 7q4 3 6 5q1 0 2 1
t2 1l10 5l12 5l11 3l11 3l16 1h8q1 0 2 -1h1h1h3q3 0 4 -1l7 -1l4 -2q3 0 4 -1q1 0 5 -2h1h1l9 -6l3 -1l7 -5q1 0 3 -2l2 -2q22 -19 30 -48q1 -1 1 -2v-1l2 -8v-2v0l1 -11v-4q0 -13 -5 -26q-10 -24 -32 -38q-11 -6 -22 -9q-2 -1 -3 -1q-2 0 -3 -1h-1h-1l-10 -1h-6
q-21 2 -37 16q-32 28 -19 64q5 12 15 21q7 7 17 10q0 1 2 1q1 0 1 1h3t3 1h2v0l5 1q9 0 8 9v9q0 9 -9 9h-5q-2 0 -6 -1h-2q-2 0 -6 -1h-1q-3 -1 -4 -1q-15 -4 -28 -13q-18 -14 -26 -33q-5 -11 -7 -25l-1 -6v-10v-3l1 -8v0q3 -16 9 -29q7 -14 18 -26q25 -27 62 -33h1l10 -1h1
h11h4l4 1h8q19 4 38 13q39 20 59 61q10 21 12 45l1 7v0v3v11v6l-2 12v5q-1 1 -1 2q-9 49 -45 84q-1 2 -2 3q-5 4 -7 6l-9 8h-1l-1 1q-13 9 -20 12l-1 1q-7 4 -11 5q-2 1 -3 1q-6 3 -9 4l-12 3q-4 1 -9 2q-2 1 -4 1l-2 1h-5v0l-16 2h-1h-18h-1l-10 -1q-8 -1 -12 -2h-1l-18 -4
h-1l-18 -6v0q-4 -2 -9 -4l-10 -4q-1 -1 -4 -2l-1 -1q-7 -4 -12 -7v0q-3 -2 -8 -6l-8 -5h-1l-15 -13v0v-1l-11 -11l-3 -3l-4 -5q2 2 -3 -3q-4 -5 -6 -8q-1 -1 0 0v0q-1 -2 0 0v0l-7 -11q-3 -4 -7 -12v-1l-2 -3q-3 -6 -4 -9q-1 -2 -2 -5q-6 -14 -8 -21q0 -2 -1 -4
q-2 -6 -3 -10l-2 -13q-1 -4 -1 -11l-2 -15v-10v-4l1 -7v-1v-7q2 -27 10 -53t21 -50q1 -2 5 -8l2 -3v0v0q1 -2 0 0l1 -2q4 -7 6 -10q9 -12 17 -21q37 -43 86 -66q25 -12 52 -18l3 -1q7 -1 11 -2h1q8 -2 12 -2h1q9 -1 13 -1l8 -1v0h15v0l16 1q15 1 25 3q26 4 50 12q25 8 46 20
q21 11 42 27q17 13 35 33q4 4 13 14l2 4v0v0l3 3q8 10 11 15q4 6 10 17l2 3v0v0q0 1 3 7l2 6q27 -60 83 -74q-11 -8 -12 -9q-161 -115 -422 -259l-12 -5l-12 -6q-35 -13 -41 -51q-5 -26 11 -48t42 -26l24 -4l24 -4l24 -4q54 -8 129 -37q149 -57 254 -159q54 -52 66 -66z" />
    <glyph glyph-name="G" unicode="G" horiz-adv-x="1073" 
d="M978 383q1 75 2 95q1 27 2 209q1 138 2 159q0 18 1 44q0 10 1 22q0 13 1 17v3q0 5 -4 8l-19 13q-36 24 -75 39q-37 15 -78 23q-22 4 -40 5q-13 2 -20 2l-10 1l-20 1h-19l-10 -1q-20 0 -39 -2q-84 -9 -154 -42q-76 -36 -129 -99q-54 -63 -76 -143q-11 -40 -13 -80
q0 -3 -1 -7v-14v-10l1 -10q1 -24 4 -41q16 -86 71 -149q29 -33 64 -54q18 -11 37 -18q21 -9 40 -13q3 -1 10 -2q1 0 3 -1q5 0 8 -1l11 -1q2 0 6 -1h3q21 -1 43 1q43 5 80 25q38 20 66 53t41 73q7 20 10 41l1 7v4l1 10v21q-2 22 -8 43q-7 20 -18 39q-22 37 -58 60
q-18 12 -39 19q-8 3 -20 5q-3 1 -8 2h-2h-1l-6 1q-3 1 -4 1h-8q2 0 0 0h-2q-5 1 -11 0q-13 0 -22 -2q-21 -4 -41 -15q-39 -20 -60 -59q-6 -10 -9 -20q-4 -10 -6 -20l-1 -2q-1 -6 -1 -9l-1 -5v-1v-4q-1 -11 1 -22q5 -46 39 -76q17 -15 37 -23q21 -7 43 -7q22 1 42 12
q20 10 33 29q13 18 17 39q0 2 1 5v1v4v1v12q-1 11 -5 22q-9 21 -27 35q-19 13 -42 14q-8 0 -9 -8l-1 -11q0 -3 2 -6q3 -3 6 -4q14 -1 25 -10q11 -8 16 -21q2 -7 2 -14v-6v-1v-2q0 -1 -1 -2v-2q-3 -14 -12 -25q-18 -24 -47 -23q-15 0 -28 6t-23 16q-22 20 -24 49v14l1 4l1 3
q0 2 1 6v1q4 14 11 27q15 25 42 38q13 6 27 8q6 1 14 1h7l1 -1h7q1 0 2 -1h1h3l3 -1q3 -1 4 -1q9 -2 15 -5q14 -5 25 -13q24 -17 39 -43q7 -13 10 -27q4 -13 5 -28q0 -6 -1 -14l-1 -9v-2l-1 -4q-3 -15 -8 -29q-22 -58 -78 -85q-26 -13 -55 -15q-15 -1 -29 1h-3h-5l-8 2
q-1 0 -4 1h-3v0q-5 1 -7 2q-59 15 -98 64q-38 46 -47 110q-2 12 -3 30v7v9l1 7v3q0 3 1 5q3 32 12 61q18 61 60 107q41 45 99 71q55 24 122 29q16 1 32 1h8h17l15 -1l9 -1q5 0 15 -2v0q14 -2 31 -6q35 -7 65 -22q1 -25 1 -41q1 -24 2 -159q2 -183 2 -209q1 -22 3 -95
q1 -88 2 -112q3 -74 7 -148l-2 -1q-10 4 -19 7q-55 21 -112 38q-29 8 -57 15q-32 8 -58 13q-28 6 -57 11q-24 4 -58 8q-30 4 -59 6q-25 2 -58 4q-24 1 -59 1q-32 -1 -58 -2q-8 -1 -22 -2h-7q-7 -1 -10 -1q-13 -1 -19 -2q-21 -2 -58 -7h-1q-37 -6 -56 -10q-28 -6 -56 -13
q-8 -2 -7 -10l2 -11q1 -8 9 -7h12q29 2 45 3q28 1 56 1q32 0 56 -1q26 -1 56 -3q16 -1 51 -5h4q26 -3 55 -7q32 -5 55 -10v0q36 -6 54 -11q56 -12 107 -27q56 -16 105 -35q53 -19 101 -41q26 -11 50 -23v-1h1h105q7 131 13 270q1 25 3 113z" />
    <glyph glyph-name="H" unicode="H" horiz-adv-x="1313" 
d="M1250 1038q-16 44 -44 97q-7 12 -19 34q-5 7 -7 10q-1 3 -6 11q-13 21 -20 31l-12 18l-15 20q-6 10 -19 26q-5 7 -7 10q-5 8 -17 22q-5 6 -8 10q-6 7 -17 21q-5 6 -6 7q-11 14 -31 36l-9 10q-8 10 -22 24l-13 14q-5 5 -11 2l-9 -4q-8 -4 -3 -10l28 -42l14 -22q3 -3 3 -4
q4 -6 6 -8l8 -14q14 -22 38 -63q2 -4 6 -10q10 -17 14 -26l9 -17l12 -23q6 -13 9 -20l10 -21q2 -5 5 -11q10 -22 14 -33q18 -46 30 -93q14 -51 17 -96v-8q1 -11 0 -16v-12v-7v-5q-1 -6 -2 -18l-1 -5q0 -2 -1 -7q-1 -3 -1 -4t-1 -4q0 -5 -1 -8q-9 -41 -29 -84
q-10 -21 -21 -38q-11 -20 -23 -35q-25 -32 -55 -60q-15 -13 -30 -25q-5 -3 -14 -11q1 1 -6 -4h-1l-1 -1q0 40 1 115q1 136 1 159q1 15 2 44v22q1 13 1 17v3q0 5 -4 8l-19 13q-36 24 -74 39t-79 23q-22 4 -39 5q-14 2 -20 2l-10 1l-20 1h-19l-10 -1q-21 0 -39 -2
q-85 -9 -154 -42q-77 -36 -129 -99q-54 -63 -76 -143q-12 -40 -14 -80v-7v-14v-10v-10q1 -24 5 -41q15 -86 70 -149q29 -33 64 -54q19 -11 38 -18q21 -9 39 -13q4 -1 11 -2q1 0 3 -1q5 0 7 -1l11 -1q2 0 6 -1h3q22 -1 43 1q43 5 81 25t65 53q28 33 42 73q7 20 10 41v7
q1 2 1 4l1 10q0 12 -1 21q-1 22 -8 43q-6 20 -17 39q-23 37 -59 60q-18 12 -38 19q-9 3 -21 5q-2 1 -7 2h-3v0l-7 1q-3 1 -4 1h-7v0h-3q-4 1 -11 0q-12 0 -21 -2q-22 -4 -41 -15q-40 -20 -61 -59q-5 -10 -9 -20t-6 -20v-2q-1 -6 -1 -9l-1 -5v0v-1v-4q-1 -11 0 -22
q5 -46 40 -76q17 -15 37 -23q21 -7 42 -7q23 1 43 12q20 10 33 28q13 19 16 40q1 2 1 5v1v4l1 1q0 7 -1 12q-1 11 -5 22q-8 21 -27 35q-18 13 -41 14q-8 0 -9 -8l-1 -11q-1 -4 2 -6q2 -3 6 -4q14 -1 25 -10q11 -8 15 -21q3 -7 3 -14v-6l-1 -1v-2v-2v-2q-3 -14 -12 -25
q-19 -24 -48 -23q-14 0 -27 6q-14 6 -24 16q-21 20 -23 49q-1 7 0 14v4l1 3q0 2 1 6l1 1q3 14 11 27q15 25 42 38q12 6 26 8q6 1 14 1h7l2 -1h6q1 0 2 -1h1h4l2 -1q4 -1 5 -1q8 -2 14 -5q14 -5 26 -13q24 -17 38 -43q7 -13 11 -27q4 -13 4 -28v-14l-1 -9l-1 -2v-4
q-3 -15 -8 -29q-23 -58 -78 -85q-27 -13 -56 -15q-14 -1 -29 1h-3h-5l-8 2q-1 0 -4 1h-2h-1q-4 1 -7 2q-58 15 -98 64q-38 46 -47 110q-2 12 -2 30v7v9v7q1 2 1 3v5q3 32 12 61q19 61 60 107q41 45 100 71q55 24 122 29q16 1 32 1h8h17l15 -1l8 -1q5 0 15 -2h1q13 -2 31 -6
q34 -7 65 -22q0 -22 1 -41q0 -23 2 -159q1 -182 2 -209q1 -22 2 -95q2 -89 3 -112q3 -76 6 -148l-1 -1q-11 4 -20 7q-55 21 -112 38q-28 8 -57 15q-32 8 -57 13q-29 6 -58 11q-24 4 -58 8q-29 4 -58 6q-25 2 -59 4q-24 1 -58 1q-33 -1 -58 -2q-8 -1 -23 -2h-7q-3 0 -9 -1
q-13 -1 -19 -2q-21 -2 -58 -7h-1q-38 -6 -56 -10q-29 -6 -57 -13q-8 -2 -6 -10l1 -11q2 -8 10 -7h12q29 2 44 3q28 1 56 1q32 0 56 -1q26 -1 56 -3q17 -1 51 -5h4q27 -3 55 -7q32 -5 55 -10h1q36 -7 53 -11q57 -12 107 -27q56 -16 105 -35q54 -19 102 -41q25 -11 49 -23
q1 0 2 -1h104q8 130 13 270q1 25 3 113v5v6q286 153 298 398v1q1 9 2 26l1 2q2 50 -8 111q-9 51 -30 106z" />
    <glyph glyph-name="I" unicode="I" horiz-adv-x="962" 
d="M921 377v1l-2 15q-6 39 -24 78q-4 9 -10 19l-7 14q-13 22 -28 41l4 7q2 5 3 8l7 16v0l1 2l2 6q3 9 4 14q14 44 15 91q0 6 -1 18v6v0v5q-2 13 -2 20q-2 8 -5 24v1l-1 4q-3 13 -5 20t-7 21l-1 4v0l-2 4q-5 14 -9 20q-13 27 -26 47q-17 23 -35 43q-19 19 -43 37
q-23 16 -49 29q-10 5 -27 12l-16 6v0v0l-16 5v0l-9 2q-5 1 -14 3h-1q-5 1 -14 2h-1q-4 1 -12 2h-4q-31 2 -61 -2q-61 -9 -114 -42q-11 -7 -25 -17q-3 -3 -10 -9h-1l-1 -1l-3 -3q-5 -4 -8 -7q-22 -21 -39 -46t-28 -53q-1 -3 -3 -7l-3 -8q0 -2 -1 -5l-3 -10l-1 -1l-3 -16
q-2 -8 -2 -12l-2 -15q-1 -4 -1 -11v-5q0 -9 1 -25q0 -4 1 -6q0 -4 1 -11q1 -3 1 -4v-1l3 -15l4 -14h1q1 -4 3 -10q2 -5 2 -4l3 -8q0 -1 2 -4l8 -16v0l12 -19v0l7 -9q4 -5 7 -9v0q5 -6 10 -11l2 -1q2 -3 3 -4v0v0l9 -7q5 -5 8 -7v-1l18 -12v0l19 -11q-1 1 0 0q-1 1 0 0
q-1 1 0 0q4 -2 13 -6l10 -4h1l19 -7h1l17 -4h1q1 0 5 -1h2h5q6 -1 10 -1h14h11q3 0 4 1q4 0 13 1l1 1q9 1 26 6l2 1v0l13 5q3 1 9 4l4 2q49 26 76 75q0 1 1 2q1 3 2 5l6 13q1 4 2 5l3 12l2 4l1 8q5 26 2 51q-8 50 -43 85q-17 16 -36 26q-3 1 -8 4l-4 1q-3 1 -4 2l-12 4h-1
l-11 2h-1q-9 2 -18 2q-32 0 -59 -16q-16 -9 -28 -22q-11 -11 -19 -27v-1l-4 -8q-1 -2 -1 -3v0l-3 -9v-2l-2 -6q-2 -16 -1 -29q3 -24 18 -43q10 -15 25 -24q1 -1 4 -2l1 -1l6 -3q1 0 2 -1q4 -2 6 -2l6 -2q8 -2 11 6l4 10q3 8 -5 11l-6 3v0q-1 0 -2 1q-2 1 -3 2q-1 0 -3 1
l-1 1q-2 1 -3 2q-8 6 -14 16q-8 14 -8 28q-1 17 9 35q12 19 32 28q22 10 46 5l7 -2l9 -4l1 -1q1 0 2 -1l2 -1t3 -2q12 -7 21 -18q20 -22 22 -52q1 -14 -4 -29l-1 -4l-5 -12v0v0q0 -1 -1 -2l-4 -8l-1 -1q0 -1 -1 -1q-18 -29 -49 -42q-1 -1 -3 -2q-3 -1 -4 -1l-8 -3
q-1 0 -4 -1q-8 -2 -12 -2h-1h-1q-4 -1 -6 -1h-5h-4l-9 1q-1 0 -4 1q-3 0 -4 1q2 -1 -2 0h-2l-8 3l-16 6l-12 7l-12 7l-10 9l-10 10l-1 1l-1 2q-3 3 -6 7l-8 11l-7 12l-3 8q-1 1 -1 2l-1 2l-1 5q-1 1 -2 3q-1 4 -1 5l-2 9v1q-1 2 -1 7v1q-1 1 -1 4v4v7q-1 8 0 12v4t1 4l1 10
v0q1 2 2 6q0 2 1 2l1 7l3 7l1 2v2l1 1l2 5q1 1 1 3q9 17 20 32q25 32 57 48q34 17 70 19q19 0 36 -2q8 -2 17 -4l2 -1q4 -1 6 -2l4 -1v0h1l12 -4l9 -4q1 -1 5 -3q8 -4 11 -6q19 -10 31 -19q56 -42 83 -108q6 -16 10 -32q1 -4 2 -11q1 -3 1 -5q0 -1 1 -5q1 -7 1 -10v-1
q2 -13 2 -31v-3q-1 -9 -1 -12v-4q-1 -2 -1 -4l-1 -8q0 -3 -1 -9q-1 -4 -1 -6q-1 0 -1 -1l-3 -15q-1 -2 -2 -5l-2 -9l-3 -9q-2 -4 -2 -5q-9 -27 -23 -51v0q1 1 0 0v0q-1 -2 -4 -7q-2 -3 -2 -5l-4 -5l-3 -5q-2 -3 -3 -4q-3 -6 -4 -7l-7 -10q-3 -3 -7 -9l-3 -3t-4 -5l-8 -9
q-4 -5 -6 -7q-14 -14 -26 -25l-5 -4q-4 -4 -7 -6l-10 -8l-9 -6l-4 -4l-5 -3q-6 -5 -3 -11l4 -10q3 -5 8 -5h3l13 4q7 1 11 3l13 4q3 2 10 5q3 1 5 2q20 9 37 19q38 22 70 55q7 -11 12 -23q6 -22 7 -43l1 -10l-1 -10v-6l-1 -14v0l-3 -13q-5 -28 -16 -55q-24 -57 -70 -99
q-47 -44 -115 -63q-31 -10 -67 -12q-3 0 -4 -1h-12h-1h-9h-5h-3h-8h-6q-2 1 -3 1h-11l-7 1q-2 1 -6 1q-7 1 -11 1l-18 3l-17 4q-4 1 -10 2q-5 2 -7 2q-34 9 -65 22t-59 30l-14 9l-14 9q-2 2 -7 6q-4 2 -5 4l-7 4l-6 5q-7 6 -19 17l-4 4l-5 4q-11 11 -16 17v0v0q-1 1 0 0v0
q-5 5 -15 17q-1 1 -4 5l-9 11q-3 4 -8 12q-13 18 -27 45q-1 2 -4 6q-5 11 -7 16l-4 11l-4 10q-14 37 -20 76l-1 6l-1 15q-1 6 -1 8v9v12v19q0 10 -10 11l-10 1q-10 0 -12 -10l-2 -18q-1 -5 -1 -15q-1 -11 -1 -9v0v-10v-13v-1v-8q1 -44 13 -87q14 -56 43 -105q5 -9 8 -14
l9 -14v0v0q1 -2 4 -6q9 -14 15 -21q6 -8 18 -22l4 -5v0v0l3 -3q14 -15 22 -23q52 -51 123 -89q36 -18 75 -32q2 0 7 -2q8 -3 13 -4l19 -6h1l20 -4q4 -2 14 -3q5 -1 7 -1l9 -2h2l10 -2h3q4 -1 7 -1l11 -1q2 0 4 -1h7l11 -1h14h8q46 0 88 10q25 5 43 11l11 4q3 1 7 2l4 2
q1 0 3 1q5 2 7 3l10 4q43 19 79 45q38 29 66 63q29 36 47 77q18 42 24 85l2 19v2v1v6l1 15q0 7 -1 12z" />
    <glyph glyph-name="J" unicode="J" horiz-adv-x="1076" 
d="M1007 1008q-15 52 -43 116q-6 15 -19 41q-4 8 -6 13q-3 5 -7 13q-12 25 -19 37l-13 24l-13 22q-6 11 -19 31q-4 7 -7 12q-6 9 -17 27q-6 8 -8 12q-5 8 -17 25q-3 5 -6 9q-11 16 -30 43q-7 9 -9 12q-9 12 -22 29l-13 17q-5 7 -12 3l-9 -5q-8 -5 -3 -13l28 -50l14 -26
q-2 3 3 -6q3 -6 5 -9l8 -17q14 -27 37 -75q4 -7 6 -13q10 -21 14 -31l10 -23l10 -24q7 -17 10 -25l10 -25q1 -4 4 -13q9 -27 13 -40q18 -55 30 -111q12 -61 15 -115v-10q1 -12 0 -19v-14v-9q-1 -7 -1 -5q0 -8 -2 -23l-1 -5q0 -3 -1 -9q-1 -3 -1 -4q0 -2 -1 -6q0 -5 -1 -8
q-10 -50 -31 -101q-3 -6 -4 -10q2 19 3 39q0 6 -1 18v6v0v5q-1 13 -2 19q-1 9 -5 25v1l-1 4q-3 13 -5 20t-7 21l-1 4v0l-2 4q-5 14 -9 20q-13 28 -26 47q-17 23 -35 43q-19 19 -43 37q-23 16 -49 29q-10 5 -27 12l-16 6v0v0l-16 5v0l-9 2q-5 1 -14 3h-1q-4 1 -14 2h-1
q-4 1 -12 2h-3q-31 2 -62 -2q-61 -9 -114 -42q-11 -7 -25 -17q-3 -3 -10 -9h-1l-1 -1l-3 -3q-5 -5 -8 -7q-22 -21 -39 -46t-28 -53q-1 -2 -3 -8l-3 -7q0 -2 -1 -5l-3 -10l-1 -1l-3 -16q-2 -8 -2 -13l-2 -14q-1 -4 -1 -11v-5q0 -9 1 -25q0 -4 1 -6q0 -4 1 -11q1 -3 1 -4v-1
l3 -15l4 -14h1q1 -3 3 -10l2 -4l3 -8q0 -1 2 -4l8 -16v0l12 -19v0l7 -9q4 -5 7 -9v0q5 -6 10 -11l2 -1q2 -3 3 -4v0l8 -7q6 -5 9 -7v-1l18 -12v0l19 -11v0q5 -2 13 -6l10 -4h1l19 -7h1l17 -4h1q2 0 5 -1h2h5q7 -1 10 -1h14h11q2 0 4 1q4 0 13 1l1 1q9 1 26 6l2 1v0l13 5
q3 1 9 4q3 2 4 2q49 26 76 75q0 1 1 2q1 3 2 5l6 13q1 4 2 5l4 13v2v0l2 9q6 26 2 51q-7 50 -43 85q-17 16 -36 26q-3 2 -8 4l-4 1q-3 1 -4 2l-12 4h-1l-11 2h-1q-9 2 -18 2q-32 0 -59 -16q-16 -9 -28 -22q-11 -11 -19 -27v-1l-4 -8q-1 -2 -1 -3v0v0l-3 -9v-2l-2 -6
q-2 -16 0 -29q2 -24 17 -43q10 -15 25 -24q1 -1 4 -2l1 -1l6 -3q1 0 2 -1q5 -2 6 -2l6 -2q8 -2 11 6l4 10q3 8 -5 11l-6 3v0v0q-1 0 -2 1q-2 1 -3 2q-1 0 -3 1q0 1 -1 1q-2 1 -2 2q-9 6 -15 16q-8 14 -8 28q-1 17 9 35q12 19 32 28q22 10 46 5l7 -2l9 -4l1 -1q1 0 2 -1
q1 0 2 -1q3 -1 3 -2q12 -7 21 -18q20 -22 22 -52q1 -14 -3 -29l-2 -4l-4 -12h-1v0v-2l-5 -8l-1 -1q0 -1 -1 -1q-18 -29 -49 -42q0 -1 -3 -2t-4 -1l-8 -3q-2 0 -4 -1q-8 -2 -12 -2h-1h-1q-4 -1 -6 -1h-1h-4h-4l-9 1q-1 0 -4 1q-2 0 -4 1h-2h-2l-8 3l-16 6l-12 7l-12 7l-10 9
l-10 10l-1 1q-2 2 -1 2q-3 3 -6 7l-8 11l-7 12l-3 8q-1 1 -1 2l-1 2l-1 5q-1 1 -2 4t-1 4l-2 9v1v0q-1 2 -1 6v2q0 1 -1 4v4v7q-1 8 0 12v4t1 4l1 10v0q1 2 2 6q0 1 1 2l2 7l2 7l1 2v2v0h1q-1 -1 0 0q-1 -1 0 0q-1 -1 0 1l2 5q1 1 1 2v1q1 1 0 0q-1 -2 0 0q9 17 20 32
q25 32 57 48q34 17 71 19q18 0 35 -2q8 -2 17 -4l2 -1q4 -1 6 -2l4 -1h1q-1 0 0 0l12 -4l9 -4q2 -1 5 -3q8 -3 11 -6q19 -10 31 -19q56 -42 83 -108q6 -16 10 -32q1 -4 2 -11q1 -2 1 -5q1 -2 1 -5q1 -7 1 -10v-1q2 -13 2 -31v-4q-1 -8 -1 -12v-3q-1 -2 -1 -4l-1 -8
q0 -3 -1 -9q-1 -4 -1 -6q-1 0 -1 -1l-3 -15q-1 -2 -2 -5l-2 -9l-3 -9q-2 -4 -2 -5q-9 -27 -23 -51v0q-1 -3 -4 -7q-1 -3 -2 -4l-7 -11q1 1 -3 -4q-3 -5 -4 -7l-7 -10q-2 -3 -7 -9l-3 -3q-3 -5 -4 -5l-7 -9l-7 -7q-14 -14 -26 -25q-2 -1 -5 -4q-5 -4 -7 -6l-10 -8l-9 -6
l-4 -4l-5 -3q-6 -5 -3 -11l4 -10q3 -7 11 -5l4 1q3 -2 6 -1h4h13q22 2 48 8q37 8 72 22q17 6 36 16q4 -13 7 -27v-3l-1 -10v-6l-1 -14v0l-3 -13q-5 -28 -16 -55q-24 -57 -70 -99q-47 -44 -115 -63q-31 -10 -67 -12q-1 0 -4 -1h-12h-1h-9h-5h-3h-8h-6q-1 0 -3 1h-11l-7 1
q-2 1 -6 1q-8 1 -11 1l-18 3l-17 4q-4 1 -10 2q-5 2 -7 2q-34 9 -65 22t-59 30l-14 9l-14 9q-2 2 -7 6q-4 3 -5 4l-7 4l-6 5q-6 6 -19 17l-4 4l-5 4q-11 11 -16 17v0q-5 5 -15 17q-3 4 -4 5l-9 11q-3 4 -8 12q-13 18 -27 45q-1 2 -4 6q-5 11 -7 16l-4 11l-4 10
q-14 37 -20 76l-1 6l-1 15q-1 5 -1 8v9v12v19q0 10 -10 11l-10 1q-10 0 -12 -10l-2 -18q-1 -5 -1 -15q-1 -7 -1 -9v0v-10v-13v-1v-8q1 -44 13 -87q14 -56 43 -105q5 -9 8 -14l8 -14h1v0q1 -3 4 -6l15 -21q6 -8 18 -22l4 -5v0v0l3 -3q14 -15 22 -23q52 -51 123 -89
q36 -18 75 -32q2 0 7 -2q8 -3 13 -4l19 -6h1v0l20 -4q5 -2 14 -3q3 -1 7 -1l9 -2h2l10 -2h3q5 -1 7 -1l11 -1q1 0 4 -1h7l11 -1h14h8q46 0 88 10q25 5 43 11l11 4q2 1 7 2l4 2l3 1q5 2 7 3l10 4q43 19 79 45q38 29 66 63q29 36 47 77q18 42 24 85l2 19v2v1v6l1 15q0 7 -1 12
l-1 15v1l-2 15q-6 38 -24 78q21 19 36 36q21 25 37 52q16 25 30 58q11 29 19 65v5q4 19 5 28l3 30v3q3 60 -7 133q-8 61 -28 127z" />
    <glyph glyph-name="K" unicode="K" horiz-adv-x="1247" 
d="M257 561q-4 1 -9 3l-5 1q-8 4 -24 8q248 142 411 171v-63q2 -178 3 -206q1 -21 2 -93q1 -56 2 -76q-6 8 -11 16q-134 167 -369 239zM-5 1022q-8 0 -13 -5q-5 -6 -5 -13v-39q0 -7 5 -13q5 -5 13 -5h631q1 -26 2 -65v-14q-14 -4 -36 -9q-22 -6 -53 -16q-262 -72 -480 -264
q-12 -13 -14 -30q-4 -23 10 -42t37 -23l25 -4l24 -4q347 -72 465 -286q22 -43 35 -90q3 -9 5 -19q3 -44 5 -81h9v0h68v0h7q8 133 13 271q1 11 1 33l5 269q1 21 1 109q1 39 1 85q72 4 132 -5l14 -3l7 -1q13 -3 25 -6q53 -14 92 -40q43 -27 70 -68q27 -42 33 -92q4 -25 2 -50
q0 -1 -1 -2v-2l-1 -8l-1 -6l-1 -7q-3 -14 -6 -23q-16 -49 -52 -80q-38 -32 -86 -36h-6v0h-2h-3h-6h-5h-2q-12 1 -23 4q-22 5 -41 19q-40 29 -49 77q-3 11 -3 23v4v2l1 6q0 7 1 11q5 22 19 41q15 18 36 28q10 5 22 7q5 1 12 2h3h5h3h5v0h1q2 -1 5 -1q7 -1 11 -3q11 -3 20 -10
q19 -13 27 -35q3 -6 4 -11q1 -6 2 -11v-1v-5v-6q-1 -5 -2 -11q-5 -22 -25 -35q-9 -6 -20 -9q-11 -2 -23 -1q-23 4 -34 25q-5 9 -6 21v5v1q1 3 1 5q1 5 4 10q5 9 15 15q10 5 21 4q9 0 9 8l1 9q1 8 -7 9q-19 3 -37 -5q-17 -9 -28 -25q-5 -8 -8 -18q-1 -4 -2 -10v-1v-3v-1v-3
q-1 -19 7 -37q8 -17 23 -29t35 -16q18 -4 36 -1q19 3 35 13q34 20 46 58l4 18v4v0v5q1 3 1 7v2q-1 18 -7 36q-12 36 -42 60q-14 12 -32 18q-7 3 -18 6q-6 1 -9 2h-2h-1l-5 1h-4h-6h-3h-6q-11 0 -18 -1q-19 -3 -35 -10q-35 -13 -60 -41q-12 -15 -21 -31q-8 -16 -13 -34
q-2 -8 -4 -19l-1 -8v-3v-6q-1 -18 2 -36q5 -36 23 -68q19 -32 47 -55q29 -23 65 -34q18 -5 36 -7l3 -1h5l9 -1h7h3h8q17 1 36 5q18 3 35 10q33 12 62 35q56 44 82 114q6 14 11 34l2 8l1 8l2 12q0 4 1 6q4 35 1 69q-3 36 -13 68q-10 33 -28 64q-34 62 -93 104q-54 40 -123 60
q-16 4 -33 8l-8 1l-16 3l-17 2l-9 1q-6 1 -17 1q-44 5 -105 5v10q1 34 2 58h493q7 0 13 5q5 6 5 13v39q0 7 -5 13q-6 5 -13 5h-1258z" />
    <glyph glyph-name="L" unicode="L" horiz-adv-x="1033" 
d="M852 1024q-4 0 -8 -2q-3 2 -6 2v0q-12 0 -12 -12v-21v-18q1 -39 2 -83q1 -30 1 -44q1 -30 2 -158q2 -180 2 -208q1 -20 2 -95q2 -89 3 -112q2 -34 3 -69q-136 134 -372 188q62 26 111 60q55 37 81 84v0q9 17 15 35q38 107 -4 222q-32 86 -90 143q-77 74 -145 88
q-15 3 -10 -11l2 -4q0 -1 1 -2q0 -1 1 -1q1 -3 5 -11l1 -3q7 -17 10 -29l1 -1q1 -3 2 -10q0 -1 1 -2v-3q1 -2 1 -5q2 -7 2 -11q3 -16 3 -32q0 -72 -37 -131q-7 -13 -21 -29q-2 -3 -8 -10q-2 -3 -4 -4l-5 -6l-11 -10v0l-4 -3q-1 -1 -5 -4l-1 -1q-7 -5 -15 -9q-15 -10 -31 -15
q-35 -13 -72 -9q-36 3 -70 22q-17 10 -31 23l-2 2l-4 4v0v1q-1 0 -2 1l-5 6l-5 7q1 -2 -2 2q-3 3 -3 4v1h-1l-5 8q0 1 -2 4q-1 3 -2 4q-2 3 -4 11q-2 3 -3 5q0 2 -1 5q0 2 -1 3v2q-1 4 -2 6v1l-1 9q0 1 -1 5v4v5v2v2v9l2 13l2 13q2 4 3 9l1 2q0 1 1 2l5 13l6 11l8 11l8 10
l11 11l9 7l2 1q0 1 1 1q1 1 3 2q3 2 4 3l8 4q2 0 4 1q1 0 2 1q1 0 2 1q1 0 6 2h1h1q3 1 12 3h3l9 1h4h4q33 -1 60 -20q2 -1 2 -2h1l7 -6q1 -1 2 -1v-1l7 -7l4 -5q9 -12 14 -26q9 -28 0 -55q-5 -14 -13 -25q-1 0 -2 -2l-2 -3l-1 -1l-1 -1l-7 -7l-6 -4q-19 -14 -44 -13
q-47 2 -61 42q-5 14 -3 29q2 12 8 21l1 2l1 2l2 2t2 3l1 1l1 1v0l4 4q6 6 0 12l-7 8q-5 7 -12 1l-5 -3q-1 -2 -4 -5q-1 0 -1 -1h-1q-2 -2 -4 -5l-1 -1v-1l-3 -3q-10 -14 -15 -31q-5 -24 1 -46q3 -13 11 -27l4 -5q0 -1 1 -1l5 -8h1q0 -1 2 -2l6 -6q0 -1 1 -1q13 -11 27 -18
q16 -7 34 -10q41 -6 77 16v0l9 6q1 0 1 1l10 8q2 1 3 3l3 3q5 4 6 6q14 16 24 38q20 45 8 93q-6 25 -21 47l-4 7h-1v1v0v0q-1 1 -1 2l-8 9l-5 5l-10 10l-3 3q1 -1 -2 1q-42 36 -98 41q-1 0 -2 1h-2h-10h-13h-1h-2q-17 -1 -26 -3l-1 -1q-9 -1 -13 -3l-4 -1q-6 -2 -10 -3
l-13 -6q-3 -1 -9 -4l-4 -2l-2 -2q-3 -1 -4 -2h-1l-14 -10q-1 0 -1 -1l-16 -13v0l-8 -8q-6 -7 -9 -10h-1l-13 -17v0l-12 -18v-1q-2 -3 -5 -9l-5 -10q-1 -2 -2 -5l-1 -2q-2 -5 -5 -14v0q-1 -4 -3 -11l-3 -10v-1l-4 -21v-1l-2 -17v-5v-12v-11v0l2 -14q0 -5 2 -15v-1q1 -1 1 -2
v-2q2 -8 3 -11q1 -2 2 -6q4 -15 8 -23q1 -3 2 -4q2 -6 4 -10l7 -13q2 -4 7 -11l10 -13v-1v0l6 -8l4 -4l5 -6q4 -4 5 -6q21 -21 46 -38t53 -28q3 -2 10 -4l4 -2h1h1q7 -2 13 -4q16 -5 29 -7q25 -4 51 -4q36 0 70 8q29 8 57 21l3 1q8 5 10 6l2 1q8 5 12 7l1 1q7 4 11 7l8 6v0
v0l12 10h1v0l13 12l20 20q19 22 34 46q15 25 26 50q5 14 10 30q28 -63 15 -123q-18 -83 -133 -148q-119 -67 -244 -84q-34 -15 -23 -51q15 -36 61 -40q192 6 343 -40q196 -59 259 -192q3 -52 6 -101h83q8 133 14 273q1 23 2 112q2 75 3 95q0 28 2 208q1 136 2 158v23
q1 16 1 21q1 38 1 59h68q18 0 18 18v39q0 18 -18 18h-176z" />
    <glyph glyph-name="M" unicode="M" horiz-adv-x="914" 
d="M713 476q0 -22 2 -94q2 -88 3 -112q5 -142 13 -270h84q8 128 13 270q1 24 3 111q1 73 2 95q1 27 2 208q1 135 2 157q0 15 1 44q1 38 1 63h82q8 0 13 6q5 5 5 12v39q0 8 -5 13t-13 5h-198q-8 0 -13 -5t-5 -13l1 -57q0 -24 1 -63q1 -26 2 -44v-17q-68 106 -176 163
q-169 78 -316 -14q-144 -80 -161 -244q-4 -51 19 -78q22 -29 68 -9q51 21 113 34q71 14 112 -17q45 -38 24 -127q-35 -113 -224 -210q-51 -32 -9 -84q46 -43 111 -13q107 69 170 155q76 105 40 207q-33 94 -116 140q-77 42 -177 34q28 96 130 149q93 42 199 1
q107 -35 159 -170q26 -67 37 -229q1 -27 1 -36z" />
    <glyph glyph-name="N" unicode="N" horiz-adv-x="854" 
d="M648 840q1 -24 2 -159q1 -182 2 -209q1 -20 2 -95q2 -88 3 -113q1 -19 2 -37q-155 182 -409 223l210 164q47 40 10 92q-38 33 -76 15q-96 -31 -173 -13q-76 23 -75 121q5 66 68 120h432v-33q1 -23 1 -31q1 -21 1 -45zM-12 1023q-18 0 -18 -18v-38q0 -18 18 -18h82
q-28 -89 1 -185q36 -84 110 -119q36 -14 81 -25q-71 -56 -185 -143q-47 -39 -9 -86q27 -30 67 -29q173 19 314 -51q161 -69 216 -223q0 2 5 -88h84q9 154 13 264q1 24 3 113q2 73 2 95q1 27 3 210q1 137 1 158q1 12 2 45q-1 -13 1 64h86q18 0 18 18v38q0 18 -18 18h-877z
" />
    <glyph glyph-name="O" unicode="O" horiz-adv-x="899" 
d="M677 890q8 -29 -5 -61q-21 -52 -105 -76q-53 -16 -147 -12q-2 130 95 185q70 34 133 1q19 -11 29 -37zM451 649q137 -1 231 54q116 67 107 194q-19 78 -107 120q-129 40 -243 -28q-109 -74 -101 -247q-81 10 -136 41q-98 54 -105 152q-6 61 -36 68q-42 0 -31 -73
q61 -225 318 -265zM111 178q-3 2 -5 4q1 0 1 1q-25 33 -36 52q-13 22 -22 52q-23 65 -12 133q2 13 7 33q1 2 2 5q-1 -1 1 3l2 5l3 11l5 12l2 4q1 2 1 3q2 3 3 4l4 8q1 1 3 5l2 2q10 16 20 28q47 54 115 70l15 3h2l2 1q9 1 15 2q12 1 23 0h10q5 -1 14 -2h3q10 -2 16 -4
q4 -1 13 -3q2 -1 3 -1l10 -4h1l2 -1h1l9 -4h2q3 -2 6 -3q10 -6 15 -10h1q6 -5 14 -10q4 -3 11 -10l2 -1q25 -25 40 -56q14 -29 18 -64q4 -32 -5 -65v-2q-1 -4 -2 -6l-6 -18l-1 -1v-1l-4 -11l-4 -7q-5 -9 -8 -14q-19 -26 -46 -43q-39 -25 -85 -23q-14 0 -28 3l-7 2q-4 1 -6 2
l-12 5q-4 2 -2 1l-9 4l-2 1q-2 2 -6 4l-3 2l-2 2h-1v1q-23 15 -36 39q-26 47 -12 97q1 3 3 8l1 2l2 5v2h1l3 7l6 10q0 1 1 2l4 5q13 16 33 26q21 11 44 10q13 0 24 -4q4 -1 8 -3l4 -2h1l5 -4h1l2 -1l1 -1q4 -2 5 -4q11 -8 17 -19q7 -11 9 -22q3 -9 3 -17q0 -14 -4 -25
q-1 -1 -2 -4l-1 -1l-1 -2q-2 -6 -10 -6l-4 1q-7 4 -5 11l1 1v5q1 9 0 17q-3 11 -12 21q-5 6 -10 9q0 -1 -1 0l-1 1l-7 2l-3 1q-3 1 -4 1h-6q-16 1 -30 -10q-9 -6 -14 -14l-2 -3v-1q-1 -1 -2 -3l-1 -4v-4q0 -1 -1 -2v-4q-2 -13 1 -24q2 -12 9 -23q8 -9 19 -16h1l1 -1
q2 0 3 -1l6 -3l7 -2h2l5 -1q15 -1 28 2q15 4 26 13q12 8 20 21v1q1 1 2 3t1 3l1 1l3 7l3 11v2q1 1 1 2q6 34 -11 67q-8 16 -21 29l-6 4q-4 3 -7 6q1 -1 -3 1q-2 1 -4 3h-1q-1 1 -2 1l-10 5l-5 2q-2 0 -3 1q-4 1 -6 1v1q-10 2 -20 3q-8 1 -20 1q-2 0 -7 -1h-6q-5 -1 -6 -2
q-43 -8 -72 -39q-7 -6 -14 -16l-3 -5l-3 -4l-2 -2q0 -2 -1 -2l-3 -7l-5 -10l-1 -4l-1 -2v-4q-5 -13 -6 -22q-3 -9 -4 -23q-1 -16 0 -24q1 -23 8 -46q5 -22 18 -44q13 -20 29 -37q75 -84 200 -111q151 -25 267 71q154 154 92 310q-101 -51 -201 -16q-126 54 -166 179
q40 -7 71 -13q45 -105 164 -109q60 2 112 31q60 39 84 -13q47 -87 41 -203q-10 -173 -140 -278q-148 -121 -411 -30q-103 47 -165 122q-2 3 -4 7z" />
    <glyph glyph-name="P" unicode="P" horiz-adv-x="870" 
d="M691 279q-1 -7 -3 -15h-1q-1 -5 -2 -7l-3 -11l-4 -11q-1 -2 -1 -3l-2 -4l-3 -7q-7 -15 -14 -26q-2 -4 -5 -8q-5 -9 -3 -5q-4 -6 -3 -3q-4 -6 -6 -8q-8 -11 -20 -22q-44 -44 -101 -56q-28 -6 -58 -3h-7q-2 1 -5 1h-1h-2l-3 1l-3 1h-2h-1l-4 1l-9 2l-6 2q-3 1 -7 2l-2 1
l-4 2v0q-55 23 -82 76q-13 26 -16 55q-2 15 -1 29q1 9 2 15l2 11v1l2 8v1q1 1 1 3q1 3 2 4v1q1 4 2 5v1q2 3 3 6q6 12 15 23q18 23 44 35q27 13 55 13h2h5h1q2 0 7 -1q5 0 14 -2v0h2l6 -2l4 -1q1 0 1 -1h1q5 -2 12 -5q26 -13 40 -38q16 -25 15 -54q0 -8 -1 -14v0q0 -1 -1 -4
v-1q0 -1 -1 -2l-1 -4v-3q-4 -13 -13 -24q-17 -23 -45 -30q-14 -3 -28 -2q-4 1 -7 1v0v0q-2 1 -3 1l-4 1q-6 2 -13 5q-25 14 -31 43q-3 14 0 27l1 4v0q0 1 1 3q1 4 3 6q3 6 8 11q9 10 23 14t28 0q8 -2 11 6l2 10q3 8 -5 11q-22 7 -43 2q-22 -4 -39 -20q-8 -8 -14 -17
q-3 -5 -5 -10l-2 -6l-1 -1l-1 -3q-6 -22 -3 -43q7 -47 47 -72q10 -6 20 -9l1 -1h1l3 -1q2 -1 5 -2q4 0 11 -2q21 -3 43 1q45 8 74 43q15 17 22 38l1 2q-1 -1 0 1l2 7v0l1 3q1 5 2 8q2 9 3 21q3 44 -18 83q-21 40 -60 63q-11 6 -20 9l-4 2l-5 2v0l-7 2q-3 1 -4 1q-12 3 -21 4
q-7 2 -11 2q-5 0 -10 1q-44 2 -84 -16q-40 -16 -70 -50q-14 -16 -25 -35l-5 -10q-1 -3 -4 -9v-1q-1 -2 -3 -8l-1 -3q-1 -2 -1 -3l-3 -8q0 -1 -1 -3l-2 -11v0l-1 -5q-2 -9 -4 -21q-2 -20 -1 -42q3 -43 21 -82q17 -39 55 -75q-38 -6 -121 -1q5 107 9 200q1 23 3 110q1 69 2 94
q0 17 1 73q102 88 216 88q88 0 167 -59q48 -41 76 -92q30 -53 36 -114q2 -30 -1 -61q-2 -15 -5 -30zM664 667q-88 84 -239 84q-108 0 -222 -55q1 109 2 139q0 10 1 43q1 42 2 70h669q18 0 18 18v39q0 18 -18 18h-885q-18 0 -18 -18v-39q0 -18 18 -18h82q0 -27 2 -70v-20
q0 -16 1 -23q0 -19 1 -156q2 -180 3 -205q0 -24 2 -94q2 -88 3 -110q5 -139 13 -270h72v0h313v1l4 -1q25 0 49 5q84 15 149 74q16 15 29 30q3 3 10 12l2 2t1 2h1q0 1 3 5l8 12q11 16 22 36l4 10q1 1 2 3t1 3l7 17l5 15l4 9l5 20q6 19 9 40q7 40 5 82q-3 84 -40 160
q-36 75 -100 130z" />
    <glyph glyph-name="Q" unicode="Q" horiz-adv-x="951" 
d="M1810 -1407q2 1 4 0h-4zM406 382q2 1 4 0q-2 1 -4 0zM362 678q15 -1 30 -3l16 -2q4 -1 7 -2l11 -2l11 -3q0 -1 1 -1h2q4 -1 4 -2l7 -2q16 -6 28 -12q3 -2 9 -5q1 -1 4 -2q-1 0 4 -3t8 -5q12 -8 24 -19q46 -40 63 -97q8 -27 8 -57v-7v-5q-1 -2 -1 -3v-3v-4q-1 -1 -1 -3
q-1 -8 0 -3l-2 -9l-1 -7l-2 -6l-1 -3q0 -3 -1 -4v0q-19 -57 -70 -88q-25 -15 -54 -20q-14 -3 -29 -3h-14l-11 2h-1l-7 1l-3 1h-1h-1q-3 1 -5 1l-1 1q-4 1 -6 1q-3 1 -6 3q-13 5 -25 13q-24 16 -38 41q-15 26 -17 54v7v8q0 5 1 14v0v2l1 6l1 4v2v0q2 6 5 13q11 26 34 43
q24 17 53 19h14h1q2 -1 4 -1h2l4 -1l4 -1q13 -2 25 -10q24 -15 33 -43q5 -14 4 -28v-7v0q-1 -2 -1 -3v-4q-2 -6 -5 -13q-12 -26 -40 -35q-14 -4 -28 -1h-3v0q-2 1 -4 1l-6 2q-6 3 -11 7q-11 9 -16 22q-5 14 -2 28q2 9 -7 11l-10 2q-8 1 -10 -7q-6 -22 1 -43q6 -22 23 -37
q8 -7 18 -13l10 -4q2 -1 6 -2h1l4 -1q21 -5 43 0q46 11 68 53q5 10 8 20v1v1l1 3q0 2 1 6t1 11q2 21 -3 43q-12 44 -49 70q-19 13 -40 19l-2 1h-1l-7 1v1h-3q-5 1 -8 1q-10 2 -22 2q-44 -1 -81 -25q-38 -24 -58 -65q-5 -11 -8 -20q0 -1 -1 -4l-2 -5v0v0l-1 -7q-1 -3 -1 -4
q-2 -12 -3 -22q-1 -6 -1 -10q0 -5 1 -11q1 -43 21 -83q15 -29 41 -53h-108q0 19 1 71q1 79 2 101q1 29 2 191q48 29 103 39q30 5 61 4zM-3 1023q-18 0 -18 -18v-39q0 -18 18 -18h72q0 -26 2 -68q1 -39 1 -47q0 -25 1 -168q2 -192 3 -221q1 -24 2 -101q1 -72 2 -97v-41h278
q118 9 163 26q20 7 38 17q80 43 111 127q1 3 3 8v2q2 5 4 11l1 6v0l3 14q1 1 2 7l1 9v0l1 8q1 5 1 8v10q3 43 -8 84q-21 83 -86 144q-16 15 -57 37q93 44 177 -26q85 -71 96 -234q-1 -250 -264 -321q-97 -29 -264 -28q-48 -8 -12 -63q19 -43 63 -45l20 -2q16 -2 29 -3
q252 -17 486 -208l16 -11l4 -3q16 -16 30 -8q8 8 -2 22l-6 8l-7 9q-13 16 -28 32q-13 15 -30 31q-13 12 -33 29q-15 12 -34 26q-18 13 -36 25q-17 10 -38 22q-19 11 -38 21q-23 11 -40 18q-1 1 -3 1q-51 23 -81 31q30 -1 116 21q140 46 205 158q94 196 -13 385
q-101 196 -274 209q-87 7 -148 -52q-44 14 -58 15q-41 3 -82 -1q-44 -5 -87 -20q1 52 1 72q1 18 1 47q1 42 2 68h753q18 0 18 18v39q0 18 -18 18h-959z" />
    <glyph glyph-name="R" unicode="R" horiz-adv-x="1203" 
d="M135 171q62 -75 165 -122q247 -89 437 76q106 91 114 232q6 156 -67 275q-36 48 -72 2q-42 -34 -100 -44q-103 -14 -144 37q-58 71 8 182q44 77 160 139h16q92 -258 345 -278q-122 -380 26 -650q36 -67 64 -55q26 16 -8 76q-62 105 -59 259q21 194 111 341q46 47 34 86
q-10 35 -60 36q-322 -6 -372 185h487q18 0 18 18v39q0 18 -18 18h-1228q-18 0 -18 -18v-39q0 -18 18 -18h463q-108 -79 -101 -187q3 -67 50 -134q43 -61 102 -94q127 -50 240 8q50 -210 -75 -322q-138 -115 -284 -99q-125 27 -200 111q-16 17 -29 37q-13 22 -18 44
q-7 23 -8 46q-1 8 0 24q1 14 4 23q1 9 6 22v4l1 2l1 4l5 10l3 7q1 0 1 2l2 2l3 4l3 5q7 10 14 16q29 31 72 39q1 1 6 2h6q5 1 7 1q12 0 20 -1q10 -1 20 -3v-1q2 0 6 -1q1 -1 3 -1l5 -2l10 -5q1 0 2 -1h1q2 -2 4 -3q4 -2 3 -1q3 -3 7 -6l6 -4q13 -13 21 -29q17 -33 11 -67
q0 -1 -1 -2v-2l-3 -11l-3 -7l-1 -1q0 -1 -1 -3t-2 -3v-1q-8 -13 -20 -21q-11 -9 -26 -13q-13 -3 -28 -2l-5 1h-2l-7 2l-6 3q-1 1 -3 1l-1 1h-1q-11 7 -19 16q-7 11 -9 23q-3 11 -1 24v4q1 1 1 2v4l1 4q1 2 2 3v1l2 3q5 8 14 14q14 11 30 10h6q1 0 4 -1l3 -1l7 -2l1 -1
q1 -1 1 0q5 -3 10 -9q9 -10 12 -21q1 -8 0 -17v-5l-1 -1q-1 -5 5 -7l7 -3q5 -2 7 4l1 2l1 1q1 3 2 4q4 11 4 25q0 8 -3 17q-2 11 -9 22q-6 11 -17 19q-1 2 -5 4l-1 1l-2 1h-1l-5 4h-1l-4 2q-4 2 -8 3q-11 4 -24 4q-23 1 -44 -10q-20 -10 -33 -26l-4 -5q-1 -1 -1 -2l-6 -10
l-3 -7h-1v-2l-2 -5l-1 -2q-2 -5 -3 -8q-14 -50 12 -97q13 -24 36 -39v-1h1l2 -2l3 -2q4 -2 6 -4l2 -1l9 -4q-2 1 2 -1l12 -5q2 -1 6 -2l7 -2q14 -3 28 -3q46 -2 85 23q27 17 46 43q3 5 8 14l4 7l4 11v1l1 1l6 18q1 2 2 6v2q9 33 5 65q-4 35 -18 64q-15 31 -40 56l-2 1
q-7 7 -11 10q-8 5 -14 10h-1q-5 4 -15 10q-3 1 -6 3h-2l-9 4h-1l-2 1h-1l-10 4q-1 0 -3 1q-9 2 -13 3q-6 2 -16 4h-3q-9 1 -14 2h-10q-11 1 -23 0q-6 -1 -15 -2l-2 -1h-2l-15 -3q-68 -16 -115 -70q-10 -12 -20 -28l-2 -2q-2 -4 -3 -5l-4 -8q-1 -1 -3 -4q0 -1 -1 -3l-2 -4
l-5 -12l-3 -11l-2 -5q-2 -4 -1 -3q-1 -3 -2 -5q-5 -20 -7 -33q-11 -68 12 -133q9 -30 22 -52q11 -19 36 -52q0 -1 -1 -1q2 -2 5 -4q2 -4 4 -7z" />
    <glyph glyph-name="S" unicode="S" horiz-adv-x="1134" 
d="M650 765q0 -32 1 -82q1 -179 2 -206q1 -23 2 -95q2 -86 3 -110q0 -3 1 -12v-12q-153 201 -439 282q224 174 430 235zM949 1022q-4 0 -8 -1q-2 1 -6 1q-12 0 -12 -12v-21q0 -5 1 -18q0 -35 1 -82q1 -29 2 -45q0 -21 1 -157q2 -180 3 -208q0 -21 2 -95q1 -48 1 -75
q-67 103 -162 136q0 15 1 32q1 27 2 206q1 136 2 156q0 16 1 45q1 38 2 63l-3 57q0 18 -18 18h-761q-18 0 -18 -18v-39q0 -18 18 -18h648q1 -25 2 -63v-5q-281 -57 -566 -301q-33 -34 -8 -75q22 -35 67 -37q171 -23 311 -104q167 -96 209 -252q2 -6 5 -13q2 -47 5 -97h84
q7 131 13 272q1 24 3 103q50 -28 91 -80q68 -87 82 -210q3 -45 5 -85h84q8 131 13 273q1 25 3 111q2 74 2 96q1 26 3 207q1 133 1 157q1 16 2 45q1 35 1 58h89q18 0 18 18v39q0 18 -18 18h-198z" />
    <glyph glyph-name="T" unicode="T" horiz-adv-x="1418" 
d="M1115 214q-54 12 -93 55q-37 42 -45 96q0 7 1 19q1 73 2 96q0 10 1 33v2q33 94 150 177q28 20 79 31q61 14 84 -9q23 -24 15 -63q-6 -27 -21 -50q-33 -47 -128 -79q-30 -11 -17 -37q12 -26 54 -41q70 -24 89 -93q19 -70 -35 -115q-48 -41 -136 -22zM1300 459q55 33 80 82
q28 54 12 116q-20 81 -76 124q-48 37 -117 40q-103 5 -216 -101q0 107 1 129q0 20 1 45q0 10 1 21q0 13 1 17v4q0 4 -4 7l-19 13q-37 24 -75 39q-37 15 -79 23q-22 4 -40 6q-13 1 -19 2l-10 1h-21h-19h-10q-20 -1 -39 -3q-84 -8 -155 -42q-76 -36 -129 -99q-54 -63 -76 -144
q-11 -39 -14 -80v-7v-14v-10v-10q2 -24 5 -41q15 -87 70 -149q29 -33 65 -54q18 -11 37 -19q22 -9 40 -13q4 -1 11 -2h3q4 -1 7 -2l11 -1h6l3 -1q22 -1 43 1q44 5 81 25q38 21 66 53q28 33 42 74q6 20 9 41l1 6q1 4 1 5v10q1 12 0 21q-1 22 -8 43q-6 20 -17 39
q-23 38 -59 61q-18 11 -39 18q-8 3 -20 6q-2 1 -8 2h-2h-1l-7 1h-4l-7 1h-3h-11q-12 -1 -21 -3q-22 -4 -41 -14q-40 -21 -61 -60q-5 -10 -9 -20t-6 -20v-2q-1 -6 -2 -9v-5v-1l-1 -4q-1 -11 1 -22q5 -46 40 -77q16 -14 37 -22q21 -7 42 -7q23 1 43 11q20 11 33 29t17 40v5
l1 1v4v1v12q-1 11 -5 22q-9 21 -28 35q-18 13 -41 14q-8 1 -9 -8l-1 -11q0 -3 2 -6t6 -3q14 -2 25 -10q11 -9 16 -22q2 -7 2 -14v-6v-1v-2q-1 -1 -1 -2v-2q-3 -14 -12 -25q-18 -24 -48 -23q-14 0 -27 6q-14 5 -24 15q-22 21 -23 50q-1 7 0 14v4l1 4q0 1 1 5v1q4 15 12 27
q15 25 42 38q13 6 27 8q5 1 13 1h8h1l6 -1h2q3 -1 2 0l3 -1l3 -1q3 0 4 -1q9 -2 14 -4q14 -6 26 -14q24 -17 39 -43q7 -13 10 -27q4 -13 5 -28q0 -6 -1 -14l-1 -9v-2l-1 -4q-3 -15 -8 -29q-22 -58 -78 -85q-27 -13 -56 -16q-14 -1 -29 1h-3q-4 1 -5 1l-8 1q-1 0 -4 1
q-2 0 -2 1h-1q-4 1 -7 1q-59 16 -98 64q-38 47 -47 111q-2 12 -3 30v8v8l1 7v3v5q3 33 13 62q18 60 60 107q41 45 100 71q55 25 122 29q16 2 32 2h8l17 -1l16 -1l8 -1q5 0 15 -2h1q13 -2 31 -5q34 -8 65 -23q1 -26 1 -41q0 -22 2 -159q1 -183 2 -210q1 -22 2 -96
q2 -88 3 -113q3 -76 6 -148l-1 -1l-20 8q-55 21 -112 37q-28 8 -57 16q-33 8 -58 13q-28 6 -58 11q-23 4 -58 8q-30 4 -59 6q-25 2 -58 3q-24 1 -59 1q-32 0 -58 -1q-7 -1 -23 -2h-7q-3 -1 -9 -1q-13 -1 -20 -2q-20 -2 -58 -7v0q-38 -6 -57 -10q-28 -6 -57 -14q-8 -2 -6 -10
l2 -10q1 -8 9 -8l12 1q30 2 45 2l56 2q32 -1 56 -2q26 0 56 -3q16 -1 51 -4l5 -1q26 -3 55 -7q31 -5 55 -9h1q36 -7 53 -11q57 -13 108 -28q55 -16 105 -34q53 -20 102 -42q25 -11 49 -23l1 -1v0v0v0h1v0h105q7 123 12 252q77 -94 167 -129q104 -42 196 11q56 33 64 109
q6 68 -28 126q-29 49 -73 90z" />
    <glyph glyph-name="U" unicode="U" horiz-adv-x="852" 
d="M737 1023l4 14q1 2 1 1l7 31q1 2 2 8q0 2 1 4q2 10 1 7q2 11 3 17v0v0v0v0v0l3 25q1 4 1 11v4l1 13q1 29 -1 58q-1 4 -2 11v4l-2 14v1q-1 3 -2 10l-2 4v1v0q0 1 -1 4q-1 7 -2 11l-2 6q-4 15 -7 22q0 1 -2 4q-2 6 -3 10v0v0l-6 13q-2 5 -7 14l-2 4q-3 5 -5 8v1q-1 1 -3 6
q-8 12 -12 17q-12 20 -32 41q-13 15 -34 33q-17 14 -31 24q-15 10 -26 16q-9 5 -17 9q-3 2 -7 3q-14 6 -20 -8q-7 -13 6 -20q1 -1 5 -3l14 -10q9 -7 21 -17q12 -11 25 -25q16 -18 26 -32q15 -21 24 -39v0q3 -5 7 -15l3 -6q1 -3 3 -7q0 -2 1 -5q3 -7 4 -10v-1l4 -12
q0 -2 1 -7q1 -4 2 -4v-1q-1 1 0 -4q8 -64 -12 -123q-34 -101 -139 -135h-530q-16 0 -16 -16v-43q0 -16 16 -16h80q0 -24 1 -59q1 -34 1 -45q1 -21 2 -157q1 -180 2 -208q1 -23 2 -94q2 -89 3 -112q6 -142 13 -273h84v1h195v0h4q20 0 39 2q83 8 153 41q76 37 128 99
q26 31 45 67q18 35 30 74q10 39 13 79v7l1 13l-1 10v11q-1 23 -4 40q-15 85 -70 147q-28 32 -63 53q-18 11 -37 18q-21 9 -39 13q-4 1 -11 2q-1 0 -3 1q-5 0 -7 1l-11 1q-2 0 -6 1h-3q-21 2 -42 -1q-43 -4 -81 -24q-37 -20 -65 -53q-27 -32 -41 -72q-7 -20 -10 -40l-1 -7v-4
l-1 -10v0v0v-21q2 -22 8 -42q6 -21 17 -39q23 -38 59 -61q18 -11 38 -18q9 -3 20 -5q3 -1 8 -2h2h1l3 -1q5 -1 8 -1h7v0h3q4 -1 11 0q12 0 21 2q22 4 41 14q39 21 61 60q5 9 9 19q4 11 6 21v2q1 5 1 8l1 5v1l1 4q0 11 -1 22q-5 46 -40 77q-16 14 -37 22q-20 7 -41 7h-2
q-23 0 -43 -11t-33 -29t-17 -40q0 -2 -1 -4v-2v-4v-1v-1q-1 -6 0 -11q1 -12 5 -22q9 -22 28 -36q19 -13 42 -14q12 -1 13 11v7q1 5 -2 9q-4 4 -9 5q-14 1 -24 9q-11 8 -15 21q-2 6 -2 13q-1 2 0 6v1v2v2l1 1v1v0v0q3 13 11 24q18 22 46 22v0q14 0 28 -5q13 -6 23 -16
q21 -20 23 -48q1 -7 0 -13l-1 -4v-4q0 -2 -1 -5l-1 -2q-3 -14 -11 -26q-15 -25 -41 -38q-13 -6 -27 -8q-5 -1 -13 -1h-8l-7 1q-1 0 -4 1h-3l-3 1q-3 0 -4 1q-9 2 -14 4q-14 6 -26 14q-24 16 -38 42t-15 55q-1 6 0 14l1 8v2l1 5q3 15 8 29q22 57 78 85q26 13 56 15q14 1 28 0
l4 -1h4l8 -2v0h4l3 -1h1q4 -1 6 -2v0v0q60 -15 99 -63q39 -47 49 -110q2 -13 2 -30v-8v-8v-8v-3q-1 -4 -1 -5q-3 -32 -12 -61q-19 -60 -61 -107q-42 -45 -100 -70q-55 -24 -123 -30q-15 -1 -32 -1h-8h-17h-15l-9 1q-5 0 -15 2v0q-12 1 -32 5q-51 9 -93 33q3 66 5 132
q1 23 3 111q2 74 2 95q1 27 3 208q1 136 1 157q1 20 2 45q1 34 1 59h655q16 0 16 16v43q0 16 -16 16h-129z" />
    <glyph glyph-name="V" unicode="V" horiz-adv-x="960" 
d="M454 642q15 32 25 105q8 64 -27 138q234 -124 306 -247t45 -286q-35 -228 -275 -256q-144 -3 -200 65q-13 17 -21 32q-2 3 -4 7l-5 8q0 1 -2 5l-2 3l-3 9l-4 9l-2 5q-1 3 -2 4l-3 10q-1 1 -1 4q-2 4 -2 6q-6 21 -9 45v3q-1 6 -1 8v12l-1 13h1v13l1 6v4q1 1 1 2q0 4 1 10
l1 2q3 15 7 25q1 3 3 8t3 8q2 5 4 8q6 12 14 23q33 47 85 70q11 5 27 9q3 1 10 3q3 1 5 1l6 1l12 2h11q7 1 14 0q14 -1 28 -5q28 -8 52 -27q22 -19 36 -48q6 -14 9 -30h1v-2l1 -5v-4l1 -5v-8q1 -3 0 -5v-12q-1 -2 -1 -3q0 -3 -2 -10q-1 -2 -1 -4q0 -1 -1 -4q-1 -2 -1 -3
l-1 -1q-1 -4 -2 -5l-3 -7q-1 -1 -2 -4q-1 -2 -2 -2l-2 -4l-1 -1l-1 -1l-4 -6l-8 -8l-8 -8q-2 -2 -6 -4v-1h-1l-1 -1l-10 -6l-10 -5l-10 -4l-6 -2l-3 -1l-15 -2h-17l-7 1q-1 0 -4 1q-2 1 -3 1t-5 1l-1 1q-3 1 -10 4h-1l-1 1l-6 4q-1 0 -3 2q-2 1 -3 1q-21 16 -30 42
q-1 1 -1 2v1l-2 7l-1 1v1l-1 9l-1 4q0 12 3 24q7 23 27 37q9 6 19 10q2 0 3 1h2q-1 0 2 1l9 1l5 1q20 0 36 -12q30 -24 21 -57q-3 -12 -12 -21q-6 -7 -15 -10l-1 -1q-4 -1 -2 -1h-2q-1 -1 -3 -1q-1 0 -1 -1h-6q-6 -1 -6 -8l1 -9q1 -7 8 -7l5 1q2 0 5 1h2q2 0 5 1q2 1 1 0
q3 1 4 2q13 4 24 13q15 13 21 31q4 10 5 23v15q-1 1 -1 2l-1 7v1q-4 14 -10 24q-7 13 -18 23q-24 23 -58 25h-1l-9 1l-11 -1q-1 0 -3 -1h-4q-5 -1 -7 -2q-17 -4 -33 -13q-34 -21 -49 -59q-8 -20 -8 -41v-7q-1 -1 0 -3v-10q1 -1 1 -5l2 -11q0 -1 1 -4l1 -1q11 -44 46 -74
l2 -2q4 -3 7 -5l9 -6l1 -1q13 -7 19 -10h1q7 -3 10 -4q1 0 3 -1l9 -3l11 -2q2 -1 8 -1q2 0 4 -1h21l17 1l9 2q7 1 11 2l17 5l16 6q0 1 1 1q3 1 7 4l8 4l4 2l1 1q4 3 10 7h1q2 2 7 6l6 5l1 1l12 12h1l9 11q1 2 2 3l4 5q1 2 2 3q3 5 5 8l5 10q2 4 6 11v1q0 1 1 3q3 5 4 8
q0 2 1 5q4 12 6 19v4q2 5 2 9l1 12q1 3 1 10v14l-1 8v5l-1 6q0 4 -1 6q-3 24 -12 47t-22 44q-2 2 -5 7l-2 3h-1v1q-5 6 -7 9q-9 10 -16 18q-36 36 -83 54q-23 8 -47 12l-3 1q-6 1 -10 1h-1q-7 1 -11 1h-5zM108 476q-42 -9 -32 -58q27 -152 89 -244q79 -108 212 -151
q189 -52 357 58q156 103 165 315q9 350 -422 552h494q18 0 18 18v39q0 18 -18 18h-596q-272 99 -282 363q9 151 -45 123q-56 -22 -54 -153q18 -201 243 -333h-256q-18 0 -18 -18v-39q0 -18 18 -18h327q112 -133 56 -253q-29 -63 -81 -111q-7 -5 -14 -12q-8 -7 -17 -16
q-57 -48 -144 -80z" />
    <glyph glyph-name="W" unicode="W" horiz-adv-x="1033" 
d="M-7 1023q-17 0 -17 -18v-39q0 -18 17 -18h620q1 -2 1 -5q1 -19 1 -29q0 -15 2 -102q1 -117 2 -135q1 -14 2 -61q2 -57 3 -73q5 -91 13 -177h66l154 75v-2v-3q0 -37 -9 -71q-10 -35 -28 -66q-17 -32 -42 -59q-48 -53 -117 -83q-16 -7 -33 -12q-18 -6 -35 -9q-19 -4 -36 -6
q-3 0 -9 -1h-11h-6l-9 -1h-3q-79 0 -144 23q-72 25 -123 76q-26 26 -45 57t-30 67q-12 35 -14 72q-1 19 0 37v2v1v6l2 15v0v0v0v3q1 5 2 9q14 79 59 133q23 29 52 44q30 16 63 17q34 2 64 -13q31 -15 52 -42q10 -14 17 -29q7 -16 10 -33q1 -6 1 -8v-4l1 -11v-3v-5v-3
q-1 -8 -3 -16t-5 -15q-12 -32 -41 -51q-28 -19 -63 -19h-1q-16 0 -31 6t-27 17q-13 12 -20 27q-3 7 -6 16q-1 3 -1 7l-1 5v4l-1 5v3q1 5 1 8q1 8 4 15q6 16 19 27q12 11 28 15q5 1 8 2h1h2h2h2h2q8 1 15 -1q16 -5 27 -17t14 -29v-3v-3v-2v-9q-1 -9 -4 -17q-6 -15 -20 -16
q-4 -1 -6 -4q-3 -2 -2 -6l1 -11q1 -8 10 -7q7 0 14 2q7 3 13 7q11 9 18 22q5 11 8 25q1 7 1 13q1 1 1 4v3q-1 4 -1 6q-2 27 -19 48q-17 22 -43 31q-6 2 -13 4h-7q-1 1 -4 1h-1h-2h-6h-1h-6q-6 -1 -13 -2q-26 -5 -48 -22q-21 -17 -33 -42q-5 -12 -8 -25q-1 -6 -2 -14v-5v-1
l-1 -6v-1l1 -6v-1v-6q1 -7 2 -13q3 -13 8 -25q10 -25 28 -44q19 -19 43 -31q25 -11 52 -13h10q49 0 90 25q46 27 69 77q6 12 9 25q4 12 6 26v3q1 6 1 10v4v2l1 9v0l-1 11q0 5 -1 12q-3 26 -12 50t-24 46q-31 44 -77 69q-48 26 -101 26q-54 1 -103 -22q-44 -22 -81 -63
q-32 -35 -55 -82q-21 -43 -31 -91q-21 -97 6 -194q13 -48 37 -91q23 -44 56 -81q66 -74 161 -113q88 -36 189 -37h13h10l9 1h6q7 1 12 1q26 3 49 8q25 5 48 13q24 8 47 19q91 43 155 122q31 40 52 84q21 47 30 95q8 52 3 100q-6 50 -26 95l-17 40q-1 3 -5 5q-4 1 -8 -2
l-2 -1l-183 -93q2 31 3 56q1 16 3 73q2 47 2 61q1 18 3 135q1 88 1 102q1 10 1 29q1 3 1 5h317q18 0 18 18v39q0 18 -18 18h-1051z" />
    <glyph glyph-name="X" unicode="X" horiz-adv-x="867" 
d="M-14 1024q-18 0 -18 -17v-39q0 -18 18 -18h90q0 -23 1 -60q1 -28 1 -44q1 -24 2 -158q2 -182 2 -208q1 -21 3 -95q1 -87 2 -112q6 -142 14 -273h84q0 3 0 1h194v0h5q19 0 39 2q83 8 153 41q76 37 128 99q27 31 45 67q19 35 30 75q11 38 13 79q1 3 1 7v13v10v10
q-2 23 -5 41q-15 85 -69 147q-29 32 -63 53q-19 11 -38 19q-20 8 -39 12q-4 1 -11 2l-3 1q-4 1 -7 1l-10 1q-3 1 -7 1h-3q-21 2 -42 0q-43 -5 -81 -25q-37 -20 -65 -52q-28 -33 -42 -73q-6 -20 -9 -40l-1 -7q-1 -3 -1 -4v-10v0q-1 -12 0 -21q1 -22 8 -43q6 -20 17 -39
q22 -37 59 -60q17 -11 38 -18q8 -3 20 -6q3 -1 8 -1l2 -1h1v0h3q5 -1 8 -1l7 -1q-2 0 0 0h3h11q12 1 21 3q22 4 41 14q40 20 61 59q5 10 9 20t6 21v1q1 6 2 9v5v1l1 4q0 11 -1 22q-5 46 -40 77q-16 14 -37 22q-20 7 -41 7h-2q-23 0 -43 -11t-33 -29q-14 -18 -17 -41
q-1 -1 -1 -4v-1v-4v-1l-1 -1q0 -6 1 -11q1 -12 5 -22q9 -22 28 -36q18 -13 42 -15q12 0 13 12v7q1 5 -3 9q-3 4 -8 4q-14 2 -24 10q-11 8 -15 21q-2 6 -3 13q0 2 1 6v1v2v2q0 1 1 1v1q2 13 11 24q18 22 45 22h1q14 0 28 -5q13 -6 23 -16q21 -20 23 -48q1 -7 0 -14v-4l-1 -3
q0 -2 -1 -5v-2q-4 -14 -11 -26q-16 -26 -42 -38q-13 -6 -27 -8q-5 -1 -14 -1h-7l-7 1h-4q-2 1 -3 1h-3q-2 1 -4 1q-9 3 -14 5q-14 5 -26 13q-24 17 -39 43q-14 26 -15 55q0 6 1 14l1 8v2l1 5q2 15 8 29q22 58 78 85q26 13 55 15q15 1 29 0l4 -1h5l7 -1v0q1 -1 4 -1
q2 -1 3 -1h1q4 -1 6 -1v-1h1q59 -15 99 -63q38 -47 48 -110q2 -12 3 -31v-8l-1 -8v-7v-3q0 -3 -1 -5q-2 -32 -12 -61q-18 -61 -61 -107q-42 -46 -100 -71q-55 -24 -123 -30q-15 -1 -32 -1h-8h-17l-16 1h-8q-5 1 -15 2h-1q-11 1 -31 5q-51 10 -94 33q3 64 6 132q1 25 3 112
q1 74 2 95q0 26 2 208q1 137 2 158q0 16 1 44q1 37 1 60h663q18 0 18 18v39q0 17 -18 17h-886z" />
    <glyph glyph-name="Y" unicode="Y" horiz-adv-x="924" 
d="M734 1024q-18 0 -18 -18v-39q0 -2 1 -5v-1q1 -36 2 -82q1 -27 1 -44v-5q-2 5 -4 7l-5 10v0q-1 1 -1 0v0v0v0l-15 23l-1 1l-3 5q-9 11 -16 19l-16 18v1l-8 7l-3 3l-6 6q-13 11 -20 17q-6 5 -17 13l-5 3v0v0q-2 2 -5 4q-11 7 -18 11q-8 4 -23 12l-6 2q-14 7 -22 10
q-10 4 -27 9h-1l-14 4q-3 1 -9 2q-2 1 -5 1q-31 7 -60 8q-33 1 -62 -3q-63 -8 -122 -38q-30 -16 -55 -36q-3 -2 -10 -8l-3 -3l-6 -5v0h-1l-12 -12l-13 -14l-2 -2v0v0l-2 -2q-47 -53 -66 -122q-19 -70 -6 -140v-2q1 -4 2 -7l1 -8q1 -4 4 -12q0 -3 1 -5q1 -4 4 -11v-3
q1 -1 1 -2v-1l2 -4q3 -8 5 -12q13 -32 34 -61q2 -3 7 -9q2 -3 3 -4l1 -1q4 -5 11 -13l8 -8q3 -4 5 -5l8 -7q1 -2 2 -2v0l2 -2q11 -10 29 -22q14 -9 31 -17q50 -24 106 -24q16 0 32 3q72 9 126 54l9 8v0v0l10 9v1l8 8v0l8 10l2 2q2 3 4 5l4 7q20 31 28 63q8 33 5 67l-1 8
q0 5 -1 8l-3 15v1l-5 15q0 3 -2 7l-4 8q0 1 -1 3q-1 3 -2 5l-5 8q-4 9 -7 13l-3 4q-3 6 -6 9l-10 12q-2 2 -4 5q-1 0 -2 1l-10 10v0l-12 10h-1q-2 1 -4 3l-9 6q-1 1 -5 2q-1 1 -2 1q-27 15 -59 18q-29 4 -58 -4q-28 -7 -52 -24q-3 -2 -10 -8l-6 -5l-1 -1q-1 0 -3 -2l-8 -8
v-1l-2 -3l-2 -2q-5 -6 -6 -9q-16 -23 -21 -49q-4 -25 1 -51q5 -23 18 -44l3 -4q2 -3 4 -5l1 -2q4 -5 6 -7h1l8 -8v0l8 -6q17 -13 39 -18q20 -4 39 -1q18 3 34 12q3 1 8 4v1q4 3 7 5l1 1q4 3 5 4l5 6q1 1 2 1l3 4q1 2 3 5l1 2q2 2 4 6t3 7q5 13 6 26q0 12 -2 22q-1 8 -6 18
q-5 11 -14 21v1l-6 5q-6 6 -12 0l-8 -8q-6 -6 0 -12l4 -5v0q6 -8 8 -14q5 -12 3 -25q-1 -7 -5 -15v0v0q-1 -1 -2 -4q-1 -2 -2 -3l-1 -1q-1 -2 -2 -2v0v0l-2 -3l-6 -5l-2 -1l-2 -2q-1 0 -3 -2h-1q-3 -2 -4 -2v-1q-11 -5 -22 -5q-3 -1 -6 -1q-22 0 -39 15l-4 3l-6 7q-1 1 -2 3
l-3 3l-1 2l-2 3q-7 13 -9 28q-5 33 15 58l1 1q0 1 3 3q1 2 2 3l8 7l2 2l3 2l2 1q3 3 4 3t1 1q16 9 33 12q9 2 18 2q29 0 52 -14l1 -1l2 -1l4 -3l2 -2t2 -1l6 -6l8 -8q1 -1 1 -2l2 -1v-1l6 -8q1 -1 3 -5l2 -4t4 -6l3 -7v-2l1 -2l2 -6l1 -3v-1l3 -10l1 -10v-1v0q1 -1 1 -3v-6
q0 -21 -6 -41q-5 -18 -18 -36l-3 -4l-2 -2l-2 -2l-3 -4l-9 -8l-3 -3l-9 -7q-37 -27 -82 -31h-13q-38 0 -72 18q-11 5 -19 11q-11 8 -17 14l-8 9l-3 3l-1 1l-3 4q-5 6 -7 9q-1 2 -3 4q-3 4 -4 6q-26 41 -31 86q-5 44 11 88q14 40 46 72l10 11l10 8l4 3l3 3q4 3 6 4t4 3
q4 3 5 4l10 6l9 5q2 1 5 3q3 1 5 2q59 31 127 31q18 0 36 -2q18 -3 39 -9q5 -1 14 -4q2 -1 5 -2l3 -1l15 -6v0l12 -6q6 -3 5 -2l5 -3q8 -4 11 -7v0h1q4 -2 11 -8q3 -2 4 -3q2 -1 5 -3l2 -2l6 -4v0l17 -15l5 -5l8 -8l2 -3l16 -16l13 -17l13 -18q1 -2 5 -8q8 -13 12 -20
q26 -47 40 -105q2 -12 4 -25q1 -102 2 -125q1 -22 2 -94q2 -86 3 -110q6 -140 13 -270h84q8 130 14 270q1 24 2 110q2 73 3 94q0 26 2 205q1 134 2 156q0 17 1 44q1 41 1 70h67q17 0 17 18v39q0 18 -17 18h-184z" />
    <glyph glyph-name="Z" unicode="Z" horiz-adv-x="1050" 
d="M-22 1023q-18 0 -18 -18v-39q0 -18 18 -18h1079q18 0 18 18v39q0 18 -18 18h-1079zM971 585l-4 12l-3 9l-5 12q-8 19 -21 43q-14 23 -26 40l-3 2q-2 4 -5 7l-7 9l-12 12q-2 3 -5 6q-34 34 -76 58q-43 25 -88 37q-47 13 -94 14q-19 0 -47 -3q-27 -3 -47 -8q-1 0 -3 -1
q-5 -1 -8 -2l-16 -4l-1 -1l-19 -6v0l-14 -6q-2 -1 -3 -2l-13 -5q-2 -1 -7 -4l-3 -2q-43 -22 -77 -57q-67 -69 -83 -164q-2 -6 -3 -19v-3v-1l-1 -2q-1 -13 -1 -20q0 -24 3 -45q3 -24 9 -44q1 -6 6 -18l1 -4v-1v0l6 -14l2 -5q20 -43 52 -74q32 -32 73 -50q48 -21 101 -21
q33 0 64 8l3 1q4 1 7 2l9 3l4 2l10 4l5 2q19 9 35 21q33 25 53 60q20 33 25 72q5 37 -3 72q-4 18 -11 34q-8 16 -18 31q-21 28 -51 45q-29 16 -61 19q-30 3 -59 -5l-2 -1q-3 -1 -5 -2l-6 -1v-1v0l-7 -3v0h-1l-2 -1l-4 -2q-13 -6 -24 -16q-20 -17 -32 -41q-11 -22 -13 -46
q-2 -22 4 -44q2 -4 4 -10v0v0l2 -5v-1l2 -3q4 -9 10 -16q10 -15 25 -24q24 -16 51 -17q17 -1 33 4l9 3l2 1q8 4 5 12l-5 11q-2 8 -11 5l-2 -1q-2 0 -5 -1q-8 -2 -15 -2q-4 0 -8 1q-18 2 -33 13q-9 7 -14 17q-4 5 -6 10v2v0l-2 5q-1 4 -1 6q-7 31 9 58q8 14 22 24q7 5 15 8
q1 1 2 1q1 1 2 1l10 3l3 1h1q19 4 38 0q21 -3 38 -14q17 -12 29 -30q6 -9 9 -19q4 -11 6 -22q4 -24 -1 -47q-5 -24 -18 -44q-15 -21 -35 -34q-10 -7 -22 -12l-11 -4h-1h-1l-6 -2l-6 -1q-16 -4 -32 -4q-39 0 -74 18q-51 27 -72 80l-5 15q-1 2 -1 5q-2 5 -3 9q-3 13 -4 29
q-1 13 0 30q0 3 1 11l1 7q1 7 2 11q14 61 59 102q23 21 49 33h1q1 1 2 1l4 2l7 2v0l12 4l11 3l15 4q2 0 5 1h3q11 2 31 3h7q14 0 24 -1q30 -2 60 -13q58 -20 102 -65l5 -5q4 -4 6 -7l5 -5l4 -6q8 -10 17 -25q11 -18 15 -27l3 -6l6 -16l3 -7q21 -61 19 -126q-2 -64 -27 -124
q-8 -21 -20 -42l-2 -2q-26 -43 -80 -85q-105 -84 -238 -84q-144 0 -308 99q-35 28 -63 62q-19 23 -35 48q-11 18 -22 38q-7 13 -11 24l-4 9q-4 8 -12 5l-11 -5q-8 -3 -5 -11l4 -9q4 -12 11 -27q24 -51 57 -94q53 -69 126 -116q22 -15 47 -28q122 -65 249 -65q143 0 274 87
q18 12 35 25q17 12 33 27l1 1l3 3l2 2l20 22q28 32 48 67q44 76 55 163q11 89 -14 178z" />
    <glyph glyph-name="bracketleft" unicode="[" horiz-adv-x="518" 
d="M233 -103v1225q0 2 1 2h116q87 0 81 49q-8 49 -86 49h-200q-8 -2 -10 -10v-1325q0 -30 29 -59t59 -29h122q96 -5 92 55q-22 45 -85 43h-119z" />
    <glyph glyph-name="backslash" unicode="\" horiz-adv-x="797" 
d="M284 1074q-5 -5 -5 -13l4 -125q0 -18 1 -49q1 -26 2 -44q0 -22 1 -158q2 -180 3 -207q0 -22 2 -94q2 -88 3 -112q9 -235 23 -431q2 -19 4 -54l2 -15q2 -36 4 -51q3 -35 4 -43q1 -5 4 -8q4 -3 8 -3h11q5 0 8 3q4 3 4 8q1 8 4 43q2 15 5 51l1 15q3 34 4 54q15 196 24 431
q1 24 3 111q1 73 2 95q1 27 2 208q1 135 2 157q0 15 1 44q1 30 1 49l2 127q0 8 -5 13q-28 25 -71 23.5t-58 -25.5zM554 1074q-5 -5 -5 -13l4 -125q0 -18 1 -49q1 -26 2 -44q0 -22 1 -158q2 -180 3 -207q0 -22 2 -94q2 -88 3 -112q9 -235 23 -431q2 -19 4 -54l2 -15
q2 -36 4 -51q3 -35 4 -43q1 -5 4 -8q4 -3 8 -3h11q5 0 8 3q4 3 4 8q1 8 4 43q2 15 5 51l1 15q3 34 4 54q15 196 24 431q1 24 3 111q1 73 2 95q1 27 2 208q1 135 2 157q0 15 1 44q1 30 1 49l2 127q0 8 -5 13q-28 25 -71 23.5t-58 -25.5z" />
    <glyph glyph-name="bracketright" unicode="]" horiz-adv-x="499" 
d="M88 1222q-38 -13 -25 -51q19 -47 103 -47h113v-1228q-4 1 -9 1h-144q-50 -5 -52 -49q4 -44 85 -49h208q8 2 9 10v1325q0 29 -29 58q-29 30 -58 30h-201z" />
    <glyph glyph-name="asciicircum" unicode="^" horiz-adv-x="2" 
d="M-200 429l11 -280q-80 121 -339 151q104 86 328 129zM-202 599q1 -30 1 -53q-282 -54 -504 -202q-50 -28 -34 -69q24 -46 100 -40q387 -11 455 -196q1 -20 2 -39h84q8 128 13 270q1 24 3 111q1 73 2 95q1 20 1 123h-123z" />
    <glyph glyph-name="underscore" unicode="_" horiz-adv-x="907" 
d="M721 1022q-4 0 -8 -2q-2 2 -6 2q-12 0 -12 -12v-21q1 -5 1 -18q0 -37 1 -83q1 -30 2 -45q0 -21 1 -157q2 -181 3 -207q0 -22 2 -95q2 -87 3 -111q2 -52 4 -106q-140 184 -375 256q86 39 142 90l10 9v0q3 2 9 9l3 3q4 3 9 10l4 4l6 6q1 1 0 1l6 7q1 2 3 4q6 7 9 12l7 9
q3 5 4 7l10 14v1l1 1q1 3 3 6q5 9 7 13q19 41 27 87q1 6 2 18q1 4 1 6v0v5q1 13 1 19q1 9 0 25v1v4q-1 14 -2 20q-1 7 -4 21v4h-1l-1 5q-3 14 -4 21q-8 29 -19 50q-12 26 -27 47q-16 22 -36 43q-20 20 -44 37q-9 6 -24 15l-15 8h-1l-14 7h-1v0l-8 4q-4 2 -13 5h-1
q-5 2 -13 5h-2q-3 1 -11 3l-3 1q-30 7 -60 8q-61 1 -118 -23q-13 -5 -28 -13q-4 -3 -12 -7l-1 -1v0l-4 -2l-9 -6q-23 -17 -44 -39t-36 -47q-2 -3 -4 -7l-4 -7q-1 -2 -2 -5l-5 -9v-1l-6 -15q-3 -8 -5 -12l-4 -14q-1 -4 -2 -11q0 -3 -1 -5l-3 -24v-6v-11v-5v-1q0 -9 1 -14
l1 -14h1q0 -4 2 -11v-2q0 -1 1 -2l1 -7q1 -2 2 -6l5 -16v0l9 -20v-1l5 -9q4 -7 6 -10v-1l8 -12l1 -1q2 -3 3 -5l7 -8q5 -6 7 -8l1 -1l15 -15v0l17 -13v-1q4 -2 12 -7l9 -6h1l17 -10h1l16 -6v-1h1q1 0 5 -1l2 -1q1 0 4 -1q7 -2 10 -2l14 -3q4 0 10 -1h4q5 -1 14 0h1q9 0 26 2
h2h1l13 3l9 3q3 1 4 1q53 18 86 62q0 1 1 2q2 2 3 4l8 12q2 3 3 5l5 12v0q1 1 1 2l4 8q9 25 9 51q1 49 -29 88q-12 19 -30 32q-2 1 -7 4l-4 3l-4 2l-11 6h-1l-10 4h-1q-9 3 -18 5q-31 4 -60 -7q-17 -6 -31 -17q-12 -9 -23 -24v0l-5 -8l-2 -2v-1l-4 -8q0 -1 -1 -2l-2 -6
q-5 -15 -5 -28q-1 -23 10 -44q8 -16 21 -27l3 -3l2 -1q3 -2 5 -4l2 -1q4 -3 6 -3l5 -3q8 -4 12 4l5 9q4 8 -3 12l-5 3q0 1 -1 1l-2 1l-2 2l-2 2t-2 1l-2 2q-7 8 -11 19q-6 14 -4 28q2 16 15 32q14 17 35 23q24 6 46 -3l6 -3l9 -6h1l1 -1q1 -1 3 -2l2 -2q11 -9 18 -21
q16 -24 13 -53q-1 -15 -8 -28l-1 -4l-7 -11v0q0 -1 -1 -2l-6 -7q0 -1 -1 -1q-1 -1 -1 -2q-23 -25 -55 -33q-1 0 -3 -1q-3 -1 -5 -1l-8 -1h-4q-8 -1 -12 -1l-1 1h-1h-5h-1h-2l-2 1h-5l-8 3q-2 0 -4 1q-3 1 -4 1l-2 1h-1l-8 4l-15 9l-11 8l-10 10l-9 10l-8 11l-1 2l-1 1
q-1 4 -4 8l-6 12l-4 13l-2 9q-1 1 -1 2v2l-1 4q0 2 -1 4v5l-1 9v0v7v1v4q0 4 1 5v6q1 8 3 12q0 1 1 4q0 3 1 4l3 9v1t2 5l1 2l3 7l4 6q-1 -1 1 1v3v0l3 5q1 1 2 3q11 15 25 28q29 27 63 38q36 12 72 8q18 -2 35 -8q7 -3 16 -6l2 -1q3 -2 6 -3l3 -2v0h1v0l10 -6l8 -6
q2 -1 5 -3q7 -5 10 -7q9 -7 16 -14q58 -60 67 -139q5 -41 -2 -69q-26 -107 -163 -180q-103 -54 -223 -78q-31 -4 -30 -34q2 -25 20 -42q27 -19 66 -19q175 10 325 -58q168 -76 236 -221q8 -17 20 -31q2 -28 3 -52h84q8 131 13 273q1 24 3 111q1 73 1 95q1 27 3 207
q1 134 1 157q1 16 1 45q2 36 2 59h90q7 0 12 5q6 6 6 13v39q0 8 -6 13q-5 5 -12 5h-198z" />
    <glyph glyph-name="grave" unicode="`" horiz-adv-x="827" 
d="M-3 1023q-18 0 -18 -18v-38q0 -18 18 -18h76q0 -30 1 -75q1 -24 2 -42q0 -23 1 -149q2 -192 3 -217q0 -13 1 -36v-50q-1 -78 30 -98q37 -25 74 4q228 297 419 336q-104 -338 76 -674q12 -41 37 -44q30 1 23 30q-94 219 -82 395q13 208 100 338q25 32 7 73q-25 33 -66 22
q-285 -54 -500 -269q0 36 2 190q1 126 1 149q1 18 1 42q2 42 2 75h627q17 0 17 18v38q0 18 -17 18h-835z" />
    <glyph glyph-name="a" unicode="a" horiz-adv-x="880" 
d="M672 948q0 -5 1 -43v-31q1 -48 1 -64q1 -21 2 -160q2 -182 2 -209q1 -25 3 -96q1 -90 2 -113q2 -33 2 -37q-155 183 -410 224q42 33 130 96q92 66 119 83q62 42 165 95l12 127q-109 -57 -176 -97t-71 -41q-6 -1 -9 -1l-8 -1h-5q-2 -1 -3 -1h-15q-18 0 -31 2h-1
q-3 0 -10 1q-3 1 -5 1q-1 0 -5 1q-7 2 -11 3q-16 4 -31 10q-66 27 -106 85q-9 11 -19 30q-2 3 -6 11q-1 3 -2 5l-3 8l-5 14l-1 4q-1 2 -2 6l-1 2q-2 9 -3 17q-2 18 -1 35q2 37 19 70q17 32 49 56q15 11 33 19l2 2l5 2h1l2 1h2l6 2l8 2q1 1 2 1q4 1 6 1l10 2h4q3 1 5 1h17
q2 -1 5 -1t4 -1h1q5 0 7 -1l9 -2q1 0 5 -2q2 0 4 -1l4 -1q1 -1 2 -1l2 -1l8 -4l12 -7l11 -7q4 -4 7 -6q1 -1 1 -2l2 -1l10 -10l8 -10l7 -12l6 -11l6 -15l3 -11v-2l1 -1v-4q1 -3 1 -4l1 -9q0 -1 -1 -5v-12l-3 -12q0 -1 -1 -3l-2 -9q-1 -1 -2 -4q-1 -2 -1 -3q-14 -30 -43 -48
q-1 0 -1 -1l-2 -1l-8 -4l-1 -1h-1l-9 -4l-7 -2q-14 -3 -28 -2q-30 2 -52 22q-10 9 -17 21q-1 1 -2 3t-1 3l-1 1v1l-4 10l-2 6q-5 24 5 46q10 20 29 31q17 10 34 9q15 -1 28 -9q9 -6 16 -15l1 -2h1q0 -1 1 -1q1 -2 1 -3t2 -3q0 -1 1 -2l2 -6q3 -8 11 -5l10 4q8 2 6 10l-1 6
l-3 6l-1 2q0 3 -2 6q-1 1 -1 2q-2 2 -2 4q-9 14 -23 25q-20 15 -43 18q-13 2 -29 0l-6 -2h-2l-9 -3q-1 0 -3 -1l-8 -3q-1 0 -1 -1q-16 -7 -27 -18q-13 -12 -23 -27q-21 -36 -15 -77v-1l2 -11l4 -13q1 -1 2 -4l1 -4q3 -5 4 -8q9 -19 25 -36q34 -36 84 -44q25 -4 51 1l8 1v1h3
l12 4q2 0 6 2l13 5q2 1 4 3q2 0 2 1q49 25 76 74q1 1 2 4q3 5 5 8l5 13v2q17 45 5 109l-6 20l-4 10q-4 10 -6 13v1l-10 18v1l-12 17l-1 1q-2 2 -6 8l-8 8q-1 2 -3 4l-2 2l-10 10h-1q-2 2 -8 7l-9 7l-18 12h-1l-15 8q-3 2 -5 3l-7 3q-1 0 -4 1q-6 3 -10 4l-14 4q-5 2 -15 4
h-1q-1 0 -4 1q-7 1 -11 2h-6q-16 2 -24 2h-5q-7 0 -11 -1l-15 -1q-4 0 -12 -2l-16 -3l-1 -1l-10 -2q-3 -1 -5 -2l-8 -3q-5 -1 -7 -2q-28 -11 -53 -28q-25 -16 -47 -38l-7 -7l-3 -4l-1 -1q-6 -6 -9 -10q-10 -13 -18 -25q-33 -52 -43 -112q-4 -30 -3 -61l1 -3q0 -8 1 -12v-2
q1 -9 2 -13v-2q2 -9 3 -13l2 -9v-1l4 -15v-1l6 -16q6 -16 11 -27q12 -26 29 -49q17 -24 36 -43t42 -35q19 -14 45 -27q7 -4 20 -9l4 -2h1l3 -2q13 -4 19 -6q-20 -16 -102 -80q-62 -49 -84 -66q-37 -29 -3 -76q26 -28 72 -28q173 18 315 -41q161 -67 215 -210q1 -26 3 -29
q3 -45 4 -53h84q9 124 13 234q1 26 3 113q1 75 2 96q1 27 2 210q1 138 2 159q0 16 1 64q0 8 1 31v43h87q18 0 18 18v39q0 18 -18 18l-220 -1v-74z" />
    <glyph glyph-name="b" unicode="b" horiz-adv-x="927" 
d="M-16 1023q-17 0 -17 -18v-39q0 -18 17 -18h737q1 -29 2 -72q1 -29 1 -43q0 -22 2 -155q1 -178 2 -204q0 -14 1 -38l-6 10v0l-16 23v1l-3 5q-9 11 -16 19l-16 18v1l-8 7l-3 3l-6 6q-12 11 -20 17q-5 4 -17 12l-4 4h-1q-1 1 -5 3q-12 8 -18 11q-7 5 -23 13l-5 2
q-15 7 -22 9q-10 4 -28 10v0l-14 4q-3 1 -10 2q-5 1 -4 1q-31 6 -60 7q-33 2 -62 -2q-63 -8 -121 -39q-31 -15 -55 -35q-4 -3 -10 -8l-3 -3l-7 -5v0l-13 -13l-13 -13q-1 -2 -2 -2v-1l-1 -1q-47 -53 -66 -122q-19 -70 -6 -139v-3q1 -4 1 -6l2 -8q1 -4 4 -12q0 -3 1 -5
q1 -4 4 -11l1 -5v-1l2 -4q3 -9 5 -12q13 -32 34 -60q2 -4 7 -10q2 -2 3 -4q5 -6 12 -14l8 -8q3 -4 4 -5l8 -7l2 -2v0l2 -2q12 -10 29 -21q14 -10 31 -18q50 -23 106 -23q16 0 32 2q71 9 125 54l10 8v1l9 9h1l7 8q1 0 1 1l8 9l1 2q3 4 4 6l5 7q20 30 27 62q8 33 5 66v9
q-1 5 -2 8l-3 15v1l-4 14q-1 3 -3 8l-3 8q-1 1 -1 2l-3 6l-4 8q-5 8 -7 12q-1 1 -3 4l-6 9q-6 7 -11 13q-1 2 -4 4l-1 1l-10 10q-1 0 -1 1l-12 9v0q-1 1 -5 4l-8 5q-2 1 -5 3q-1 0 -2 1q-28 14 -59 18q-29 3 -58 -5q-28 -7 -51 -23q-4 -3 -11 -8l-6 -6h-1q0 -1 -2 -3l-8 -8
q-1 0 -1 -1l-2 -2q-1 -1 -2 -3q-4 -5 -6 -8q-15 -23 -20 -49t0 -51q5 -23 18 -44l3 -4q2 -3 4 -5l2 -2q4 -5 6 -7v0l8 -8v0l8 -6q17 -13 39 -18q20 -4 39 -1q18 3 34 12q3 1 7 4l-5 8l6 -7q4 3 7 5l1 1q3 3 5 4l5 6l1 1l3 4q2 2 4 5q1 1 1 2q2 2 4 6t3 7q5 13 6 26
q0 12 -2 22q-2 8 -6 18q-5 10 -14 21h-1l-5 5q-6 6 -12 0l-8 -7q-6 -6 0 -12l4 -5v-1q6 -7 8 -13q4 -13 3 -25q-1 -8 -5 -15v0l-2 -4t-2 -3t-1 -2q-1 -1 -2 -1v-1l-2 -2l-6 -5l-2 -1l-2 -2t-3 -2l-1 -1q-3 -1 -4 -1v-1v0v0v0v0q-11 -5 -22 -6h-6q-22 0 -39 14l-4 4l-6 7
q-1 1 -2 3q-1 1 -2 3q-1 0 -2 2l-2 3q-7 13 -9 28q-4 32 16 58v1l3 3q1 2 2 2l8 8q1 1 2 1l3 3q0 -1 2 1q3 2 4 3h1q16 10 33 13q9 2 18 2q28 0 51 -15q1 0 2 -1q2 0 2 -1l4 -3q1 0 2 -1t2 -1l6 -6l8 -9l1 -1q2 -2 1 -2h1q3 -5 6 -8q0 -2 2 -5t3 -4q1 -2 3 -7l3 -7q1 0 1 -2
q1 -1 1 -2l2 -6q1 -2 1 -3v0l2 -10l2 -11v0v-3v-6q1 -21 -5 -41q-6 -18 -19 -36l-3 -4q0 -1 -1 -2l-2 -2l-4 -4l-8 -8l-4 -3l-8 -7q-37 -27 -82 -30q-6 -1 -13 -1q-38 0 -72 18q-10 5 -18 11q-11 8 -17 14l-9 9q-1 1 -2 3q-1 1 -2 1l-3 4q-5 6 -7 9q-1 1 -3 4q-2 4 -4 6
q-26 40 -30 85q-5 45 10 88q14 40 46 73l11 10l9 8l5 4q1 0 3 2q3 3 5 4t4 3q4 2 6 4l9 6l9 5l6 3q3 2 4 2q59 31 127 31q18 0 36 -2q18 -3 39 -9q5 -1 14 -4q3 -1 4 -2l4 -1q9 -4 14 -6h1q4 -2 11 -6q5 -2 6 -2q2 -2 4 -3q8 -4 12 -7v0q4 -2 11 -8q2 -1 5 -3q1 -1 4 -3
q2 -2 3 -2l5 -4q1 -1 0 0l17 -15l5 -5q5 -5 8 -7l3 -3l15 -17l13 -17l13 -17q2 -4 5 -9q8 -13 12 -19q26 -47 39 -105q4 -15 6 -30q5 -98 10 -192h84q8 129 13 268q1 24 3 110q1 72 2 94q1 26 2 204q2 133 2 155q0 15 1 43q1 43 2 72h67q18 0 18 18v39q0 18 -18 18h-938z
" />
    <glyph glyph-name="c" unicode="c" horiz-adv-x="1115" 
d="M381 397q-7 3 -12 7h-2l-9 6h-1q-2 1 -9 5l-2 2q-1 1 -6 4q-3 2 -4 3q-5 4 -10 7q-12 10 -20 17l-1 1l-9 9l-13 13l-5 6l-9 10q-9 11 -17 21q-34 46 -49 92q-16 49 -11 99q5 52 32 96q13 22 31 41l3 3t1 2l5 4l5 4l5 5q11 9 20 15q44 28 93 30q50 1 91 -26v-1h1
q1 -1 4 -3v0l2 -1q2 -2 3 -2v-1l4 -3q2 -1 4 -3l2 -2q8 -8 16 -17q14 -19 20 -42q14 -48 -10 -93q-5 -10 -13 -20l-2 -3l-1 -1l-5 -5q-4 -5 -8 -8q-18 -15 -41 -20t-46 0q-11 3 -22 9q-4 2 -11 6q-1 0 -3 2l-1 1l-2 2q-1 0 -1 1l-2 1l-2 2l-1 1q2 -2 0 0l-1 1l-4 4
q-4 5 -7 9q-6 9 -9 20q-7 23 0 45q2 6 4 11q3 6 6 10l1 1q2 4 3 4l4 5q3 4 8 7q18 14 41 12q12 -1 22 -6t18 -13q16 -17 12 -40q-2 -11 -9 -21v0l-1 -1l-1 -1q2 1 -1 -1l-1 -1q-2 -3 -3 -4q-4 -3 -9 -5q-10 -4 -21 -2t-20 9q-7 8 -15 0l-6 -7q-7 -7 0 -14q14 -15 34 -20
t40 2q10 3 18 9q4 3 8 7l1 1l3 2v1l3 3q13 15 17 35q5 19 1 39q-5 20 -18 36q-12 15 -30 25q-17 10 -37 13q-41 6 -75 -18q-9 -6 -16 -13l-3 -3v0l-3 -3q-1 -2 -5 -6l-1 -2q-12 -15 -19 -33q-14 -38 -5 -77q5 -19 15 -36q4 -8 11 -17q3 -4 6 -7l2 -2v0l4 -4l3 -3l5 -4v0v0
l2 -2q3 -2 5 -4q9 -7 16 -11q17 -10 35 -15q37 -12 76 -5q19 4 37 11q18 8 34 20q6 5 15 13l5 5q2 1 3 3l4 5q13 14 22 30q20 34 25 71q6 38 -2 76q-9 38 -31 70q-11 16 -25 30l-1 2q-3 2 -5 3l-5 5q36 -10 68 -23q109 -46 180 -128l-5 4zM918 1021q-12 0 -12 -12v-44
q0 -3 1 -5q0 -30 1 -72q1 -43 1 -45q1 -11 1 -34q-151 186 -461 208q-55 7 -95 4q-196 0 -341 -73l32 -63q76 38 188 55q-8 -5 -19 -13l-7 -6l-6 -6l-9 -8q-4 -3 -5 -4q-26 -25 -46 -55q-20 -31 -34 -64q-13 -34 -19 -71q-12 -72 8 -145q18 -68 62 -128q10 -15 21 -28l6 -7
l11 -12l12 -13v-1l7 -5q5 -5 13 -12q12 -12 27 -23q62 -47 133 -62l24 -5h2q4 0 7 3l51 47l70 64l34 32q14 13 47 44l22 21l68 65l34 33l34 33l34 33l34 33q2 3 3 6q44 -86 61 -198v0v-9q1 -25 3 -95q1 -89 2 -111q6 -141 13 -273h84q8 132 13 273q1 22 3 111q2 73 2 95
q1 27 3 207q1 132 1 157q1 6 2 45q1 34 1 59h85q18 0 18 18v39q0 17 -18 17h-207z" />
    <glyph glyph-name="d" unicode="d" horiz-adv-x="1335" 
d="M1275 476q-2 36 -11 71q-10 35 -26 67q-17 32 -41 60q-46 57 -114 90q-63 30 -137 37q-17 2 -35 2h-8h-17l-18 -1h-9q-6 -1 -17 -2q-17 -2 -35 -6q-60 -13 -109 -43q-13 -8 -24 -17v0v0v-12q2 -235 2 -243q1 -20 2 -94q2 -86 3 -112q1 -22 2 -45q-159 178 -359 231
l228 132l1 1q6 8 3 18q-30 120 -121 211q-90 90 -213 127h1113q18 0 18 18v38q0 18 -18 18h-1365q-18 0 -18 -18v-38q0 -18 18 -18h99q-5 -19 7 -43q18 -30 81 -39q52 0 126 -22q70 -21 111 -59q14 -13 39 -53q25 -42 22 -48l-319 -185q-19 -11 -22 -25q-2 -27 15 -57
q20 -25 60 -30q167 -8 292 -70q145 -70 204 -197q2 -3 3 -6q3 -58 6 -114h84q8 131 13 273q1 26 3 111q2 75 2 95q0 8 2 196q3 1 4 2h2q3 1 8 2q3 1 5 1q7 2 12 3q16 3 26 4h1q8 1 13 1l19 1l14 1l7 -1q14 0 27 -1q57 -4 102 -23q49 -21 83 -57q36 -39 52 -88q8 -25 10 -51
l1 -4v-8v-7v-7q0 -14 -1 -25q-8 -52 -39 -91q-33 -40 -81 -53q-2 0 -6 -1v0h-3q-2 -1 -3 -1v0l-6 -1q-1 0 -4 -1h-3q-12 -1 -23 -1q-25 2 -46 12q-46 22 -65 70q-4 11 -7 23v4v2l-1 6q-1 8 -1 12q1 24 12 45q12 22 31 35q10 7 22 12q4 2 11 4h4l5 1l1 1h1l5 1h1h1h6
q7 0 11 -1q12 -1 22 -6q22 -10 35 -31l5 -10q3 -6 4 -12v-1q1 -3 1 -4l1 -7q1 -5 1 -11q-2 -24 -19 -41q-9 -8 -19 -12q-11 -5 -23 -6q-24 0 -40 19q-7 9 -10 21v1q-1 3 0 1v2l-1 1v6q0 5 2 10q4 11 13 19q9 7 21 8q9 1 8 10l-1 9q-1 8 -9 8q-20 -1 -37 -12q-16 -12 -24 -31
q-4 -9 -5 -19v-11v-1q0 -1 1 -3v-1v-4q3 -19 15 -35q11 -16 29 -26q17 -10 38 -10q19 -1 37 6q19 6 33 19q32 27 36 68q2 10 1 19v4v1l-1 4q0 4 -1 8v2q-4 19 -13 36q-19 34 -54 53q-18 9 -37 13q-8 1 -19 2h-10h-2h-7q-1 0 -3 -1h-6l-1 -1h-2q-5 -1 -7 -1q-11 -2 -18 -5
q-18 -6 -34 -16q-33 -21 -53 -54q-10 -17 -16 -35t-7 -38q-1 -8 0 -19v-8q0 -2 1 -4v-6q3 -19 9 -37q12 -36 37 -65q24 -29 58 -47t72 -22q19 -3 39 -1h2h6l9 1q3 1 7 2h3q6 1 9 2q17 4 35 11q17 7 34 17q31 18 57 47q49 56 63 132q3 15 4 36v9l1 9l-1 12v6z" />
    <glyph glyph-name="e" unicode="e" horiz-adv-x="872" 
d="M664 765q0 -29 1 -82q1 -180 2 -206q1 -22 2 -94q2 -85 3 -111q0 -11 1 -23q-152 200 -438 282q223 173 429 234zM-10 1023q-18 0 -18 -18v-39q0 -18 18 -18h673q1 -27 2 -64v-5q-281 -57 -593 -322q-26 -29 -7 -71q24 -24 80 -21q184 -23 323 -103q168 -98 210 -252
q2 -7 5 -14q2 -47 5 -97h84q8 131 13 271q1 25 3 112q2 72 2 94q1 27 3 207q1 135 1 157q1 18 2 44q1 38 1 64h89q18 0 18 18v39q0 18 -18 18h-896z" />
    <glyph glyph-name="f" unicode="f" horiz-adv-x="1031" 
d="M-8 1021q-18 0 -18 -18v-39q0 -17 18 -17h1038q18 0 18 17v39q0 18 -18 18h-1038zM871 723q-42 52 -50 76l-6 12q-4 7 -11 5l-10 -4q-7 -2 -6 -9v-6q0 -2 1 -5q1 -8 1 -12v-12q0 -1 1 -9v-6q0 -16 -2 -36q0 -3 -1 -10l-1 -10q0 -2 -1 -7l-1 -4q-1 -8 -2 -12v0v0l-2 -11
l-2 -8l-1 -4l-2 -6l-2 -6q-1 -2 -2 -5q-1 -5 -2 -8v0q-9 -26 -23 -51q-1 -1 -2 -4q-4 -6 -5 -8l-5 -8q-2 -3 -3 -5l-9 -12v-1q-2 -1 -4 -4q-4 -6 -6 -7l-5 -6q-1 -2 -3 -4l-2 -2l-8 -8l-3 -3q-13 -12 -24 -19v0v-1q-3 -1 -9 -5q-3 -2 -4 -3l-5 -3q-6 -3 -9 -5
q-15 -8 -30 -14q-41 -15 -85 -15q-26 0 -50 6q-15 2 -35 9q-4 2 -11 5q-4 1 -5 2l-8 3l-12 7h-1v0l-4 3q-1 0 -5 3l-2 1l-14 10q-13 11 -25 25q-23 28 -32 64q-9 35 -2 74q3 19 11 36q0 1 1 3l2 5l1 1l1 2l1 2l3 5l4 7l1 2q2 3 3 4q0 1 1 1v0l6 7q0 1 3 4l3 3q2 3 8 8
q3 2 5 4q1 1 4 3q1 1 3 2l1 1l6 3v0l8 5q2 1 5 2l1 1q2 0 2 1l4 2h2t2 1l9 3l13 3l13 1q5 0 9 1h2h3l13 -1l13 -2l13 -3l12 -5l14 -7l10 -5l2 -2v0l1 -1q1 0 3 -2l3 -3l7 -6l3 -3q1 -2 3 -3q1 -1 3 -5l1 -1v-1q3 -3 7 -10q0 -1 1 -2q0 -1 1 -1l3 -8q1 -1 2 -4q0 -3 1 -4
q10 -31 1 -63v-2t-1 -1v-1l-3 -8v-2h-1l-4 -10l-4 -5q-7 -13 -19 -22q-23 -18 -53 -18q-14 0 -26 4q-2 0 -4 1q-2 0 -2 1h-2h-1l-9 5l-6 4q-20 14 -27 37q-14 45 19 72q11 9 26 12q12 2 22 0h3q1 -1 2 -1q2 0 2 -1q1 0 3 -1q2 0 3 -1v0l5 -2q8 -4 12 3l5 10q4 7 -3 12l-5 3
q-2 1 -5 3h-2l-1 1q-2 1 -6 2l-1 1q-3 1 -5 1q-12 4 -25 4q-4 0 -9 -1q-24 -2 -43 -16q-11 -7 -21 -19v0l-4 -5q0 -1 -1 -2l-4 -8h-1q0 -1 -1 -3l-4 -8v0v0q-6 -17 -8 -32q-1 -18 2 -36q9 -40 41 -66v-1l9 -6q1 0 1 -1l11 -6l4 -2l4 -2q5 -2 8 -4q20 -7 43 -9h9q44 0 82 24
q21 14 37 35l4 6l2 4l7 10l3 6l5 12q2 3 2 5q0 1 1 1v1q19 52 5 106q0 1 -1 4q-1 6 -2 9l-5 13v1l-1 1q-7 16 -12 23l-1 2q-4 7 -7 11q-2 2 -2 3q-5 5 -7 8l-9 10q-3 3 -8 7l-3 3l-2 2q-2 2 -4 3v0v0l-14 11h-1v0l-18 11v0l-10 5q-9 4 -13 5v0l-20 7v0h-1l-20 5h-1
q-3 1 -10 2l-11 1h-6h-2q-7 1 -14 1h-1q-4 0 -11 -1l-10 -1h-1l-21 -3q-1 0 -1 -1l-17 -4q-3 -1 -5 -1l-7 -3q-1 0 -4 -1q-6 -3 -10 -4v0l-13 -7q-5 -2 -13 -7h-1q-1 -1 -4 -3l-9 -6q-2 -2 -5 -3q-13 -10 -19 -16l-3 -3l-8 -8l-9 -11q-4 -3 -9 -10l-9 -13v0v-1l-6 -9
q-2 -3 -2 -4l-4 -7q-3 -5 -4 -7q-13 -27 -20 -56q-8 -29 -9 -59v-11v-6q0 -9 1 -14q1 -16 3 -29q11 -61 44 -112q17 -25 39 -47l3 -2q6 -6 9 -8l1 -1q6 -6 10 -9h1q8 -6 11 -9l8 -5v0l14 -8v-1v0l16 -8q15 -8 26 -12q26 -11 54 -17q29 -6 55 -7h13q21 0 42 3q23 2 52 10
q7 2 20 7l5 2v0l3 1q14 6 20 9q7 3 19 9l4 2v1v0q14 8 21 13q5 3 16 11l4 3v0q2 2 5 4q9 8 13 12q35 32 58 70q2 3 7 12q2 3 3 6l1 2q1 2 1 0l7 16q1 2 3 7l5 11q2 5 5 14q0 1 1 3q1 1 1 2l2 8q6 -13 10 -26q10 -33 12 -65l1 -13v-11v-1v-2l-1 -14v-1l-2 -17l-2 -9
q-11 -68 -48 -128q-36 -59 -92 -100q-55 -41 -119 -59q-31 -8 -64 -11l-4 -1q-8 0 -12 -1h-6h-10h-15l-20 1h-1l-12 2h-5q-7 1 -11 2l-16 2q-3 1 -10 2q-4 1 -6 1l-24 6l-6 2l-9 3q-3 1 -6 1q-1 1 -5 2l-9 3q-1 1 -7 3q-15 5 -22 8q-1 1 -5 3q-6 2 -8 4l-14 6q-5 3 -13 7
l-13 7l-14 9q-7 5 -10 7q-60 41 -86 68q-37 40 -68 89q-5 8 -33 -12q-12 -8 -4 -19q26 -50 61 -94q40 -48 90 -87l12 -9l14 -10l15 -9q9 -6 15 -9l14 -9q5 -2 11 -5q3 -2 5 -3q8 -4 25 -12q5 -2 7 -3q3 -1 11 -4q3 -2 6 -3q2 -1 5 -2q8 -3 11 -4l6 -2q19 -6 29 -9l6 -2
l12 -3l18 -4q5 -1 14 -3q1 0 5 -1l15 -2v0l22 -3v0l20 -1q5 -1 14 -1h6h6h11h3q41 2 81 11q83 17 155 65q74 49 125 122q52 75 72 167l3 11l3 22l3 19v4l1 19v18q0 48 -13 96q-12 47 -36 90q-26 45 -58 79z" />
    <glyph glyph-name="g" unicode="g" horiz-adv-x="933" 
d="M532 0q1 0 0 0v0zM724 444v1v0l-16 23v0l-4 5q-8 11 -15 19l-16 20h-1l-7 8q-2 1 -3 3q-4 4 -7 6q-12 11 -19 16q-6 5 -17 13l-5 3v1q-1 0 -5 3q-12 8 -18 11q-8 4 -23 12l-6 3q-14 6 -22 9q-10 4 -27 9l-1 1l-13 3q-4 1 -10 3l-5 1q-32 6 -61 7h-19q3 60 -9 118
q-18 82 -67 153l-6 9l-13 17l-10 12q-2 2 -3 4l-12 12h438q0 -29 1 -72q1 -30 2 -44q0 -22 1 -156q2 -179 3 -205q0 -13 1 -37zM-9 1024q-18 0 -18 -18v-39q0 -18 18 -18h46q4 -30 34 -30q97 10 138 -30l9 -8l8 -8h1l1 -2l8 -8l13 -16l5 -7q39 -53 57 -118q13 -53 10 -108
q-43 -11 -81 -31q-31 -16 -55 -36q-4 -2 -10 -7q-4 -4 -3 -3l-7 -6v0l-13 -12l-13 -15q-1 -1 -1 -2h-1l-1 -1q-48 -53 -67 -123q-19 -69 -6 -139v-2q1 -4 1 -7l2 -8q1 -4 4 -12q0 -3 1 -5q1 -4 4 -11q0 -3 1 -5v-1l2 -4q3 -8 5 -12q13 -33 34 -61q2 -4 7 -10q2 -2 3 -4
q5 -6 13 -14l8 -8q3 -3 4 -5l8 -7l2 -2v0l3 -2q11 -10 28 -21q14 -10 32 -18q50 -23 105 -23q17 0 33 2q71 9 126 54l9 8v1l10 9v0l8 8v1l8 10q1 0 2 2q3 3 4 5l4 7q20 30 28 62q8 34 5 68l-1 8q0 5 -1 8l-3 15v1l-5 15q-1 2 -3 7l-3 8q0 1 -1 2q-1 4 -2 6l-5 8q-4 9 -7 13
l-3 3q-4 6 -6 10l-10 12l-4 4l-2 2l-10 9v1l-12 10h-1q-1 1 -4 3l-10 5q-1 1 -5 3l-2 1q-27 15 -58 18q-30 3 -59 -4q-27 -7 -51 -24q-4 -2 -10 -8l-7 -5v-1l-3 -3l-8 -8h-1l-2 -3q-1 -1 -2 -3q-4 -5 -6 -8q-15 -23 -20 -49q-5 -25 0 -51q5 -23 19 -44l2 -4q3 -3 4 -5l2 -2
q4 -5 6 -7v0l8 -8h1l7 -7q18 -13 39 -18q20 -4 40 -1q17 3 34 12q2 2 7 5l-5 7l5 -7q5 3 7 5l2 1q3 4 4 6l5 5q1 1 2 1l3 4q1 2 3 5q1 1 1 2q2 2 4 6t3 7q5 13 6 26q1 12 -2 22q-1 8 -6 18q-4 11 -14 21v1l-5 5q-7 6 -13 0l-7 -8q-6 -6 -1 -12l5 -5v0q5 -8 7 -14
q5 -12 3 -25q-1 -7 -5 -15v0q0 -1 -2 -4q-1 -2 -2 -3l-1 -1l-1 -2h-1l-2 -2l-5 -6q-1 0 -2 -1t-3 -2l-3 -2h-1q-2 -2 -4 -2v-1q-10 -4 -22 -5q-2 -1 -5 -1q-23 0 -40 15l-4 3l-6 7q-1 1 -2 3t-2 3l-2 2l-1 3q-8 13 -10 28q-4 33 16 58v1l3 3q1 2 2 3l8 7l2 2l3 2q1 1 2 1
q3 2 5 3v1q16 9 33 12q9 2 19 2q28 0 51 -14q1 -1 2 -1l1 -1l4 -3l2 -2t2 -1l7 -6l7 -8q1 -1 1 -2q2 -2 2 -1v-1l6 -8q1 -1 3 -5l2 -4t5 -6l3 -7q0 -1 1 -2v-2l2 -6l1 -3v-1l3 -10l1 -10v-1q1 -1 1 -3v-6q0 -21 -6 -41q-5 -18 -19 -37l-3 -4l-2 -2l-2 -2l-3 -4l-8 -8l-4 -3
l-9 -7q-37 -27 -81 -30q-7 -1 -13 -1q-39 0 -73 18q-10 6 -18 11q-11 8 -17 15l-9 8q-1 1 -2 3l-1 1l-4 4q-4 6 -7 9q0 1 -3 4q-2 4 -3 7q-26 41 -31 85q-5 45 10 89q14 39 46 72l11 10l10 9l4 3q1 1 3 2q4 4 6 5q1 1 3 2q4 3 6 4l9 6l10 6q1 1 5 3q3 1 4 2q60 31 127 31
q18 0 36 -3q20 -2 40 -8q5 -1 14 -4q4 -2 5 -2l3 -1q10 -4 14 -6l1 -1q4 -1 12 -5q3 -2 5 -3t5 -3q8 -4 11 -6v-1q4 -2 12 -7q2 -2 4 -3t4 -3q3 -2 3 -3l5 -4h1l17 -15l5 -5l7 -7l3 -3l15 -16l14 -18l12 -17q2 -3 6 -8q8 -14 11 -20q27 -47 40 -105q4 -15 6 -30
q4 -99 10 -193h85q7 129 13 270q1 23 3 110q1 71 2 93q1 27 2 206q1 132 2 155q0 14 1 44q1 43 2 72h77q18 0 18 18v39q0 18 -18 18h-943z" />
    <glyph glyph-name="h" unicode="h" horiz-adv-x="887" 
d="M681 831q1 -22 2 -155q2 -179 2 -204q1 -22 3 -93q1 -87 2 -110q1 -9 1 -19q-143 188 -421 254q215 133 247 153q20 19 14 45q-98 156 -278 247h426q0 -31 1 -74q1 -28 1 -44zM-25 1023q-18 0 -18 -17v-39q0 -18 18 -18h48q7 -31 58 -35q179 -3 286 -107q29 -28 51 -61
q0 -1 1 -3q-116 -72 -327 -202q-50 -32 -17 -85q35 -25 76 -25q183 -5 324 -70q177 -83 217 -240q2 -8 6 -15q2 -55 5 -106h84q7 130 13 269q1 23 2 110q2 70 3 93q0 26 2 204q1 133 2 155q0 16 1 44q1 43 1 74h75q18 0 18 18v39q0 17 -18 17h-911z" />
    <glyph glyph-name="i" unicode="i" horiz-adv-x="862" 
d="M653 765q0 -29 1 -82q1 -180 2 -206q1 -22 2 -94q2 -85 3 -111q0 -11 1 -23q-152 200 -438 282q223 173 429 234zM-21 1023q-18 0 -18 -18v-39q0 -18 18 -18h673q1 -27 2 -64v-5q-281 -57 -582 -312q-31 -32 -1 -73q22 -28 63 -29q184 -23 323 -103q168 -98 210 -252
q2 -7 5 -14q2 -47 5 -97h84q8 131 13 271q1 25 3 112q2 72 2 94q1 27 3 207q1 135 1 157q1 18 2 44q1 38 1 64h89q18 0 18 18v39q0 18 -18 18h-896zM427 114v-1q-1 -2 -2 -3v-1v0l-2 -4q-1 -2 -2 -3q0 -1 -1 -2q0 -1 -1 -2l-1 -2q-12 -18 -30 -29q-19 -12 -40 -13
q-22 -2 -41 6l-2 1v0l-6 3l-3 1l-2 1l-2 1q-1 1 -3 2t-2 2q-10 6 -19 14q-16 15 -24 34t-9 39q0 20 6 42q2 10 7 20v0q0 1 1 2q0 1 1 2q0 1 1 2q0 1 1 2q1 2 5 7q10 15 27 25q15 9 34 13q11 2 22 2q27 0 50 -10q19 -9 34 -25q-5 3 -12 6l-2 1v0q1 0 0 0q2 0 0 0l-9 3
q-2 1 -3 1q-13 4 -27 4h-2q-28 -1 -51 -15q-21 -13 -34 -34q-3 -5 -5 -10v-1q-1 -3 -2 -4l-1 -3q-1 -2 0 -1v0v0v-1q-4 -10 -4 -20q-1 -18 6 -35q5 -13 15 -23q7 -8 16 -13q5 -3 12 -6l3 -1q6 -2 8 4l3 7q3 5 -3 8l-3 2q-4 2 -7 5q-6 4 -10 10q-6 7 -8 16q-3 11 -1 23
q1 5 3 12h1l1 3l1 1l1 2q1 3 4 6q9 12 23 18q15 7 31 6q8 -1 16 -4q1 0 1 -1h2v0l3 -2l2 -1q5 -3 8 -5q15 -10 24 -28q8 -18 7 -37q-1 -9 -4 -19zM476 268q-6 10 -13 19q-17 21 -39 37q-45 31 -103 31h-12q-35 -2 -66 -17q-34 -16 -59 -45l-1 -2q-3 -4 -5 -6l-1 -2
q-3 -3 -4 -5q0 -1 -1 -2q-1 0 -1 -1l-3 -6l-1 -2q-3 -3 -4 -6l-4 -7l-5 -13q-1 -3 -2 -5l-3 -9q-12 -38 -9 -75q3 -40 24 -75q19 -33 52 -57q14 -11 31 -19l6 -3l2 -1q2 -1 7 -3l4 -2q1 0 2 -1l9 -3l4 -1q24 -8 50 -8q14 0 27 2q37 6 68 29q31 22 47 54q1 1 1 3q2 3 3 5l1 2
q2 5 2 6l2 4v2l1 2q1 3 3 8v1q2 9 3 17q5 1 6 5l1 5q1 6 2 10q3 22 2 44q-1 38 -14 70q-4 9 -10 20z" />
    <glyph glyph-name="j" unicode="j" horiz-adv-x="1189" 
d="M0 1022q-18 0 -18 -17v-39q0 -18 18 -18h982q0 -32 2 -72q0 -29 1 -43q0 -24 1 -156q1 -58 1 -99q-52 51 -125 43q-44 -3 -79 -39q-35 88 -108 152q-85 74 -182 76q-141 2 -250 -65q-54 -34 -81 -68q-26 -24 -47 -54q-26 -38 -41 -78q-33 -84 -21 -175q2 -18 8 -44
q1 -2 2 -7q1 -1 1 -3l2 -8l1 -1l4 -13v-1l7 -15v0l2 -6l2 -3q2 -5 3 -7l5 -10q2 -3 5 -8l1 -2q13 -22 27 -38q62 -74 154 -98q7 -2 19 -5h3v0l3 -1q13 -2 20 -3q16 -2 32 -2q7 0 14 1q6 0 19 1l4 1q14 2 22 3q6 1 17 4q1 0 2 1h3v1l15 4v0l4 1q-1 0 0 0v1l13 5h2l8 4
q15 7 22 12h1q11 7 19 12q2 2 0 1q5 3 15 12l3 2q35 31 57 72q21 39 27 85q7 42 -3 86v3q-1 5 -2 8v0l-7 24v0v0q-1 2 -2 3v1v0v0l-6 14v0l-5 9q-7 13 -11 18q-24 36 -60 60q-52 35 -115 35q-19 0 -38 -4l-10 -2q-6 -2 -8 -2l-16 -6v0q-1 0 -3 -1v0h-1v0l-11 -5v0l-2 -1
l-10 -6l-4 -2q-2 -1 -3 -2l-2 -1q-31 -21 -50 -53q-37 -60 -20 -127q1 -4 4 -12q0 -2 1 -3l2 -6q0 -1 1 -2v0v0l4 -9v-1l7 -12v0h1q0 -2 1 -3l5 -7q18 -22 43 -36q29 -15 61 -15q17 0 33 5q4 1 10 3l7 2l1 1l7 4h1v0l2 1q1 1 3 2q4 2 6 4q15 11 25 26q9 13 13 27q4 13 4 25
q1 17 -4 32l-3 6v2l-1 2q-3 8 -11 5l-10 -3q-7 -3 -6 -10v-2v-2q1 -2 1 -4q1 -12 -2 -22q-4 -16 -16 -28q-7 -7 -16 -11v-1h-1v0h-1l-9 -3v0l-4 -1q-4 -1 -6 -1v0h-7q-23 0 -42 14q-11 8 -17 20l-3 5v1q-1 1 -1 3l-2 6l-1 5q-1 1 -1 3q-1 3 -1 4v1q-1 16 3 32t15 29
q10 13 25 21q1 0 1 1h2l4 2l9 3l10 2v1h3l6 1q19 1 38 -4q19 -6 35 -18t26 -30v0l2 -4l2 -4l1 -1l3 -10l4 -15q0 -1 1 -3v-3q8 -46 -17 -88q-11 -21 -29 -36l-10 -8q-4 -2 -10 -6l-3 -2l-6 -3v-1v0q-1 0 -4 -1l-13 -5l-8 -3l-4 -1q-6 -1 -8 -2h-1v0q-12 -3 -26 -4
q-12 -1 -27 0q-3 0 -10 1q-2 1 -4 1h-3q-7 1 -10 2q-58 13 -96 55q-9 9 -18 22l-4 6l-4 7q-1 1 -2 3t-1 3l-5 9l-5 12v1l-2 5q0 1 -1 3t-1 4q-6 19 -8 30q-2 13 -3 31q-1 20 0 32q2 30 13 61q9 29 28 57q17 27 41 49q9 9 20 17q81 57 205 47q47 0 103 -31q111 -61 156 -213
q8 -23 21 -42q27 -40 49 -23q4 3 2 20q6 59 34 100q29 41 75 48q78 12 85 -154q0 -4 2 -9q2 -83 3 -107q5 -140 13 -269h83q8 132 13 269q1 24 3 110q1 73 2 94q1 26 2 204q2 132 2 156q0 15 1 43q1 43 2 72h71q18 0 18 18v39q0 17 -18 17h-1186z" />
    <glyph glyph-name="k" unicode="k" horiz-adv-x="1293" 
d="M1099 1022q-18 0 -18 -18v-1q-1 -2 -1 -5v-20q1 -7 1 -18q0 -28 1 -56l-9 9q-31 31 -68 54q-39 24 -80 36q-86 28 -175 12q-19 -3 -44 -11q-2 0 -7 -2q-2 -1 -3 -1l-8 -3v0l-14 -5v0v0l-15 -7v0h-1l-5 -3q-1 0 -3 -2q-4 -2 -7 -3l-10 -6q-3 -2 -7 -5l-2 -1
q-21 -14 -37 -29q-57 -51 -81 -125q-125 156 -303 211v-1h-2h-211q-17 0 -17 -18v-39q0 -17 17 -17h204q171 -59 280 -258q15 -27 24 -58q9 -32 9 -62q1 -33 -6 -63q-2 -11 -8 -30q-7 -18 -13 -28q-5 -11 -15 -27q-1 -2 -3 -4q-1 -2 -2 -3l-3 -4v0l-8 -11l-7 -7l-2 -2l-3 -3
l-6 -5l-5 -5q-12 -10 -23 -16q-48 -29 -106 -25q-3 0 -9 1h-4q-1 1 -3 1q-6 1 -10 2q-14 3 -25 7q-13 5 -23 11l-1 1v0q-2 1 -7 4q-3 2 -4 2l-6 5l-11 9q-2 1 -3 2v0v0l-5 5q-1 2 -2 3q-4 5 -8 9l-6 9q-12 20 -17 43q-11 48 10 89v2l1 1l1 2l8 14l6 8l2 2l2 3l3 3v0
q15 14 33 21t38 7q19 0 37 -7l5 -2l2 -1q1 0 1 -1l8 -4l8 -6l3 -3l1 -1q1 0 1 -1q12 -11 18 -27t5 -32q0 -16 -7 -31v-1q0 -1 -2 -4q-1 -2 -1 -3l-2 -4l-4 -5q-1 -1 -2 -3l-1 -1l-4 -4q-9 -9 -22 -14q-21 -8 -43 -1l-6 2v0q-2 1 -5 2l-4 2v0l-8 6v0l-1 1v0q-8 7 -12 15
q-8 15 -7 32q1 10 5 21l2 4q1 3 0 2l1 1q3 7 -2 11l-9 6q-6 5 -11 -1l-2 -2q0 -1 -1 -2q-2 -2 -4 -5q-9 -13 -14 -30q-3 -11 -3 -24q0 -15 4 -30q5 -17 16 -31q2 -3 5 -6q0 -1 1 -1q0 -1 1 -1l2 -2v-1l6 -6v0h1l5 -5q5 -4 9 -5q13 -9 29 -14q30 -9 61 -3q28 6 51 23l6 5
q2 1 3 1v1l10 10v0v0l7 7v1q1 0 2 2l4 5q1 1 1 2q5 7 7 10q35 59 18 128q-9 35 -32 64v1l-3 3l-3 4l-7 7l-2 2h-1l-8 8h-1v1v0v0q-1 0 -2 1v1l-14 9q-2 2 -7 4l-9 5q-16 9 -34 15q-58 17 -117 -1q-41 -12 -73 -40q-6 -4 -16 -14l-7 -8v0l-10 -12v0v0v0v0q-1 -1 -2 -3v0v0
l-14 -20v-1q-2 -2 -4 -6l-1 -3q-22 -40 -28 -82q-7 -45 1 -89q9 -45 32 -84l2 -3q7 -11 11 -16v0v0q5 -6 14 -18v0l18 -18q3 -3 7 -5q2 -2 1 -2l10 -8v0h1v0v0l3 -3v0v0l12 -8h1q0 -1 4 -3q10 -6 15 -8q6 -4 19 -10l4 -2q11 -4 17 -6q6 -3 13 -5q15 -4 30 -7q6 -1 20 -3h2v0
h3q13 -1 20 -1q93 -3 171 50q18 12 36 28l3 2q3 4 6 6l8 8q1 2 5 6q1 1 2 3l4 4v1l11 13v0l8 12v0l5 7l1 1q0 1 1 2q2 4 4 6q13 23 20 40q21 47 28 99q18 -12 37 -21q40 -18 85 -22q43 -4 87 8h3q4 1 7 2v0v1l23 8h1q2 1 3 1v0v0v0l14 7v0v0l9 5q13 8 18 12q34 25 56 61
q32 53 28 114q-1 19 -5 37l-3 10q-1 5 -2 7l-6 16h-1q0 1 -1 2v1v0v0v0l-6 11v0l-1 2q-2 4 -6 9l-2 4l-3 3v1q-23 29 -56 47q-62 33 -127 12q-4 -1 -12 -4q-1 0 -3 -1l-6 -2q-1 -1 -2 -1v0v-1l-9 -4q-1 -1 0 0l-12 -8h-1l-2 -2l-7 -5q-21 -19 -33 -44q-14 -29 -12 -60
q1 -17 6 -32q1 -3 4 -9l3 -7v-1l4 -7v0l2 -3l1 -1v-1q3 -4 5 -6q12 -14 27 -23q14 -8 28 -11q13 -3 25 -3q17 1 32 7q2 0 6 2l1 1l2 1q8 3 5 11l-4 9q-3 7 -10 6l-2 -1h-2q-3 -1 -4 -1q-11 -1 -22 1q-16 3 -29 14q-7 6 -12 14v1v1v0l-4 9v1l-1 4q-1 3 -1 5v0q-1 3 -1 7
q-1 22 12 41q8 11 19 18l4 3h1l4 2l6 2l4 1q1 0 3 1q3 1 5 1h1q16 3 31 -1q16 -3 30 -13q14 -9 23 -23v-2l1 -1l2 -4l4 -8l2 -10v0q0 -1 1 -3l1 -6q2 -18 -2 -37t-16 -35q-11 -16 -28 -27h-1q-1 -1 -3 -2q-3 -1 -4 -2l-2 -1l-9 -4l-15 -5h-3q-1 0 -3 -1q-45 -9 -89 12
q-21 10 -37 27l-8 9q-2 3 -7 9q-1 2 -2 3l-3 6h-1v0q0 1 -1 3l-6 13l-3 7q0 1 -1 5q-2 5 -3 7v1v0q-3 12 -5 25q-2 11 -1 27v9v2v2v2l1 1q0 7 1 10q10 57 50 96q8 9 21 19l6 4l6 4q1 1 3 2q2 2 3 2l9 5l12 5v0v1l5 1q1 1 2 1l1 1q3 1 4 1q19 7 30 9q12 3 31 5q20 2 31 1
q30 0 62 -9q29 -8 58 -24q28 -15 51 -37t39 -48l7 -11l5 -9v-1l1 -2l5 -11v-1l7 -15l2 -8q11 -32 15 -66q2 -174 2 -202q1 -22 3 -94q1 -87 2 -110q6 -140 14 -270h83q7 129 13 270q1 24 2 110q2 73 3 94q0 25 2 205q1 136 2 156q0 19 1 44q1 40 1 70h86q18 0 18 17v39
q0 18 -18 18h-200z" />
    <glyph glyph-name="l" unicode="l" horiz-adv-x="939" 
d="M732 835q1 -21 2 -156v-33v-30q-101 76 -179 93q-132 200 -362 239h536q1 -29 2 -69q1 -29 1 -44zM561 619q115 -13 174 -81q1 -49 1 -64q1 -22 2 -94q2 -87 3 -110q1 -29 2 -40q-149 179 -431 243zM-19 1023q-18 0 -18 -18v-39q0 -18 18 -18h50q1 -18 10 -34
q25 -38 75 -39q184 -4 295 -106q30 -28 53 -60q0 -1 1 -3q-60 -35 -179 -105q-121 -71 -149 -87q-57 -32 -32 -80q30 -36 84 -33q170 -11 321 -78q197 -90 238 -242l2 -6q1 -19 2 -39q2 -28 2 -36h85q0 10 1 22q5 4 3 16l-2 7q5 109 10 225q1 24 3 110q1 73 2 94q1 26 2 205
q1 132 2 156q0 15 1 44q1 40 2 69h88q18 0 18 18v39q0 18 -18 18h-970z" />
    <glyph glyph-name="m" unicode="m" horiz-adv-x="1079" 
d="M877 834q0 -20 1 -156q2 -169 2 -200q-83 75 -151 98q-4 18 -10 36q-13 37 -30 71q-18 35 -39 66q-14 19 -30 38v0q-83 105 -159 161h413q0 -28 1 -70q1 -25 2 -44zM3 1022q-18 0 -18 -18v-39q0 -17 18 -17h96q206 -1 373 -117q18 -14 35 -28q12 -10 23 -21t21 -23
q21 -24 38 -51q36 -56 55 -120q20 -67 17 -133q-2 -70 -31 -127q-7 -15 -16 -28q-5 -7 -10 -13q-1 -2 -4 -5l-2 -3h-1l-9 -11l-6 -5q-2 -3 -8 -8l-3 -3q-4 -3 -13 -10l-4 -4l-9 -6l-7 -4l-11 -6l-10 -6q-19 -9 -31 -12q-29 -11 -63 -14q-66 -5 -125 23l-7 3l-7 4q-3 2 -9 5
q-3 2 -5 3q-15 10 -25 19l-5 4l-9 8v0v1l-6 5q0 1 -1 2l-1 1q-9 10 -18 23q-15 24 -22 53q-4 14 -6 28q-1 13 0 28q0 13 3 28q3 14 8 26q5 15 11 25q7 14 14 23v0v0q2 3 4 5l3 5l6 6l4 4q8 8 18 15q19 13 44 19q47 12 91 -8q11 -5 20 -11l6 -5v0v0l3 -2l7 -7q15 -14 22 -33
q8 -20 7 -39q0 -20 -7 -39q-4 -9 -9 -17v0l-2 -2l-1 -2l-1 -1v-1l-5 -5v-1v0l-2 -2q-12 -12 -28 -19q-16 -6 -33 -5q-16 0 -31 7q-3 2 -7 4l-2 1q-1 1 -2 1l-3 2v0v0l-4 3l-1 1h-1v0v1q-3 2 -5 5q-9 10 -14 23q-4 13 -3 26t6 25q2 5 6 10v1l3 4l4 4q6 7 16 11q12 6 26 6h6
q11 -2 21 -7q4 -1 6 -2l2 -2q6 -3 11 2l7 8q5 7 -1 12l-2 2q-2 3 -6 6q-13 10 -30 16q-26 9 -55 2q-18 -5 -34 -16q-4 -2 -8 -6v0l-6 -6q-1 0 -1 -1q-8 -8 -13 -16q-29 -42 -21 -94q5 -29 21 -53q4 -6 9 -13q2 -1 5 -4l6 -6v-1l6 -5q1 -1 4 -3l2 -2q7 -5 13 -9
q39 -25 88 -25q21 0 42 5q37 10 66 34l4 4q3 2 4 3l10 10v0l3 4q1 0 2 2q3 3 4 5q12 15 21 32q40 75 14 158q-13 42 -42 76l-6 6v0l-6 7l-8 7l-2 2l-4 3q-4 3 -6 5q-17 13 -36 24q-40 21 -84 27q-46 6 -91 -4q-46 -10 -86 -37q-20 -13 -37 -30l-9 -9v0v0l-7 -8q-1 -2 -2 -2
v-1l-5 -6q-4 -5 -7 -9q-27 -38 -41 -82q-7 -22 -11 -46t-4 -46q0 -97 57 -177q14 -20 30 -36l2 -1q1 -2 3 -3l11 -10v-1l9 -7l3 -3l8 -5q15 -12 37 -25h1l6 -3q9 -5 14 -8l10 -4v0l10 -5q41 -17 88 -24q24 -3 45 -3h6q17 0 39 2q47 6 87 22q17 6 41 18l14 8l1 1v0l14 8v1
l9 6q4 3 13 10l4 3l1 1q10 8 17 14l3 4q8 8 13 12l7 8v1v0l7 7q28 34 47 75q18 39 27 82q8 41 8 83q0 24 -3 49q77 -34 140 -123v0q1 -85 2 -110q6 -139 14 -270h83q7 129 13 270q1 24 2 110q2 72 3 93q0 27 2 206q1 133 1 155q1 10 2 44q1 42 1 70h81q17 0 17 17v39
q0 18 -17 18h-1084z" />
    <glyph glyph-name="n" unicode="n" horiz-adv-x="934" 
d="M436 126q198 39 316 133q150 119 101 306q-33 125 -156 211q-116 82 -254 90q-126 8 -220 -62q-100 -75 -108 -198q-5 -39 7 -89q23 -99 109 -152h2q11 -7 23 -13q15 -7 31 -13q6 -2 16 -4q2 -1 7 -2l6 -1q2 -1 3 -1l8 -1q2 -1 3 -1h7q9 -1 16 -1h2q16 0 33 3h1
q32 6 61 22q57 33 80 94l1 2q1 3 2 5l2 7v1q3 9 4 14v1q1 5 1 6l1 6v1l1 7v1l1 7q1 30 -10 58q-19 54 -69 81q-23 12 -47 16q-22 4 -43 0q-3 0 -6 -1q-45 -10 -72 -47q-22 -31 -23 -69q0 -31 19 -57q13 -18 32 -29q12 -6 26 -9l3 -1h1l4 -1q13 -2 15 11l2 9q2 13 -10 16
l-6 1q-8 3 -15 7q-11 8 -18 19q-10 15 -8 33q1 22 16 40q17 21 43 25h1q14 3 28 -1q15 -3 29 -12q29 -18 39 -51q5 -17 3 -34v-4l-1 -5l-1 -5q0 -1 -1 -3v-1q-1 -2 -2 -8l-3 -5q0 -1 -1 -3l-1 -2q-8 -18 -21 -32q-14 -14 -32 -23t-38 -12q-10 -1 -20 0q-4 0 -10 1l-4 1l-8 1
h-1l-3 1q-1 0 -2 1h-3v1q-7 2 -10 3q-11 4 -20 10q-19 11 -35 27q-31 34 -38 80q0 2 -1 8v5v9v3q5 62 44 109q14 17 31 30q2 1 2 3q116 91 278 50q171 -43 185 -200q12 -134 -155 -234q-171 -101 -506 -97q-61 2 -32 -69q23 -42 79 -45q355 -47 728 -358q54 -52 74 -33
q22 22 -33 74q-278 264 -480 339zM-33 1022q-18 0 -18 -18v-39q0 -18 18 -18h986q18 0 18 18v39q0 18 -18 18h-986z" />
    <glyph glyph-name="o" unicode="o" horiz-adv-x="1041" 
d="M-14 1023q-18 0 -18 -18v-39q0 -18 18 -18h633v-5q1 -17 1 -29q1 -14 2 -102q1 -116 2 -134q1 -13 2 -61q2 -57 3 -72q6 -92 13 -177h66l154 75v-2v-2q0 -38 -10 -71q-9 -36 -27 -67q-18 -32 -42 -58q-48 -53 -117 -83q-16 -7 -33 -12q-18 -6 -35 -9q-19 -4 -35 -6h-9
l-11 -1h-7l-8 -1h-3q-80 0 -144 23q-71 25 -122 76q-26 26 -45 57t-30 66q-12 35 -14 72q-2 19 -1 37q0 1 1 3v6l2 15v0v3q1 5 2 9q13 78 58 133q24 28 53 44t62 17q34 1 64 -14q31 -14 52 -42q10 -14 17 -29t10 -32q0 -5 1 -9v-4l1 -10v-3q0 -2 -1 -5v-3q0 -8 -2 -16
t-5 -16q-13 -31 -41 -50t-63 -19h-1q-16 0 -31 6t-27 17q-12 12 -20 27q-3 7 -5 15l-2 8l-1 5v3v5v4v8q2 8 5 15q6 15 18 26t28 16q5 1 9 1v0q1 0 2 1h2h2h2q8 0 15 -2q16 -4 27 -16q11 -13 14 -30v-2v-3v-3v-8q-1 -10 -4 -17q-6 -15 -20 -16q-4 -1 -6 -4q-3 -3 -2 -6l1 -11
q1 -8 10 -7q7 0 14 2q7 3 13 7q11 8 18 22q5 11 8 25q1 6 1 12v5v3v5q-2 27 -19 49t-43 31q-6 2 -13 3q-4 1 -7 1h-4v0h-3h-7h-6q-6 0 -13 -2q-26 -5 -47 -22q-21 -16 -33 -41q-6 -12 -9 -26q-1 -5 -2 -13v-6v-7v-6q0 -2 0 -1l1 -6q1 -7 2 -13q2 -13 7 -25q10 -25 29 -44
q18 -19 43 -31q24 -11 51 -13h10q48 0 89 25q47 28 70 77q5 12 9 24q3 13 5 26l1 3q1 7 1 10v4v2v10v0v10q-1 5 -2 13q-3 25 -12 50q-9 24 -24 45q-30 44 -77 69q-47 26 -100 26q-54 1 -102 -22q-45 -22 -81 -63q-32 -35 -55 -81q-21 -44 -31 -92q-21 -95 6 -193
q13 -47 37 -91q23 -43 56 -80q66 -73 160 -112q88 -36 189 -37h4h8v0h10h9l6 1q8 0 12 1q27 2 50 7q24 5 48 13q23 8 46 19q91 43 154 122q32 40 52 84q22 47 30 94q9 52 3 100q-6 50 -25 95l-17 39q-2 4 -6 5t-7 -1l-2 -1l-183 -93q1 27 3 56q1 15 3 72q1 47 2 61
q1 18 3 135q1 86 1 101q1 12 1 29q0 4 1 5h311q18 0 18 18v39q0 18 -18 18h-1057zM614 -195v0l-10 3q-2 1 -3 1q-15 4 -31 4h-1q-31 0 -57 -16q-23 -15 -37 -38q-3 -5 -6 -11v-1q-1 -3 -2 -4l-1 -4v0v-1h-1v0q-3 -12 -4 -23q-1 -20 7 -38q6 -15 17 -26q8 -9 18 -14
q5 -4 12 -7l4 -1q7 -2 9 4l4 8q2 6 -4 9l-3 2q-5 2 -8 5q-7 5 -11 11q-6 9 -9 19q-4 12 -2 25q2 6 5 13v0l1 3q1 1 1 2l1 1q2 4 4 7q11 13 26 21q17 7 34 6q10 -1 18 -4q1 -1 2 -1l1 -1h1v0l3 -2l2 -1q5 -3 9 -5q16 -12 26 -31q10 -20 8 -41q0 -11 -4 -21l-1 -1q-1 -3 -1 -4
l-1 -1v0l-2 -5q0 -1 -1 -3l-2 -2l-1 -2l-1 -2q-13 -20 -34 -33q-20 -12 -44 -14t-45 7l-2 1v0v0l-7 3l-3 1q0 1 -2 2t-3 1q0 1 -2 2q-3 1 -4 2q-10 7 -19 15q-18 17 -28 38q-8 21 -9 44q-1 21 6 46q3 11 7 22h1l1 2q0 1 1 2q0 1 1 3l1 1q1 3 5 9q12 16 30 27q17 11 39 15
q12 2 24 2q29 0 55 -12q21 -9 38 -27q-6 4 -14 7zM698 -195q-5 11 -11 23q-7 11 -15 22q-18 23 -42 40q-51 35 -114 35q-7 0 -14 -1q-38 -2 -73 -19q-37 -17 -65 -49l-1 -3q-3 -3 -5 -6l-2 -2q-3 -4 -4 -6l-2 -3q-3 -4 -4 -6l-1 -3q-3 -4 -4 -7l-4 -8l-6 -13q-2 -5 -2 -7
l-4 -9q-13 -42 -9 -83q3 -45 26 -83q21 -36 57 -63q16 -12 35 -22l6 -3l3 -1q2 -1 7 -3l5 -2q1 -1 2 -1l10 -3l5 -2q26 -9 55 -9q15 0 29 3q42 7 76 31q34 25 52 61l1 1v1l3 6l1 2q2 5 3 7l2 5v1v0l1 3l3 9v1q2 9 3 19q6 0 7 6l1 5q1 6 2 11q4 24 3 49q-1 41 -16 76z" />
    <glyph glyph-name="p" unicode="p" horiz-adv-x="915" 
d="M-24 1024q-18 0 -18 -17v-39q0 -18 18 -18h90q0 -23 1 -30q1 -18 1 -34q1 -24 2 -118q2 -182 2 -208q1 -21 3 -95q1 -87 2 -112q6 -142 14 -273h84q0 3 0 1h194v0h5q19 0 39 2q83 8 153 41q76 37 128 99q27 31 45 67q19 35 30 75q11 38 13 79q1 3 1 7v13v10v10
q-2 23 -5 41q-15 85 -69 147q-29 32 -63 53q-19 11 -38 19q-20 8 -39 12q-4 1 -11 2l-3 1q-4 1 -7 1l-10 1q-3 1 -7 1h-3q-21 2 -42 0q-43 -5 -81 -25q-37 -20 -65 -52q-28 -33 -42 -73q-6 -20 -9 -40l-1 -7q-1 -3 -1 -4v-10v0q-1 -12 0 -21q1 -22 8 -43q6 -20 17 -39
q22 -37 59 -60q17 -11 38 -18q8 -3 20 -6q3 -1 8 -1l2 -1h1v0h3q5 -1 8 -1l7 -1q-2 0 0 0h3h11q12 1 21 3q22 4 41 14q40 20 61 59q5 10 9 20t6 21v1q1 6 2 9v5v1l1 4q0 11 -1 22q-5 46 -40 77q-16 14 -37 22q-20 7 -41 7h-2q-23 0 -43 -11t-33 -29q-14 -18 -17 -41
q-1 -1 -1 -4v-1v-4v-1l-1 -1q0 -6 1 -11q1 -12 5 -22q9 -22 28 -36q18 -13 42 -15q12 0 13 12v7q1 5 -3 9q-3 4 -8 4q-14 2 -24 10q-11 8 -15 21q-2 6 -3 13q0 2 1 6v1v2v2q0 1 1 1v1q2 13 11 24q18 22 45 22h1q14 0 28 -5q13 -6 23 -16q21 -20 23 -48q1 -7 0 -14v-4l-1 -3
q0 -2 -1 -5v-2q-4 -14 -11 -26q-16 -26 -42 -38q-13 -6 -27 -8q-5 -1 -14 -1h-7l-7 1h-4q-2 1 -3 1h-3q-2 1 -4 1q-9 3 -14 5q-14 5 -26 13q-24 17 -39 43q-14 26 -15 55q0 6 1 14l1 8v2l1 5q2 15 8 29q22 58 78 85q26 13 55 15q15 1 29 0l4 -1h5l7 -1v0q1 -1 4 -1
q2 -1 3 -1h1q4 -1 6 -1v-1h1q59 -15 99 -63q38 -47 48 -110q2 -12 3 -31v-8l-1 -8v-7v-3q0 -3 -1 -5q-2 -32 -12 -61q-18 -61 -61 -107q-42 -46 -100 -71q-55 -24 -123 -30q-15 -1 -32 -1h-8h-17l-16 1h-8q-5 1 -15 2h-1q-11 1 -31 5q-51 10 -94 33q3 64 6 132q1 25 3 112
q1 74 2 95q0 26 2 208q1 97 2 118q0 16 1 34q1 7 1 30h663q18 0 18 18v39q0 17 -18 17h-886zM397 -227v-1q-1 -2 -2 -3v-1v0l-2 -4q-1 -2 -2 -3q0 -1 -1 -2q0 -1 -1 -2l-1 -2q-12 -18 -30 -29q-19 -12 -40 -13q-22 -2 -41 6l-2 1v0l-6 3l-3 1l-2 1l-2 1q-1 1 -3 2t-2 2
q-10 6 -19 14q-16 15 -24 34t-9 39q0 20 6 42q2 10 7 20v0q0 1 1 2q0 1 1 2q0 1 1 2q0 1 1 2q1 2 5 7q10 15 27 25q15 9 34 13q11 2 22 2q27 0 50 -10q19 -9 34 -25q-5 3 -12 6l-2 1v0q1 0 0 0q2 0 0 0l-9 3q-2 1 -3 1q-13 4 -27 4h-2q-28 -1 -51 -15q-21 -13 -34 -34
q-3 -5 -5 -10v-1q-1 -3 -2 -4l-1 -3q-1 -2 0 -1v0v0v-1q-4 -10 -4 -20q-1 -18 6 -35q5 -13 15 -23q7 -8 16 -13q5 -3 12 -6l3 -1q6 -2 8 4l3 7q3 5 -3 8l-3 2q-4 2 -7 5q-6 4 -10 10q-6 7 -8 16q-3 11 -1 23q1 5 3 12h1l1 3l1 1l1 2q1 3 4 6q9 12 23 18q15 7 31 6
q8 -1 16 -4q1 0 1 -1h2v0l3 -2l2 -1q5 -3 8 -5q15 -10 24 -28q8 -18 7 -37q-1 -9 -4 -19zM446 -73q-6 10 -13 19q-17 21 -39 37q-45 31 -103 31h-12q-35 -2 -66 -17q-34 -16 -59 -45l-1 -2q-3 -4 -5 -6l-1 -2q-3 -3 -4 -5q0 -1 -1 -2q-1 0 -1 -1l-3 -6l-1 -2q-3 -3 -4 -6
l-4 -7l-5 -13q-1 -3 -2 -5l-3 -9q-12 -38 -9 -75q3 -40 24 -75q19 -33 52 -57q14 -11 31 -19l6 -3l2 -1q2 -1 7 -3l4 -2q1 0 2 -1l9 -3l4 -1q24 -8 50 -8q14 0 27 2q37 6 68 29q31 22 47 54q1 1 1 3q2 3 3 5l1 2q2 5 2 6l2 4v2l1 2q1 3 3 8v1q2 9 3 17q5 1 6 5l1 5q1 6 2 10
q3 22 2 44q-1 38 -14 70q-4 9 -10 20z" />
    <glyph glyph-name="q" unicode="q" horiz-adv-x="889" 
d="M682 831q1 -22 2 -155q2 -179 2 -204q1 -22 3 -93q1 -87 2 -110q1 -9 1 -19q-143 188 -421 254q215 133 247 153q8 5 -1 26q-83 175 -263 266h426q0 -31 1 -74q1 -28 1 -44zM-14 1023q-18 0 -18 -17v-39q0 -18 18 -18h38q18 -36 58 -35q179 -3 286 -107q29 -28 51 -61
q0 -1 1 -3q-116 -72 -329 -204q-40 -26 -7 -79q30 -28 68 -29q183 -5 324 -70q177 -83 217 -240q2 -8 6 -15q2 -55 5 -106h84q7 130 13 269q1 23 2 110q2 70 3 93q0 26 2 204q1 133 2 155q0 16 1 44q1 43 1 74h85q18 0 18 18v39q0 17 -18 17h-911zM468 114v-1q-1 -2 -2 -3
v-1v0l-2 -4q-1 -2 -2 -3q0 -1 -1 -2q0 -1 -1 -2l-1 -2q-12 -18 -30 -29q-19 -12 -40 -13q-22 -2 -41 6l-2 1v0l-6 3l-3 1l-2 1l-2 1q-1 1 -3 2t-2 2q-10 6 -19 14q-16 15 -24 34t-9 39q0 20 6 42q2 10 7 20v0q0 1 1 2q0 1 1 2q0 1 1 2q0 1 1 2q1 2 5 7q10 15 27 25
q15 9 34 13q11 2 22 2q27 0 50 -10q19 -9 34 -25q-5 3 -12 6l-2 1v0q1 0 0 0q2 0 0 0l-9 3q-2 1 -3 1q-13 4 -27 4h-2q-28 -1 -51 -15q-21 -13 -34 -34q-3 -5 -5 -10v-1q-1 -3 -2 -4l-1 -3q-1 -2 0 -1v0v0v-1q-4 -10 -4 -20q-1 -18 6 -35q5 -13 15 -23q7 -8 16 -13
q5 -3 12 -6l3 -1q6 -2 8 4l3 7q3 5 -3 8l-3 2q-4 2 -7 5q-6 4 -10 10q-6 7 -8 16q-3 11 -1 23q1 5 3 12h1l1 3l1 1l1 2q1 3 4 6q9 12 23 18q15 7 31 6q8 -1 16 -4q1 0 1 -1h2v0l3 -2l2 -1q5 -3 8 -5q15 -10 24 -28q8 -18 7 -37q-1 -9 -4 -19zM517 268q-6 10 -13 19
q-17 21 -39 37q-45 31 -103 31h-12q-35 -2 -66 -17q-34 -16 -59 -45l-1 -2q-3 -4 -5 -6l-1 -2q-3 -3 -4 -5q0 -1 -1 -2q-1 0 -1 -1l-3 -6l-1 -2q-3 -3 -4 -6l-4 -7l-5 -13q-1 -3 -2 -5l-3 -9q-12 -38 -9 -75q3 -40 24 -75q19 -33 52 -57q14 -11 31 -19l6 -3l2 -1q2 -1 7 -3
l4 -2q1 0 2 -1l9 -3l4 -1q24 -8 50 -8q14 0 27 2q37 6 68 29q31 22 47 54q1 1 1 3q2 3 3 5l1 2q2 5 2 6l2 4v2l1 2q1 3 3 8v1q2 9 3 17q5 1 6 5l1 5q1 6 2 10q3 22 2 44q-1 38 -14 70q-4 9 -10 20z" />
    <glyph glyph-name="r" unicode="r" horiz-adv-x="874" 
d="M56 652q-12 -82 6 -163q18 -77 61 -143q10 -15 21 -31q4 -5 12 -14l12 -14q23 -27 52 -50q45 -38 111 -73q21 -11 62 -31q29 -15 42 -22q54 -27 83 -53q32 -28 52 -65q16 -31 23 -68q0 -3 4 -60q0 -8 -2 -18q-1 -12 -2 -19q0 -3 -2 -11q-1 -9 -2 -11q-17 -37 16 -60
q67 -18 82 52q26 153 -85 261q-55 60 -118 89q-10 6 -21 12q-15 10 -46 27q-36 21 -55 31q-57 35 -96 71q-23 22 -42 45l-5 6l-6 8q-5 7 -8 11q-10 14 -17 26q-33 57 -44 121q-12 66 0 132q13 68 49 127q19 29 42 55q12 13 25 24q7 7 13 12l6 5l8 6l6 3l2 1l6 5q1 0 6 3
q6 4 9 5l4 3q7 4 10 5l8 4l8 3q30 13 66 18q32 5 68 2q32 -3 65 -14q31 -11 61 -30q26 -17 51 -43q3 -3 8 -9l4 -5v-1l9 -10l3 -6q1 -1 3 -4q0 -2 1 -3q2 -2 4 -6q0 -2 1 -3q2 -3 2 -4q14 -28 18 -58q2 -13 2 -30q1 -15 -2 -30q-2 -15 -6 -28q-5 -15 -10 -27
q-13 -28 -31 -48l-1 -1q-1 -2 -6 -6l-3 -4v0l-1 -1q-2 -2 0 0q-3 -3 0 0l-1 -1l-1 -1q-5 -4 -7 -6l-6 -4l-7 -6q-2 -1 -4 -3l-6 -3q-22 -14 -46 -19q-26 -5 -51 -2q-50 6 -87 42l-2 2t-1 2q-1 0 -1 1l-2 1l-6 7v1l-1 1l-1 2q-7 9 -11 19q-8 19 -9 41q-1 43 27 76q5 5 7 8
l2 1q1 1 0 0v0q-2 -2 0 0l4 3v1l5 4q1 0 2 1l1 1h1l4 3l4 2q16 8 34 9h1q17 1 34 -5t31 -17v-1q2 -1 2 -2l4 -4l2 -2l1 -1l1 -1q5 -7 9 -13q6 -13 7 -28q0 -14 -4 -28q-5 -12 -13 -23l-1 -1q-2 -3 -3 -4l-2 -2q-3 -3 0 0l-1 -1l-1 -1h-1q-1 -2 -4 -4q-2 -1 -5 -3
q-9 -5 -19 -8q-17 -3 -35 2q-10 3 -20 11q-3 2 -5 3l-2 2q-7 6 -13 0l-9 -7q-7 -6 -2 -13l2 -2q2 -3 5 -7q12 -13 28 -22q12 -7 24 -10q16 -5 32 -4h3q19 1 35 7q6 2 10 4q6 3 10 6l5 3q1 0 1 1l3 2q2 2 7 6l1 1q19 16 30 37q14 24 17 51q3 31 -6 60q-5 15 -14 29q-1 2 -4 7
q-2 2 -3 5l-2 2l-1 2l-4 4q-1 2 -4 6h-1q-22 26 -53 41q-33 17 -70 20q-40 2 -77 -11q-4 -2 -10 -4v0l-2 -1q-4 -2 -7 -3l-3 -2l-6 -3l-6 -4h-1l-15 -10h-1l-3 -3q-7 -5 -15 -13q-31 -29 -48 -67q-20 -39 -22 -83q-3 -45 13 -89q8 -22 20 -42q11 -18 28 -37q31 -35 72 -57
q42 -24 90 -31q49 -8 98 1q51 10 93 36l3 2q5 3 8 5l11 8v0l14 11l5 4q5 4 13 13l4 3l1 1l3 4q9 9 13 14q14 17 28 39q12 19 23 43q9 22 15 47q6 23 9 48q2 25 0 49q-1 26 -6 49q-10 48 -35 92q-1 3 -4 7q-1 1 -2 4q-4 6 -7 10l-2 3q-4 6 -5 7l-10 14v0l-8 9v1v0q-2 1 -2 2
l-5 6l-14 14q-36 34 -76 58q-43 25 -87 38q-68 21 -138 17q-25 -1 -49 -6q-48 -9 -90 -28l-10 -5v0l-11 -5l-15 -9q-2 -1 -5 -3q-5 -2 -13 -8q-4 -2 -6 -4v0h-1l-11 -9q-5 -4 -8 -6l-12 -10l-4 -3q-9 -7 -17 -15q-16 -15 -30 -33q-29 -33 -51 -71q-42 -75 -54 -161z" />
    <glyph glyph-name="s" unicode="s" horiz-adv-x="711" 
d="M795 -290q-2 18 -3 26q0 1 -1 10q-3 23 -6 37q-1 3 -1 8q-3 14 -4 21q-1 4 -2 10q-3 14 -5 22q-2 5 -2 9q-5 17 -7 25l-5 18v1l-5 18q-3 10 -10 29q-1 4 -3 10v0q-1 1 -2 5q-1 3 -2 4q-8 21 -12 31q-20 47 -41 82q-26 44 -57 80q-38 44 -76 74l-1 1l-21 15q-6 4 -19 13
l-4 2v0q-27 16 -52 25q-29 12 -55 18q-27 6 -56 9q-22 2 -48 2h-6l-13 -1v0h-13q-13 -1 -24 -3q-12 -1 -24 -3l-2 -1q-13 -2 -20 -3q-22 -5 -39 -11q-32 -9 -61 -23q-21 -10 -36 -20q-6 -4 -10 -7l-2 -2q-13 -9 -5 -21l4 -6q7 -12 24 -9h3l3 1q4 1 7 1v0q21 4 36 5
q27 4 54 6h10h6q10 1 17 1q17 0 35 -1q37 -2 74 -9q18 -4 38 -10q18 -5 39 -13q42 -16 76 -36q0 -1 1 -1q1 -1 4 -3q3 -1 4 -2l4 -2q3 -2 5 -4l3 -2q10 -7 14 -10l4 -3q3 -3 5 -4l8 -7v0v0q4 -3 11 -10q4 -3 5 -5q29 -28 56 -64q25 -35 46 -71q4 -8 14 -26q5 -10 5 -9l8 -18
q3 -6 8 -17l7 -14l8 -19q4 -8 10 -23l3 -9q14 -36 21 -56l4 -13q1 -3 2 -7l8 -24l11 -40q4 -13 22 -13h5l9 2q7 1 12 7q5 5 4 12zM505 851v0l-14 5q-3 1 -5 2q-21 5 -43 5h-3q-44 0 -81 -23q-33 -21 -52 -54q-5 -8 -8 -15l-1 -3q-2 -4 -2 -5l-2 -5v-1v0l-1 -1v0v-1
q-5 -16 -6 -31q-1 -29 10 -56q9 -20 24 -36q11 -12 25 -21q8 -4 18 -8l6 -2q9 -4 13 5l4 12q4 8 -4 13l-5 2q-7 4 -12 8q-9 7 -15 16q-9 12 -13 26q-5 17 -2 35q2 9 6 19v0v0l2 5q1 1 2 3l1 1l6 10q15 19 36 29q24 11 49 9q14 -1 26 -6q1 0 2 -1l3 -1v0v0l5 -2l3 -2
q7 -4 12 -8q24 -17 37 -44q14 -29 12 -59q-1 -14 -6 -29l-1 -2q-1 -3 -2 -5l-1 -2v0l-3 -6q-1 -3 -2 -5q-1 -1 -2 -3q0 -1 -2 -3q-1 -2 -2 -3q-18 -29 -47 -46q-29 -18 -63 -21t-64 10l-4 2v0l-9 4l-4 2q-1 1 -3 2q-3 1 -4 2q1 -1 -4 2q-3 2 -5 3q-15 10 -28 22
q-25 24 -39 55q-12 29 -13 61q-1 31 8 66q4 16 11 31v1l2 3q1 2 1 3q1 1 2 3t1 3q3 4 8 12q16 22 43 39q23 14 55 21q17 3 34 3q42 0 78 -17q30 -14 55 -38q-9 4 -20 9l-3 1v0zM624 852q-6 15 -15 32q-10 16 -21 31q-26 33 -60 57q-72 50 -163 50q-9 0 -19 -1
q-55 -3 -105 -27q-52 -25 -92 -71l-2 -3q-5 -6 -7 -8l-3 -4l-6 -9q-1 -1 -2 -3q-4 -6 -6 -10l-2 -3l-5 -10l-6 -11l-8 -20q-2 -5 -4 -9l-4 -13q-19 -60 -14 -118q5 -64 37 -119q31 -52 82 -89q23 -18 50 -31q3 -2 8 -4l4 -2q3 -2 10 -5l8 -3q1 0 2 -1l14 -5l7 -2
q38 -12 79 -12q21 0 42 3q59 10 108 45q47 35 74 86q1 3 2 4q3 6 4 9l1 2q3 8 4 10l2 7q1 1 1 2v0l2 4q1 4 3 13l1 1q3 13 4 27q8 0 10 8l1 7q2 10 3 16q6 35 5 69q-3 60 -24 110z" />
    <glyph glyph-name="t" unicode="t" horiz-adv-x="742" 
d="M511 882v0l-13 4l-4 2q-18 4 -38 4h-2q-39 0 -71 -19q-29 -17 -46 -44q-4 -7 -7 -12l-1 -3q-2 -3 -2 -4l-1 -4v-1v0l-1 -1v0v0q-5 -14 -6 -26q0 -24 9 -46q8 -16 21 -29q10 -10 22 -17q7 -4 16 -7l5 -2q8 -3 12 5l3 9q4 7 -3 11l-5 2q-6 3 -10 6q-8 6 -13 13
q-8 10 -12 22q-4 14 -2 28q2 8 6 16v0v0l1 4l2 2l1 1q3 4 5 8q13 16 32 24q21 9 43 7q12 0 23 -4q1 0 1 -1l3 -1v0v0l4 -2l3 -1q6 -4 11 -7q21 -14 32 -36q12 -24 11 -48q-1 -12 -6 -24l-1 -2q0 -2 -1 -4l-1 -1v0l-3 -5q-1 -3 -2 -4q0 -1 -1 -3q0 -1 -2 -2q-1 -2 -2 -3
q-16 -23 -41 -37q-25 -15 -55 -18q-30 -2 -56 9l-4 1v0l-8 4l-3 1q-1 1 -3 2l-3 1l-4 2q-3 2 -4 3q-14 8 -25 18q-22 19 -34 45q-11 23 -12 50q0 25 7 54q4 13 10 25v1l2 2q1 2 1 3q1 0 2 2v3q3 3 7 9q14 18 38 32q20 12 48 17q15 3 30 3q37 0 69 -14q26 -11 48 -31
q-8 3 -18 7l-2 1v0zM615 883q-5 12 -13 26q-9 13 -19 25q-22 27 -52 47q-63 41 -143 41q-8 0 -17 -1q-48 -2 -92 -22q-46 -20 -81 -58l-1 -2q-5 -5 -6 -7l-3 -3q-4 -5 -5 -8q-1 0 -2 -2q-4 -5 -5 -8l-2 -3q-3 -5 -5 -8l-5 -9l-7 -16q-2 -4 -3 -8l-4 -10q-17 -49 -12 -97
q4 -52 32 -97q28 -43 72 -73q20 -15 44 -25q3 -2 7 -4l4 -1q2 -2 8 -4l7 -3q1 0 2 -1l12 -4l7 -1q33 -10 69 -10q18 0 37 2q51 8 94 37q42 29 65 70q1 3 2 4q3 5 4 7l1 2q2 6 3 8l2 6q1 0 1 1v0l1 3q1 4 3 11l1 1q3 11 3 22q7 0 9 7l1 5q2 9 3 13q5 29 4 57q-3 49 -21 90z
M522 325v0l-14 4l-4 2q-20 4 -41 4h-3q-41 0 -76 -18q-31 -17 -49 -42q-4 -7 -7 -12l-1 -2l-2 -4l-2 -4v-1v0l-1 -1v0v-1q-4 -12 -5 -24q-1 -22 9 -44q8 -15 23 -28q10 -9 23 -16q8 -3 17 -6l6 -2q8 -3 12 4l4 9q3 7 -4 11l-5 1q-6 3 -11 6q-9 6 -14 13q-9 9 -12 20
q-5 13 -2 27q2 8 5 15v0v0l2 4q1 1 2 3h1l6 8q14 15 34 23q22 8 46 7q13 -1 24 -5q1 0 2 -1h3v0v0l4 -2l3 -2q7 -3 12 -6q22 -13 34 -34q14 -23 12 -46q-1 -11 -6 -23l-1 -1q-1 -3 -2 -4l-1 -2v0l-3 -5q-1 -2 -1 -3q-1 -1 -2 -3q0 -1 -2 -2q-1 -2 -2 -2q-17 -23 -44 -36
q-28 -14 -60 -17q-32 -2 -60 8l-3 2v0l-9 3l-4 1q-1 1 -3 2t-3 1q1 0 -4 2q-3 2 -5 2q-14 8 -26 18q-24 18 -37 42q-11 23 -12 48q-1 24 8 52q3 12 10 24v0l2 3q1 1 1 2q1 1 2 3q1 1 1 2q2 3 7 9q15 17 40 31q22 11 52 16q16 2 32 2q40 0 74 -13q28 -11 51 -30q-8 4 -19 7
l-2 1v0zM634 326q-6 12 -15 25q-9 12 -19 24q-25 26 -57 45q-67 39 -153 39q-9 0 -18 -1q-52 -2 -99 -21q-49 -20 -86 -56l-2 -2q-5 -5 -7 -6l-2 -3q-4 -5 -6 -7q-1 -1 -2 -3q-4 -4 -6 -7l-2 -3l-4 -8l-6 -8l-7 -16q-2 -4 -4 -7l-4 -10q-18 -47 -13 -92q5 -50 35 -93
q29 -40 77 -69q21 -14 47 -24q3 -2 7 -4l4 -1q3 -2 10 -4l7 -2q1 0 2 -1l13 -4l7 -2q35 -9 74 -9q20 0 40 2q55 8 101 35q44 28 70 68q1 2 2 3q2 4 3 7l1 1l4 8l2 6q1 0 1 1v0l2 3q1 3 3 10v1q3 10 4 21q8 0 10 6l1 6q1 8 2 12q6 28 5 54q-3 47 -22 86z" />
    <glyph glyph-name="u" unicode="u" horiz-adv-x="2" 
d="M-80 1265q-83 -32 -149 7q-67 39 -71 127q7 67 -44 82q-41 3 -49 -30q0 -84 74 -171q71 -86 179 -117q114 -33 210 44q93 74 98 192q9 67 -37 84q-59 17 -66 -35q-10 -139 -145 -183zM-63 1420q32 23 34 64v4v1q-2 37 -30 70q-27 33 -64 43q-39 11 -71 -11
q-33 -22 -35 -64q-2 -37 28 -73q29 -34 66 -45q40 -11 72 11z" />
    <glyph glyph-name="v" unicode="v" horiz-adv-x="271" 
d="M-9 1023q-8 0 -13 -5t-5 -13v-39q0 -7 5 -12q5 -6 13 -6h77q0 -24 1 -63q1 -26 2 -44q0 -22 1 -158q2 -180 3 -207q0 -22 2 -94q2 -88 3 -112q9 -235 23 -431q2 -19 4 -54l2 -15q2 -36 4 -51q3 -35 4 -43q1 -5 4 -8q4 -3 8 -3h11q5 0 8 3q4 3 4 8q1 8 4 43q2 15 5 51
l1 15q3 34 4 54q15 196 24 431q1 24 3 111q1 73 2 95q1 27 2 208q1 135 2 157q0 15 1 44q1 38 1 63h72q8 0 13 6q5 5 5 12v39q0 8 -5 13t-13 5h-282z" />
    <glyph glyph-name="w" unicode="w" horiz-adv-x="300" 
d="M863 1477q-6 15 -10 24l-2 5q0 1 -2 3l-6 14q-1 1 -2 3l-5 9q-4 7 -6 11l-7 10q-2 3 -5 7l-2 4q-4 5 -11 14l-5 6l-12 14v1l-5 4q-14 16 -37 35q-19 15 -42 29q-46 27 -94 40l-6 2h-1l-6 2l-4 1q-6 1 -9 2h-3q-15 3 -22 4t-21 2h-5q-2 1 -8 1h-17q-52 0 -103 -14
q-28 -8 -48 -17l-7 -3l-4 -2l-27 -14h-1l-28 -17q-3 -1 -8 -5q-1 -1 -3 -2l-20 -14v-1q-2 -1 -7 -5l-3 -3l-6 -5q-9 -7 -13 -11q-35 -32 -66 -74q-28 -39 -49 -87q-20 -48 -29 -94q-1 -6 -2 -17q-1 -3 -2 -7v-4q-1 -5 -1 -9l-2 -24v-3q-1 -6 -1 -9v-105q1 -32 1 -82
q0 -7 1 -56v-16h-112q-18 0 -18 -18v-39q0 -18 18 -18h110q1 -25 2 -63q0 -29 1 -45q0 -22 1 -157q2 -180 3 -208q1 -23 2 -95q2 -88 3 -111q9 -236 23 -431q2 -22 5 -54l1 -16q3 -35 4 -51q3 -36 4 -43q1 -11 13 -11h10q11 0 13 11q0 7 4 43q1 17 4 51l1 15q3 35 4 55
q15 195 24 431q1 23 3 111q1 74 2 95q1 28 2 208q2 134 2 157q1 19 1 45q1 40 2 63h105q17 0 17 18v39q0 18 -17 18h-61q-84 260 13 434q48 87 113 122l14 8l7 3q13 7 34 14q39 13 82 13q33 0 65 -7q35 -9 69 -28q18 -10 32 -20q18 -14 28 -25l4 -3l9 -10q1 -2 4 -6
q6 -6 8 -9q1 -1 2 -3q3 -4 4 -5l5 -8q2 -2 4 -6l5 -7v-2l6 -9l4 -8q2 -5 6 -16l1 -1q6 -16 9 -35q15 -72 -20 -139q-15 -31 -42 -58q-12 -12 -27 -22q-1 -1 -3 -2q-3 -2 -4 -3l-8 -5l-2 -1q-1 -1 -2 -1l-8 -4l-4 -2q-30 -15 -64 -16q-34 -2 -66 10q-31 11 -56 33
q-12 11 -22 24q-4 5 -9 12l-4 7l-4 8l-3 6q-1 2 -2 3q-1 3 -1 4l-3 9q-2 4 -2 6q0 1 -1 5q-2 6 -2 9v1l-1 7v8q-1 30 11 57t34 47l5 5q1 0 3 2q2 1 3 2l5 3l14 8l5 3h1q2 1 8 3q2 1 4 1q24 8 51 3q24 -5 45 -22h1l1 -1l7 -7l6 -6q2 -2 2 -3l6 -7l6 -11l4 -7v-3q1 -1 1 -2
q1 -3 2 -8q1 -1 1 -3q2 -12 1 -21q-3 -44 -40 -66l-5 -3l-3 -2l-2 -1q-2 0 -2 -1l-5 -1q-1 -1 -3 -1h-2q0 -1 -1 -1h-2q-1 0 -3 -1h-5q-17 -1 -31 6t-23 18h-1q0 1 -2 3q-1 1 -1 2q-1 0 -1 1l-3 5l-3 6q0 1 -1 3l-1 2q-5 20 4 38q5 11 16 19q1 0 1 1q1 0 2 1l5 3q7 4 3 12
l-5 9q-4 8 -12 4l-5 -3q-1 -1 -4 -2q-1 -1 -2 -1l-2 -2q-1 0 -1 -1l-6 -4v-1l-3 -3q-8 -7 -14 -17q-7 -13 -10 -27q-3 -18 1 -35q3 -10 7 -18l3 -6q1 -1 1 -2l1 -1q0 1 1 -2q3 -4 5 -6q13 -18 33 -28q22 -12 48 -13q3 0 10 1h4q1 0 4 1h3q4 1 6 2l7 2q2 0 4 1l2 1l4 2h1
l10 5l1 1l9 5q1 1 5 4l6 5l1 1l2 2l8 8q1 2 3 3l6 9q19 27 22 58q2 15 0 34v3q-2 10 -4 14q1 -2 0 2t-2 6l-4 10q0 1 -1 2l-6 11q0 1 -1 2l-8 13l-1 1l-2 2q-5 7 -9 11l-9 10q-1 0 -3 2l-1 1q-29 25 -65 34q-40 9 -79 0l-4 -2q-10 -2 -15 -5l-8 -3l-2 -1l-15 -8h-1l-11 -8
q-4 -2 -6 -4h-1l-7 -6q-33 -27 -52 -65q-19 -39 -20 -85v-11l1 -10q0 -7 2 -18l1 -2v-3q1 -3 3 -10l3 -12q1 -3 3 -7q1 -3 1 -4l4 -8q0 -2 1 -3l4 -9q2 -3 4 -8l2 -2q6 -11 12 -19q13 -19 30 -35q34 -32 78 -50q44 -17 92 -17h2q49 0 95 20l5 2q2 0 3 1l9 4l1 1l4 2l11 6
q1 1 7 5q2 1 3 2q21 13 39 29q38 35 62 78q52 92 34 196q-4 27 -12 51z" />
    <glyph glyph-name="x" unicode="x" horiz-adv-x="284" 
d="M-587 1426q-18 -104 34 -196q24 -43 62 -78q18 -16 39 -29q1 -1 3 -2q6 -4 7 -5l11 -6l4 -2l1 -1l9 -4q1 -1 3 -1l5 -2q46 -20 95 -20h2q48 0 92 17q44 18 78 50q17 16 30 35q6 8 12 19l2 2q2 5 4 8l4 9q1 1 1 3l4 8q0 1 1 4q2 4 3 7l3 12q2 7 3 10v3l1 2q2 11 2 18l1 10
v11q-1 46 -20 85q-19 38 -52 65l-7 6h-1q-2 2 -6 4l-11 8h-1l-15 8l-2 1l-8 3q-5 3 -15 5l-4 2q-39 9 -79 0q-36 -9 -65 -34l-1 -1q-2 -2 -3 -2l-9 -10q-4 -4 -9 -11l-2 -2l-1 -1l-8 -13q-1 -1 -1 -2l-6 -11q-1 -1 -1 -2l-4 -10q-1 -2 -2 -6t0 -2q-2 -4 -4 -14v-3
q-2 -19 0 -34q3 -31 22 -58l6 -9q2 -1 3 -3l8 -8l2 -2l1 -1l6 -5q4 -3 5 -4l9 -5l1 -1l10 -5h1l4 -2l2 -1q2 -1 4 -1l7 -2q2 -1 6 -2h3q3 -1 4 -1h4q7 -1 10 -1q26 1 48 13q20 10 33 28q2 2 5 6q1 3 1 2l1 1q0 1 1 2l3 6q4 8 7 18q4 17 1 35q-3 14 -10 27q-6 10 -14 17l-3 3
v1l-6 4q0 1 -1 1l-2 2q-1 0 -2 1q-3 1 -4 2l-5 3q-8 4 -12 -4l-5 -9q-4 -8 3 -12l5 -3q1 -1 2 -1q0 -1 1 -1q11 -8 16 -19q9 -18 4 -38l-1 -2q-1 -2 -1 -3l-3 -6l-3 -5q0 -1 -1 -1q0 -1 -1 -2q-2 -2 -2 -3h-1q-9 -11 -23 -18t-31 -6h-5q-2 1 -3 1h-2q-1 0 -1 1h-2q-2 0 -3 1
l-5 1q0 1 -2 1l-2 1l-3 2l-5 3q-37 22 -40 66q-1 9 1 21q0 2 1 3q1 5 2 8q0 1 1 2v3l4 7l6 11l6 7q0 1 2 3l6 6l7 7l1 1h1q21 17 45 22q27 5 51 -3q2 0 4 -1q6 -2 8 -3h1l5 -3l14 -8l5 -3q1 -1 3 -2q2 -2 3 -2l5 -5q22 -20 34 -47t11 -57v-8l-1 -7v-1q0 -3 -2 -9
q-1 -4 -1 -5q0 -2 -2 -6l-3 -9q0 -1 -1 -4q-1 -1 -2 -3l-3 -6l-4 -8l-4 -7q-5 -7 -9 -12q-10 -13 -22 -24q-25 -22 -56 -33q-32 -12 -66 -10q-34 1 -64 16l-4 2l-8 4q-1 0 -2 1l-2 1l-8 5q-1 1 -4 3q-2 1 -3 2q-15 10 -27 22q-27 27 -42 58q-35 67 -20 139q3 19 9 35l1 1
q4 11 6 16l4 8l6 9v2l5 7q2 4 4 6l5 8q1 1 4 5q1 2 2 3q2 3 8 9q3 4 4 6l9 10l4 3q10 11 28 25q14 10 32 20q34 19 69 28q32 7 65 7q43 0 82 -13q21 -7 34 -14l7 -3l14 -8q65 -35 113 -122q97 -174 13 -434h-31q-17 0 -17 -18v-39q0 -18 17 -18h75q1 -23 2 -63q0 -26 1 -45
q0 -23 2 -157q1 -180 2 -208q1 -21 2 -95q2 -88 3 -111q9 -236 24 -431q1 -20 4 -55l1 -15q3 -34 4 -51q4 -36 4 -43q2 -11 13 -11h10q12 0 13 11q1 7 4 43q1 16 4 51l1 16q3 32 5 54q14 195 23 431q1 23 3 111q1 72 2 95q1 28 3 208q1 135 1 157q1 16 1 45q1 38 2 63h80
q18 0 18 18v39q0 18 -18 18h-82v16q1 49 1 56q0 50 1 82v105q0 3 -1 9v3l-2 24q0 4 -1 9v4q-1 4 -2 7q-1 11 -2 17q-9 46 -29 94q-21 48 -49 87q-31 42 -66 74q-4 4 -13 11l-6 5l-3 3q-5 4 -7 5v1l-20 14q-2 1 -3 2q-5 4 -8 5l-28 17h-1l-27 14l-4 2l-7 3q-20 9 -48 17
q-51 14 -103 14h-17q-6 0 -8 -1h-5q-14 -1 -21 -2t-22 -4h-3q-3 -1 -9 -2l-4 -1l-6 -2h-1l-6 -2q-48 -13 -94 -40q-23 -14 -42 -29q-23 -19 -37 -35l-5 -4v-1l-12 -14l-5 -6q-7 -9 -11 -14l-2 -4q-3 -4 -5 -7l-7 -10q-2 -4 -6 -11l-5 -9q-1 -2 -2 -3l-6 -14q-2 -2 -2 -3
l-2 -5q-4 -9 -10 -24q-8 -24 -12 -51z" />
    <glyph glyph-name="y" unicode="y" horiz-adv-x="1" 
d="M-452 -280q-5 69 36 111t119 43q54 -6 104 -31q0 -1 1 -1q-6 -204 -101 -232q-139 -22 -159 110zM433 -405q-165 -27 -289 98q-103 106 -160 168q-49 47 -86 68q0 -1 3 74l-86 2l2 -45q-177 62 -309 -41q-110 -98 -80 -220q21 -98 107.5 -145.5t185.5 -23.5
q135 34 163 217l1 17q3 27 4 39q27 -13 58 -49q41 -48 113 -100q213 -144 373 -94q27 6 24 26q-2 13 -24 9z" />
    <glyph glyph-name="z" unicode="z" horiz-adv-x="2" 
d="M-859 -280q-5 69 36 111t119 43q54 -6 104 -31q0 -1 1 -1q-6 -204 -101 -232q-139 -22 -159 110zM26 -405q-165 -27 -289 98q-103 106 -160 168q-49 47 -86 68q0 -1 3 74l-88 3l4 -46q-177 62 -309 -41q-110 -98 -80 -220q21 -98 107.5 -145.5t185.5 -23.5
q135 34 163 217l1 17q3 27 4 39q27 -13 58 -49q41 -48 113 -100q213 -144 373 -94q27 6 24 26q-2 13 -24 9z" />
    <glyph glyph-name="braceleft" unicode="{" horiz-adv-x="719" 
d="M432 2q-8 48 -9 136q-1 90 -5 116q-19 146 -100 242q17 13 31 31q73 89 80 313q3 119 18 175q26 94 94 144q56 40 119 33q65 0 52 63q-26 43 -123 48q-100 11 -173 -58q-66 -63 -89 -166q-9 -44 -18 -206q-5 -129 -42 -203q-36 -74 -92 -108q-56 -88 66 -101
q41 -27 53 -78q17 -60 25 -209q6 -133 35 -206q37 -95 125 -162q94 -70 190 -60q61 20 53 72q-17 54 -144 41q-120 -13 -146 143z" />
    <glyph glyph-name="bar" unicode="|" horiz-adv-x="682" 
d="M370 1074q-5 -5 -5 -13l4 -125q0 -18 1 -49q1 -26 2 -44q0 -22 1 -158q2 -180 3 -207q0 -22 2 -94q2 -88 3 -112q9 -235 23 -431q2 -19 4 -54l2 -15q2 -36 4 -51q3 -35 4 -43q1 -5 4 -8q4 -3 8 -3h11q5 0 8 3q4 3 4 8q1 8 4 43q2 15 5 51l1 15q3 34 4 54q15 196 24 431
q1 24 3 111q1 73 2 95q1 27 2 208q1 135 2 157q0 15 1 44q1 30 1 49l2 127q0 8 -5 13q-28 25 -71 23.5t-58 -25.5z" />
    <glyph glyph-name="braceright" unicode="}" horiz-adv-x="679" 
d="M442 496h1q-4 1 -1 0zM167 -141q-136 13 -155 -41q-8 -52 57 -72q103 -10 204 60q94 67 133 162q31 73 38 206q8 149 27 209q12 51 56 78q131 13 71 101q-60 34 -98 108q-40 74 -45 203q-10 162 -20 206q-24 103 -95 166q-78 69 -185 58q-104 -5 -132 -48q-14 -63 56 -63
q67 7 127 -33q73 -50 101 -144q16 -56 19 -175q8 -224 86 -313q15 -18 33 -31q-87 -96 -107 -242q-4 -26 -5 -116q-2 -88 -10 -136q-28 -156 -156 -143z" />
    <glyph glyph-name="asciitilde" unicode="~" horiz-adv-x="2" 
d="M465 -420q-135 0 -232 122q-49 63 -70 125q-25 49 -43 38q-9 -6 -13 -21q-1 -2 -2 -6l-4 -13q0 -2 -1 -4q-1 -4 -2 -6q-7 -20 -19 -40l-1 -3q-3 -5 -4 -7l-4 -6l-3 -3l-7 -10v-1q0 1 -3 -3t-4 -6l-5 -4q0 -1 -2 -3l-2 -2l-6 -6l-2 -2q-11 -10 -20 -16q-2 -1 -6 -4
q-3 -2 -4 -3l-3 -1q-5 -3 -8 -5q-12 -6 -24 -10q-31 -11 -65 -11q-21 0 -41 4q-12 2 -27 8q-3 1 -10 4l-3 1l-6 3l-10 6h-1l-3 2q-1 1 -4 2l-1 1q-6 4 -11 8q-11 9 -20 20q-18 23 -25 51t-1 58q3 15 9 29l1 2l2 4q0 1 1 2l3 6l5 7l2 4l5 6q1 0 3 2q1 2 2 3q2 2 7 6l3 3
q1 0 3 2q2 1 3 2h1q3 3 5 3l6 4q1 0 4 2q1 0 2 1l4 1l1 1l9 2l10 3l11 1h7h1h2l11 -1l10 -1l10 -3l10 -3v-1l11 -5l7 -5q1 0 2 -1h1l2 -2l3 -3l5 -4q0 -1 2 -3t2 -3q1 0 3 -3l1 -2q2 -2 5 -8l1 -3l3 -6q1 -1 1 -3q1 -2 1 -3q8 -24 1 -50q0 -1 -1 -1v-2l-2 -6q-1 -1 -1 -2
l-4 -7l-2 -5q-7 -9 -16 -16q-18 -15 -41 -15q-12 1 -22 4h-2l-2 1q-1 1 -2 1v0l-8 4l-4 2q-16 11 -21 30q-11 36 15 57l2 2q5 5 5 11q0 14 -14 14q-7 0 -11 -5q-8 -6 -15 -14l-3 -4v0l-1 -1l-4 -7l-1 -2l-3 -6v0v-1q-6 -13 -7 -25q-1 -14 1 -28q7 -31 32 -53l7 -5h1l9 -6
l2 -1l4 -2l6 -3q15 -6 34 -7q4 -1 8 -1q34 0 64 19q16 11 29 27l3 5q2 1 2 3l5 8q1 1 3 4l4 10l2 4v2q16 40 5 83v3q-2 5 -2 8l-4 10v0l-1 1q-5 13 -9 19l-1 1q-3 6 -5 8l-2 3q-3 4 -5 7l-8 8q-1 2 -5 5l-3 3l-1 1q-2 2 -4 3l-11 8v0l-14 9h-1l-7 4q-7 3 -10 4h-1l-15 6h-1
l-16 4v0q-2 0 -9 1l-8 1q-2 0 -4 1h-2h-12h-9l-8 -1h-1l-17 -3v0l-13 -3q-3 -1 -4 -1l-9 -3q-5 -2 -8 -3l-10 -5q-4 -2 -11 -6v0q-1 -1 -3 -2q-5 -3 -8 -5l-3 -2q-11 -8 -15 -13q-1 -1 -3 -2l-6 -6l-8 -9q-3 -2 -6 -8l-5 -6l-8 -11q-1 -3 -2 -4l-3 -6q-2 -3 -3 -5
q-10 -21 -16 -44t-7 -47q-1 -2 -1 -8v-5q1 -7 1 -10q1 -14 2 -24q8 -48 34 -88q14 -20 31 -37l2 -2l7 -7h1q5 -5 8 -7l1 -1q5 -4 8 -6l5 -4l9 -6l15 -8q12 -6 21 -10q21 -9 42 -14q23 -5 44 -6h13q15 0 30 2q19 2 41 8q6 2 16 5l7 3q11 4 16 6q5 3 14 8l4 1q11 7 16 11
q4 2 13 8l7 6q7 6 11 9q16 15 29 32q67 -59 165 -100q97 -41 170 -41q17 0 32 2q29 6 33 21q4 16 -12 24q-5 3 -13 5q-9 3 -10 3q-1 1 -3 1z" />
    <glyph glyph-name="exclamdown" unicode="&#xa1;" horiz-adv-x="4" 
d="M-187 276q-1 -2 -1 -5v-107q-211 -33 -452 -193q-51 -32 -27 -70q30 -26 106 -27q312 -45 411 -184q1 -10 1 -14q1 -5 4 -8q4 -3 8 -3h11q5 0 8 3q4 3 4 8q1 8 4 43q2 15 5 51l1 15q3 34 4 54q15 196 24 431v6h-111zM-174 61l14 -253q-72 73 -339 125q135 85 325 128z
" />
    <glyph glyph-name="cent" unicode="&#xa2;" horiz-adv-x="284" 
d="M-43 1023q-18 0 -18 -18v-39q0 -18 18 -18h335q18 0 18 18v39q0 18 -18 18h-335zM-112 241q-10 4 -24 11q-2 2 -8 5q-1 1 -3 2l-6 4l-7 6q-5 3 -7 6l-2 1q-5 4 -9 9q-8 9 -15 21q-13 23 -15 51q-1 26 8 54q6 13 14 25l2 2l2 3l1 2q0 1 1 1l3 4l4 4v2q3 1 4 3l5 4q1 1 3 2
q1 2 2 2q3 2 8 5q2 1 3 2l4 1q2 2 3 2h1q2 2 4 2l7 3l20 4h10l10 -1h6h2l2 -1l9 -2l10 -4l9 -4l5 -3l2 -2l11 -6l5 -5l2 -1v-2l2 -2q2 -1 2 -2l5 -5l2 -3q1 -2 1 -3q2 -1 2 -4h1q1 -3 3 -10l1 -2l2 -5l1 -4q-1 -2 -1 -3q4 -24 -8 -46q0 -1 -1 -2l1 -1l-4 -5q0 -1 -1 -2
l-6 -7l-1 -2q-7 -9 -17 -14q-20 -10 -41 -6q-11 2 -20 6h-2l-2 2l-1 1h-1l-6 4l-4 4q-12 12 -14 30q-5 35 23 50q10 6 21 6q9 0 17 -3h1l1 -1q1 -1 3 -2h2l1 -1v-1l4 -2q5 -4 11 0l4 5q2 7 -2 11l-3 3q-1 1 -4 3q-1 0 -1 1q-2 1 -5 2q1 1 -1 1l-2 2q-12 5 -25 7
q-18 1 -35 -7q-8 -4 -17 -11l-3 -3q-1 -1 -1 -2l-5 -5l-2 -1l-4 -6q-6 -12 -9 -23q-3 -12 -4 -25q2 -30 21 -54v-1l7 -6l7 -6q1 -1 3 -2l2 -2q4 -2 5 -3q14 -8 31 -13q35 -9 70 6q17 8 31 21l5 4q1 0 2 2l7 7q0 1 2 4l6 8l2 4q1 0 0 1q21 35 19 76l-1 2q0 6 -1 8l-2 11
q-3 13 -5 20h-1q-3 6 -3 9q-2 1 -2 3q-3 4 -3 6l-6 9q-2 3 -5 6q-1 2 -1 3l-2 2l-2 2l-10 9v1l-11 10h-1l-6 5q-6 4 -9 5v1l-14 7l-15 6h-1q-2 2 -7 3l-8 2q-2 1 -4 1l-1 1q-5 1 -11 2l-1 -1q-2 1 -7 2h-8l-1 1h-16l-13 -1l-10 -2h-4l-8 -2l-9 -3q-4 -1 -11 -3h-1
q-1 -1 -3 -2q-4 -2 -7 -3q-1 -1 -4 -2q-11 -5 -16 -9q-1 0 -3 -2q-4 -3 -6 -4l-10 -7q-3 -2 -7 -6l-8 -9h-1l-5 -6q-2 -2 -2 -3l-4 -5l-4 -4q-13 -18 -22 -38q-9 -21 -15 -43q-1 -3 -2 -7v-3v-1q-2 -7 -2 -11q-1 -11 -1 -22q0 -46 18 -87q9 -20 23 -39l1 -2q3 -4 5 -7l1 -1
q5 -5 8 -7v-1q5 -5 6 -7l6 -5l8 -8h1l10 -8q10 -8 17 -12q18 -11 37 -19q21 -8 41 -13q107 -27 254 59q-13 -67 -71 -134q-149 -102 -330 -60q-145 42 -209 133q-67 83 -97.5 63.5t36.5 -98.5q84 -94 224 -144q190 -47 358 -2q84 28 143 90q63 76 67 175q-1 74 -22 149
q-51 157 -92 79q-20 -212 -199 -220q-35 0 -65 13z" />
    <glyph glyph-name="sterling" unicode="&#xa3;" horiz-adv-x="18" 
d="M-415 337q-102 10 -142.5 102t-23.5 -13q43 -127 181 -171q132 -41 281 68q32 -118 -80 -226q-102 58 -176 60q-37 1 -91 -10q-78 -16 -91 -17q-228 -31 -253 129q-21 88 -54 101q-37 1 -36 -47q14 -88 74 -161q61 -73 144 -103q91 -33 281 6q120 24 224 -49
q21 -18 51 -2q92 81 101 190q8 111 -71 205q-47 55 -69 35q-130 -109 -250 -97zM-377 533l2 -2l2 -1l1 -1v-1l3 -3q4 -5 11 -2l5 4q4 6 0 11l-2 4l-3 3q-1 1 -1 2q-2 1 -4 3q1 0 -1 1l-2 2q-10 8 -23 12q-17 5 -35 1q-9 -2 -19 -7l-4 -3q-1 0 -1 -1l-6 -4l-2 -1l-5 -5
q-9 -10 -14 -20q-6 -11 -9 -24q-5 -30 9 -57v-1l5 -7l6 -8q0 -1 2 -2l2 -3q3 -2 4 -4q12 -11 27 -19q33 -16 70 -9q18 4 35 14l6 3q1 0 2 1l8 6l3 3l8 7q1 1 2 3q1 0 1 1q28 30 34 70v3q1 5 1 8v11q0 13 -1 20l-1 1q-1 6 -1 9q-1 1 -1 3q-2 5 -2 7l-4 10q-1 3 -3 7
q-1 2 -1 3l-1 2q-1 2 -2 3l-7 11v1l-9 12h-1l-5 6l-7 7v1l-12 10l-14 9h-1q-1 2 -6 4l-7 4l-4 2l-1 1l-10 4h-1q-2 1 -7 3l-8 2v1l-16 3l-13 2h-10l-4 1h-8l-10 -1q-4 0 -11 -1h-1q-1 0 -3 -1q-5 -1 -8 -1q-1 -1 -4 -1q-12 -3 -18 -6q-1 0 -3 -1q-5 -2 -7 -3l-11 -5
q-3 -1 -8 -4l-10 -7h-1l-6 -5q-2 -1 -3 -2l-5 -4q-3 -2 -4 -3q-17 -15 -30 -33t-24 -38q-1 -3 -3 -7l-1 -3v-1q-3 -6 -4 -10q-4 -11 -6 -21q-10 -45 -1 -89q5 -22 14 -43l1 -2q2 -5 3 -8l1 -1l6 -9v-1q4 -6 5 -8l4 -6l7 -10h1l8 -10q8 -10 14 -15q15 -15 32 -27
q19 -12 37 -21q100 -50 263 5q48 42 38 73.5t-100 -0.5q-112 -26 -182 23q-9 6 -21 16l-7 7l-2 2l-5 5l-6 8q-4 4 -6 7l-1 1q-4 5 -7 11q-6 11 -10 24q-8 25 -4 53q4 26 19 51q9 11 19 21l2 2l3 3l1 1q1 1 2 1l3 3l5 3q0 1 1 2q3 1 4 2l6 3q1 1 3 2t3 1q3 1 8 3q3 1 4 2h4
q2 1 3 1h1q3 1 5 1l7 1h21l9 -2l10 -3q4 -1 6 -2h2l1 -1l9 -4l9 -6l8 -6l4 -4l2 -2l9 -9l4 -6l1 -1v-2l2 -2q1 -2 1 -3l4 -6l1 -3q1 -2 1 -3q1 -1 1 -4l1 -1q0 -3 1 -10v-2l1 -6v-4q-1 -1 -1 -2q-2 -25 -18 -44q0 -1 -1 -1v-1l-5 -5q0 -1 -1 -1l-7 -6l-2 -2q-9 -7 -20 -10
q-21 -5 -41 3q-10 4 -18 10q-1 0 -2 1l-2 2v1h-1l-5 6l-3 4q-10 15 -8 33q3 35 33 44q11 3 22 1q9 -2 16 -6l1 -1z" />
    <glyph glyph-name="currency" unicode="&#xa4;" horiz-adv-x="900" 
d="M696 638q-131 175 -352 180q-12 96 -88 131l433 1zM820 684q1 135 2 157q0 15 1 44q1 38 1 63h82q8 0 13 6q5 5 5 12v39q0 8 -5 13t-13 5h-37q-2 1 -5 1q-11 -1 -21 -1h-855q-8 0 -13 -5t-5 -13v-39q0 -7 5 -12q5 -6 13 -6h55l8 -18q17 -42 65 -44q36 5 79 -2
q31 -6 42 -17q16 -16 18 -58q-35 -9 -64 -27q-63 -40 -92 -116q-21 -61 0 -137q44 -129 188 -129q-110 56 -126 122q-5 44 11 84q15 57 96 97q49 18 122.5 21.5t181.5 -56.5q90 -47 124 -135v-11q0 -4 1 -9q1 -28 1 -37v-1l120 2q1 30 2 207zM511 720l-5 5q-1 1 -2 3l-8 8
l-6 6l-4 4l-10 9l-1 1q-1 1 -4 3q-5 4 -9 7q-26 19 -59 31q-4 2 -12 4q-3 1 -4 2h-1l-3 1q-9 2 -14 3l-18 3h-4q-10 1 -21 -12l-18 -7q-11 4 -20 3q-15 0 -33 9q-20 -5 -38 -13q-18 -9 -36 -21q-17 -12 -32 -27q-6 -5 -14 -15l-8 -10h-1l-7 -10l-4 -6q-1 -2 -5 -8v-1
q-2 -3 -5 -9l-1 -1q-1 -3 -3 -8l-1 -2q-9 -21 -14 -43q-9 -44 1 -89q2 -10 6 -21q1 -4 4 -10v-1l1 -3q2 -4 3 -7q10 -20 23 -38t30 -33q1 -1 4 -3l5 -4q1 -1 3 -2l6 -5h1l10 -7q5 -3 8 -4l10 -5q2 -1 7 -3q2 -1 3 -1q6 -3 18 -6q3 0 4 -1q3 0 8 -1q2 -1 3 -1h1q7 -1 11 -1
l10 -1h8l4 1h9l13 2l16 3v1l8 2q5 2 7 3h1l10 4l1 1l4 2l7 4q5 2 6 4h1l13 9l12 10v1l7 7l5 6h1l9 12v1l7 11q1 1 2 3l1 2q0 1 1 3q2 4 3 7l4 10q0 2 2 7q0 2 1 3q0 3 1 9l1 1q1 7 1 20v11q0 3 -1 8v3q-6 40 -34 70q0 1 -1 1q-1 2 -2 3l-8 7l-3 3l-8 6q-1 1 -2 1l-5 3
q-17 10 -35 14q-37 7 -69 -9q-15 -8 -27 -19q-1 -2 -4 -4l-2 -3q-2 -1 -2 -2l-6 -8l-5 -7v-1q-14 -27 -9 -57q3 -13 9 -24q5 -10 14 -20l5 -5l2 -1l6 -4q0 -1 1 -1l4 -3q10 -5 19 -7q17 -4 34 1q13 4 23 12l2 2q2 1 1 1q2 2 4 3q0 1 1 2l3 3l2 4q4 5 0 11l-5 4q-7 3 -11 -2
l-3 -3v-1l-1 -1l-2 -1l-2 -2q-2 -1 -1 -1q-1 0 -1 -1q-7 -4 -16 -6q-11 -2 -21 1q-30 9 -33 44q-2 18 8 33l3 4l5 6h1v1l2 2t2 1q8 6 17 10q20 8 41 3q11 -3 20 -10l2 -2l7 -6q1 0 1 -1l5 -5v-1q1 0 1 -1q15 -19 17 -44q0 -1 1 -2v-4l-1 -6v-2q-1 -7 -1 -10l-1 -1
q0 -3 -1 -4q0 -1 -1 -3l-1 -3l-3 -6q0 -1 -1 -3l-2 -2v-2l-1 -1l-4 -6l-9 -9l-2 -2l-4 -4l-8 -6l-9 -6l-9 -4l-1 -1h-2q-2 -1 -6 -2l-10 -3l-9 -2h-20l-7 1q-2 0 -5 1h-1q-1 0 -3 1h-4q-1 1 -4 2q-5 2 -8 3q-1 0 -3 1t-3 2l-6 3q-1 1 -4 2q-1 1 -1 2l-5 3l-3 3q-1 0 -2 1
l-1 1l-3 3l-2 2q-10 10 -18 21q-15 25 -19 51q-4 28 4 53q4 13 10 24q3 6 7 11l1 1q2 3 5 7l6 8l5 5l2 2l7 7q12 10 21 16q43 29 95 31q12 1 44 3t62.5 -3.5t61.5 -11.5t18 3q-1 2 -2 3z" />
    <glyph glyph-name="yen" unicode="&#xa5;" horiz-adv-x="404" 
d="M-67 1023q-17 0 -17 -17v-39q0 -17 17 -17h266q0 -23 2 -62q0 -26 1 -43q0 -22 1 -155q2 -176 3 -203q0 -21 2 -92q1 -86 2 -110q9 -208 21 -388l-11 18q-1 2 -2 3l-13 20v0h-1v0q0 1 -1 2l-4 4q-8 11 -12 15q-14 17 -36 35q-18 16 -42 31q-22 14 -48 25q-25 10 -53 17
q-27 7 -56 9q-58 5 -118 -10q-60 -17 -110 -52q-2 -2 -7 -5l-10 -8q-2 -2 -3 -2l-11 -10q-1 -1 -2 -1v-1v0l-4 -3q-7 -8 -11 -11q-23 -24 -40 -52q-73 -117 -31 -249q10 -31 26 -59l3 -4q4 -7 6 -10l5 -7q2 -4 4 -6l7 -10h1l9 -11v-1l15 -15l2 -2h1v0l9 -8q7 -6 23 -17l3 -2
q2 -2 6 -4l11 -5q8 -5 12 -7l15 -6v0v0q4 -1 11 -3q6 -2 5 -2l7 -2q1 -1 1 0q1 -1 5 -2l6 -1q8 -2 12 -2v0l16 -2h2h1q3 -1 5 -1h8q28 -1 62 7h1l18 5q0 1 1 1l21 8v0l21 11l2 1l16 11q4 2 5 4l16 12v0l6 6q7 7 19 21l2 2v1l10 15q0 1 1 1l8 16q1 0 1 1l7 17v0l1 5q3 8 4 13
v0l3 15q5 29 1 58q-4 28 -15 54v0v0q-1 1 -3 5q-7 13 -11 20l-5 6q-1 2 -1 3l-10 12l-2 2l-7 7l-8 8q-2 1 -3 2l-1 1q-3 2 -4 3h-1l-5 4q-8 5 -12 7q-23 13 -49 17q-25 4 -49 0q-23 -3 -46 -15l-7 -3q0 -1 -1 -1l-12 -8q1 1 0 0q1 1 0 0v0q-2 -1 -5 -4l-3 -2l-4 -4h-1l-3 -4
q-16 -16 -26 -36q-8 -19 -10 -39q-4 -38 14 -71q1 -3 5 -8l1 -2q2 -3 4 -5l5 -7l1 -1l3 -3q3 -4 10 -9l2 -1l1 -1l1 -1q7 -4 11 -6q3 -2 9 -4q2 -1 3 -2h1l5 -1q4 -2 7 -2l6 -1v0l6 -1v0h8h3q19 1 36 8l4 2q1 1 2 1l1 1q3 2 5 3l6 4v0l7 5q6 6 1 12l-6 9q-5 6 -12 1l-6 -3
l-5 -4h-1l-2 -1v0q-1 0 -3 -1q-1 -1 -2 -1v0q-12 -4 -24 -4q-1 0 -3 1h-4h-1l-4 1l-4 1q-2 0 -4 1l-4 2q-1 0 -2 1q-4 2 -5 3h-1q-16 10 -25 31q-11 22 -6 47q2 13 8 24q7 12 17 21l3 2l3 2q1 0 3 2t4 3q3 1 6 3l7 3q15 7 29 8q11 1 21 -1q23 -2 41 -14v-1q2 -1 5 -3l5 -4
l1 -1l1 -1q1 -1 3 -2q2 -3 3 -4v0l5 -5l8 -12v0q1 -2 1 -1l2 -4v-1q2 -3 5 -10l2 -5q7 -17 8 -35q1 -19 -3 -37l-2 -9l-4 -11l-6 -11l-6 -10l-7 -9q-1 -2 -3 -3q-6 -7 -10 -10v0l-4 -3l-13 -10h-1q0 -1 -2 -1l-1 -1l-8 -5h-1q-1 -1 -1 0l-14 -7l-14 -4l-13 -3q-23 -4 -40 -2
h-6h-2l-2 1l-10 1l-15 4l-5 2q-1 0 -4 1q-3 2 -5 2l-10 5v0q-2 1 -6 4l-8 4q-2 1 -2 2v0q-1 1 -5 3q-8 6 -11 10v0v0l-6 5l-1 1l-9 11l-5 6l-6 9q-1 1 -2 3l-4 6q-1 2 -3 5q-1 3 -2 4q-9 19 -15 40q-11 43 -2 83q4 21 12 40q8 18 20 35q12 16 27 30q2 1 7 5l2 2l12 9
q1 0 1 1l7 5l4 2q35 22 74 32q49 12 100 7q27 -4 53 -12q17 -6 34 -14q17 -9 31 -18q17 -12 27 -22v0q3 -2 8 -7l5 -5l1 -1v0l14 -16l2 -2l1 -1l10 -13l10 -13q3 -5 5 -7l9 -14q15 -27 27 -55q29 -73 42 -255q6 -16 17 -19q10 -3 16 10q9 20 20 419q12 176 20 379
q1 24 3 110q2 71 2 92q1 26 3 204q1 132 1 154q1 17 1 43q1 39 2 62h81q17 0 17 17v39q0 17 -17 17h-478z" />
    <glyph glyph-name="brokenbar" unicode="&#xa6;" horiz-adv-x="1" 
d="M-196 216q-1 -2 -1 -5l-3 -67q-211 -33 -452 -193q-51 -32 -27 -70q30 -26 106 -27q312 -45 411 -184q1 -10 1 -14q1 -5 4 -8q4 -3 8 -3h11q5 0 8 3q4 3 4 8q1 8 4 43q2 15 5 51l1 15q3 34 4 54q15 196 18 391v6h-102zM-192 34l17 -239q-69 66 -336 118q135 85 319 121z
" />
    <glyph glyph-name="section" unicode="&#xa7;" horiz-adv-x="399" 
d="M198 707q9 -208 21 -388l-11 18q-1 2 -2 3l-13 20v0h-1v0q0 1 -1 2l-4 4q-8 11 -12 15q-14 17 -36 35q-18 16 -42 31q-22 14 -48 25q-25 10 -53 17q-27 7 -56 9q-58 5 -118 -10q-60 -17 -110 -52q-2 -2 -7 -5l-10 -8q-2 -2 -3 -2l-11 -10q-1 -1 -2 -1v-1v0l-4 -3
q-7 -8 -11 -11q-23 -24 -40 -52q-73 -117 -31 -249q10 -31 26 -59l3 -4q4 -7 6 -10l5 -7q2 -4 4 -6l7 -10h1l9 -11v-1l15 -15l2 -2h1v0l9 -8q7 -6 23 -17l3 -2q2 -2 6 -4l11 -5q8 -5 12 -7l15 -6v0v0q4 -1 11 -3q6 -2 5 -2l7 -2q1 -1 1 0q1 -1 5 -2l6 -1q8 -2 12 -2v0l16 -2
h2h1q3 -1 5 -1h8q28 -1 62 7h1l18 5q0 1 1 1l21 8v0l21 11l2 1l16 11q4 2 5 4l16 12v0l6 6q7 7 19 21l2 2v1l10 15q0 1 1 1l8 16q1 0 1 1l7 17v0l1 5q3 8 4 13v0l3 15q5 29 1 58q-4 28 -15 54v0v0q-1 1 -3 5q-7 13 -11 20l-5 6q-1 2 -1 3l-10 12l-2 2l-7 7l-8 8q-2 1 -3 2
l-1 1q-3 2 -4 3h-1l-5 4q-8 5 -12 7q-23 13 -49 17q-25 4 -49 0q-23 -3 -46 -15l-7 -3q0 -1 -1 -1l-12 -8q1 1 0 0q1 1 0 0v0q-2 -1 -5 -4l-3 -2l-4 -4h-1l-3 -4q-16 -16 -26 -36q-8 -19 -10 -39q-4 -38 14 -71q1 -3 5 -8l1 -2q2 -3 4 -5l5 -7l1 -1l3 -3q3 -4 10 -9l2 -1
l1 -1l1 -1q7 -4 11 -6q3 -2 9 -4q2 -1 3 -2h1l5 -1q4 -2 7 -2l6 -1v0l6 -1v0h8h3q19 1 36 8l4 2q1 1 2 1l1 1q3 2 5 3l6 4v0l7 5q6 6 1 12l-6 9q-5 6 -12 1l-6 -3l-5 -4h-1l-2 -1v0q-1 0 -3 -1q-1 -1 -2 -1v0q-12 -4 -24 -4q-1 0 -3 1h-4h-1l-4 1l-4 1q-2 0 -4 1l-4 2
q-1 0 -2 1q-4 2 -5 3h-1q-16 10 -25 31q-11 22 -6 47q2 13 8 24q7 12 17 21l3 2l3 2q1 0 3 2t4 3q3 1 6 3l7 3q15 7 29 8q11 1 21 -1q23 -2 41 -14v-1q2 -1 5 -3l5 -4l1 -1l1 -1q1 -1 3 -2q2 -3 3 -4v0l5 -5l8 -12v0q1 -2 1 -1l2 -4v-1q2 -3 5 -10l2 -5q7 -17 8 -35
q1 -19 -3 -37l-2 -9l-4 -11l-6 -11l-6 -10l-7 -9q-1 -2 -3 -3q-6 -7 -10 -10v0l-4 -3l-13 -10h-1q0 -1 -2 -1l-1 -1l-8 -5h-1q-1 -1 -1 0l-14 -7l-14 -4l-13 -3q-23 -4 -40 -2h-6h-2l-2 1l-10 1l-15 4l-5 2q-1 0 -4 1q-3 2 -5 2l-10 5v0q-2 1 -6 4l-8 4q-2 1 -2 2v0
q-1 1 -5 3q-8 6 -11 10v0v0l-6 5l-1 1l-9 11l-5 6l-6 9q-1 1 -2 3l-4 6q-1 2 -3 5q-1 3 -2 4q-9 19 -15 40q-11 43 -2 83q4 21 12 40q8 18 20 35q12 16 27 30q2 1 7 5l2 2l12 9q1 0 1 1l7 5l4 2q35 22 74 32q49 12 100 7q27 -4 53 -12q17 -6 34 -14q17 -9 31 -18
q17 -12 27 -22v0q3 -2 8 -7l5 -5l1 -1v0l14 -16l2 -2l1 -1l10 -13l10 -13q3 -5 5 -7l9 -14q15 -27 27 -55q29 -73 42 -255q6 -16 17 -19q10 -3 16 10q9 20 20 419q12 176 20 379q1 24 -54 24t-54 -24zM-5 1023q-8 0 -13 -5t-5 -13v-39q0 -7 5 -12q5 -6 13 -6h197
q0 -24 1 -63q1 -26 2 -44q0 -22 1 -158q2 -180 3 -207q0 -22 2 -94q2 -88 3 -112q9 -235 23 -431q2 -19 4 -54l2 -15q2 -36 4 -51q3 -35 4 -43q1 -5 4 -8q4 -3 8 -3h11q5 0 8 3q4 3 4 8q1 8 4 43q2 15 5 51l1 15q3 34 4 54q15 196 24 431q1 24 3 111q1 73 2 95q1 27 2 208
q1 135 2 157q0 15 1 44q1 38 1 63h72q8 0 13 6q5 5 5 12v39q0 8 -5 13t-13 5h-402z" />
    <glyph glyph-name="dieresis" unicode="&#xa8;" horiz-adv-x="439" 
d="M-136 1022q-17 0 -17 -18v-39q0 -18 17 -18h231q-95 -206 -68 -409q3 -74 23 -142q18 -62 65 -142q36 -60 94 -130q14 -16 36 -42q46 -54 67 -82q13 -17 23 -32q2 -3 5 -8l3 -5h1v-1l6 -10q2 -5 4 -9q18 -34 28 -70q20 -76 5 -153q-15 -78 -62 -141q-22 -31 -53 -56
q-14 -12 -31 -24q-5 -3 -8 -5l-3 -2v0l-10 -5l-12 -7q-20 -9 -34 -13q-19 -7 -37 -9q-3 -1 -12 -2q-2 0 -6 -1h-2h-3q-8 -1 -13 -1h-13q-1 0 -3 1h-3h-5q-8 1 -12 1h-1q-75 10 -132 58q-10 8 -25 24q-12 14 -22 28q-1 2 -3 5l-2 3l-2 4h-1l-4 8l-1 2l-1 1l-3 7q-6 14 -11 31
q-4 15 -6 31q-1 17 0 33q2 33 15 61q13 29 33 52q12 13 22 21v1h1l3 3l2 1q4 3 6 5l5 3h1l4 3l3 2q1 0 3 1l3 2q1 0 3 1t3 1q0 1 3 2q2 1 3 1q2 1 3 1q3 1 4 2q14 4 27 6q27 3 54 -4q26 -7 48 -23q21 -16 35 -38l2 -2l4 -8q1 -1 1 -3q1 -2 2 -3l2 -5q4 -11 5 -23
q3 -22 -4 -45q-6 -22 -21 -40q-7 -8 -16 -15q-1 -1 -3 -2q-3 -3 -2 -1v-1v0l-4 -2l-2 -2q-1 0 -2 -1q1 1 -2 -1q-1 0 -2 -1v0q-18 -8 -38 -8q-19 0 -36 8t-29 23q-12 13 -16 28q-8 31 10 57q7 11 18 19q10 7 21 10q18 5 37 -3q12 -4 21 -13l5 -5l1 -2q5 -6 12 -2l8 5
q8 5 4 13l-2 2q-2 4 -5 8q-10 16 -27 27q-12 8 -26 12q-17 5 -35 3q-22 -1 -40 -11q-21 -11 -37 -29q-17 -20 -25 -45q-10 -29 -6 -58q5 -32 24 -60t48 -47q30 -18 65 -23h4q40 -5 78 9q2 1 7 3l2 1q3 1 9 4l6 3q1 1 3 2l3 2q5 3 6 4q17 11 31 25q31 30 46 71q17 42 14 87
q-1 23 -8 46q-2 6 -4 11l-1 3q-1 5 -3 8l-3 8v0l-5 9l-2 5q-24 41 -60 70q-37 31 -84 46q-48 15 -98 10q-26 -2 -50 -10q-2 0 -9 -2l-3 -2q-3 0 -9 -3l-3 -1q-4 -2 -9 -4l-3 -1q-3 -2 -10 -6l-13 -7l-4 -2l-6 -4q-4 -3 -11 -8l-2 -1q-5 -4 -8 -6q-19 -16 -36 -35
q-18 -19 -31 -40q-13 -22 -23 -46q-20 -48 -23 -100q-1 -26 2 -53q4 -26 11 -51q8 -24 21 -49l6 -12q1 -2 3 -4l6 -10v-1v0l5 -6q0 -1 1 -2l1 -1q3 -5 5 -7q15 -21 33 -39q21 -21 38 -34q76 -57 170 -70q9 -2 18 -3q7 0 20 -1h6h6h20q7 1 20 2l5 1v0l6 1q13 1 19 3
q24 4 50 13q21 8 47 21l13 7v0l13 8q2 1 2 2l4 2q5 3 10 7q21 14 39 31q37 33 65 73q57 81 73 180q15 95 -13 188q-13 45 -36 86q-6 9 -12 20l-7 9q-3 6 -6 9q-11 17 -27 36q-23 29 -72 82q-25 27 -37 40q-59 68 -92 119q-40 61 -61 126q-20 61 -25 128q-1 11 -2 25
q3 75 31 151q56 156 193 230h203q18 0 18 18v39q0 18 -18 18h-644z" />
    <glyph glyph-name="copyright" unicode="&#xa9;" horiz-adv-x="11" 
d="M-162 1210q-43 -37 -11 -80q31 -38 80 -15q245 146 321 366q10 30 -8 43q-30 16 -47 -19q-86 -179 -335 -295z" />
    <glyph glyph-name="ordfeminine" unicode="&#xaa;" horiz-adv-x="5" 
d="M-195 -85q-11 4 -20 8q-54 20 -112 37q-27 8 -56 15q-33 8 -58 13q-29 6 -57 11q-25 4 -58 8q-29 4 -58 6q-26 2 -59 4q-24 1 -58 1q-32 -1 -58 -2q-8 -1 -23 -2h-7q-3 0 -9 -1q-12 -1 -19 -2q-21 -2 -58 -7h-1q-38 -6 -56 -10q-28 -6 -56 -13q-8 -2 -7 -10l2 -11
q1 -8 9 -7l12 1q30 1 44 2q29 1 56 1q32 0 56 -1q26 -1 56 -3q18 -1 51 -5h4q27 -3 55 -7q32 -5 55 -9l1 -1q36 -7 53 -10q57 -13 107 -28q55 -16 104 -34q54 -20 102 -42q25 -11 49 -23h1t1 -1h100q2 31 10 229h-100q1 -17 2 -55q1 -34 1 -51z" />
    <glyph glyph-name="guillemotleft" unicode="&#xab;" horiz-adv-x="8" 
d="M-431 -98q-11 4 -20 8q-54 20 -112 37q-27 8 -56 15q-33 8 -58 13q-29 6 -57 11q-25 4 -58 8q-29 4 -58 6q-26 2 -59 4q-24 1 -58 1q-32 -1 -58 -2q-8 -1 -23 -2h-7q-3 0 -9 -1q-12 -1 -19 -2q-21 -2 -58 -7h-1q-38 -6 -56 -10q-28 -6 -56 -13q-8 -2 -7 -10l2 -11
q1 -8 9 -7l12 1q30 1 44 2q29 1 56 1q32 0 56 -1q26 -1 56 -3q18 -1 51 -5h4q27 -3 55 -7q32 -5 55 -9l1 -1q36 -7 53 -10q57 -13 107 -28q55 -16 104 -34q54 -20 102 -42q25 -11 49 -23h1t1 -1h100q2 31 10 229h-100q1 -17 2 -55q1 -34 1 -51z" />
    <glyph glyph-name="logicalnot" unicode="&#xac;" horiz-adv-x="7" 
d="M-437 -215l2 -15q2 -36 4 -51q3 -35 4 -43q1 -5 4 -8q4 -3 8 -3h11q5 0 8 3q4 3 4 8q1 8 4 43q2 15 5 51l1 15q3 34 4 54q13 166 21 359h-104q4 -108 10 -208q-23 41 -78 58q-122 29 -166 -152q-21 99 -99 158q-59 37 -126 32q-81 -7 -154 -78q-61 -78 -61 -158
q22 -31 77.5 40t110.5 81q81 27 135 -23q60 -53 80 -168q17 -56 63 -51q37 12 32 62q0 92 51 153q51 53 112 -22q20 -42 35 -110q1 -12 2 -27zM-910 -219l-1 -1q-7 -4 -16 -6q-11 -2 -21 1q-30 9 -33 44q-2 18 8 33l3 4l5 6h1v1l2 2t2 1q8 6 17 10q20 8 41 3q11 -3 20 -10
l2 -2l7 -6q1 0 1 -1l5 -5v-1q1 0 1 -1q15 -19 17 -44q0 -1 1 -2v-4l-1 -6v-2q-1 -7 -1 -10l-1 -1q0 -3 -1 -4q0 -1 -1 -3l-1 -3l-3 -6q0 -1 -1 -3l-2 -2v-2l-1 -1l-4 -6l-9 -9l-2 -2l-4 -4l-8 -6l-9 -6l-9 -4l-1 -1h-2q-2 -1 -6 -2l-10 -3l-9 -2h-20l-7 1q-2 0 -5 1h-1
q-1 0 -3 1h-4q-1 1 -4 2q-5 2 -8 3q-1 0 -3 1t-3 2l-6 3q-1 1 -4 2q-1 1 -1 2l-5 3l-3 3q-1 0 -2 1l-1 1l-3 3l-2 2q-10 10 -18 21q-15 25 -19 51q-4 28 4 53q4 13 10 24q3 6 7 11l1 1q2 3 5 7l6 8l5 5l2 2l7 7q12 10 21 16q43 29 95 31q12 1 44 3t1.5 35t-121.5 45
q-20 -5 -38 -13q-18 -9 -36 -21q-17 -12 -32 -27q-6 -5 -14 -15l-8 -10h-1l-7 -10l-4 -6q-1 -2 -5 -8v-1q-2 -3 -5 -9l-1 -1q-1 -3 -3 -8l-1 -2q-9 -21 -14 -43q-9 -44 1 -89q2 -10 6 -21q1 -4 4 -10v-1l1 -3q2 -4 3 -7q10 -20 23 -38t30 -33q1 -1 4 -3l5 -4q1 -1 3 -2l6 -5
h1l10 -7q5 -3 8 -4l10 -5q2 -1 7 -3q2 -1 3 -1q6 -3 18 -6q3 0 4 -1q3 0 8 -1q2 -1 3 -1h1q7 -1 11 -1l10 -1h8l4 1h9l13 2l16 3v1l8 2q5 2 7 3h1l10 4l1 1l4 2l7 4q5 2 6 4h1l13 9l12 10v1l7 7l5 6h1l9 12v1l7 11q1 1 2 3l1 2q0 1 1 3q2 4 3 7l4 10q0 2 2 7q0 2 1 3
q0 3 1 9l1 1q1 7 1 20v11q0 3 -1 8v3q-6 40 -34 70q0 1 -1 1q-1 2 -2 3l-8 7l-3 3l-8 6q-1 1 -2 1l-5 3q-17 10 -35 14q-37 7 -69 -9q-15 -8 -27 -19q-1 -2 -4 -4l-2 -3q-2 -1 -2 -2l-6 -8l-5 -7v-1q-14 -27 -9 -57q3 -13 9 -24q5 -10 14 -20l5 -5l2 -1l6 -4q0 -1 1 -1l4 -3
q10 -5 19 -7q17 -4 34 1q13 4 23 12l2 2q2 1 1 1q2 2 4 3q0 1 1 2l3 3l2 4q4 5 0 11l-5 4q-7 3 -11 -2l-3 -3v-1l-1 -1l-2 -1l-2 -2z" />
    <glyph glyph-name="registered" unicode="&#xae;" horiz-adv-x="836" 
d="M635 725q-91 79 -266 95q-16 80 -110 133h376v-228zM336 682q39 30 59 45h1q182 0 233 -63q3 -4 6 -7v-146q-106 92 -357 127q19 15 58 44zM748 356q1 12 1 25q1 73 2 95q1 27 2 208q1 135 2 157q0 15 1 44q1 38 1 63h82q8 0 13 6q5 5 5 12v39q0 8 -5 13t-13 5h-853
q-8 0 -13 -5t-5 -13v-39q0 -7 5 -12q5 -6 13 -6h70q8 -44 51 -49q148 -15 182 -63q3 -5 11 -22q-3 -1 -6 -3l-187 -143q-41 -31 -18 -82q30 -37 96 -30q61 -2 149 -15q226 -26 298 -125q0 -16 1 -34q0 -14 1 -26h114z" />
    <glyph glyph-name="macron" unicode="&#xaf;" horiz-adv-x="943" 
d="M743 655q-97 146 -236 108q-19 -2 -38 -9q-21 127 -131 196q19 0 172 1q168 -2 226 -3zM860 498q1 49 2 186q1 135 2 157q0 15 1 44q1 38 1 63h90q18 0 18 18v39q0 18 -18 18h-966q-18 0 -18 -18v-39q0 -18 18 -18h81l9 -20q18 -32 60 -27q59 0 105 -11q164 -46 154 -180
q0 -5 1 -10q-11 -12 -53 -69q-52 -70 -132 -82q-34 -5 -64 19q-17 -5 -28 4q-31 33 -56 73q-19 -4 -18 -22q0 -14 9 -28q67 -97 156 -128q102 -36 190 35q21 17 70 84q40 54 82 72q53 23 113 -14q53 -32 70 -98v-48h121zM220 712l2 -2l2 -1h1v-1l2 -3q4 -4 10 -2l4 4
q3 5 0 9l-2 4l-2 2t-1 2l-4 2q1 0 0 1l-2 2q-9 7 -20 10q-14 5 -30 1q-7 -2 -16 -6l-3 -2q-1 0 -1 -1l-5 -4l-2 -1l-4 -4q-8 -8 -12 -17q-5 -9 -8 -20q-4 -26 8 -49v-1l4 -6l5 -7q0 -1 2 -2l2 -2l3 -3q10 -10 23 -17q28 -13 60 -7q15 3 30 12l5 2q1 0 2 1l6 5l3 3l7 6
q1 0 2 2v1q24 26 29 60v2q1 5 1 7v10q0 11 -1 17v1q-1 5 -1 7q-1 1 -1 3q-2 4 -2 6l-3 8q-1 3 -3 6q-1 2 -1 3v2l-2 2l-6 10v1l-8 10h-1l-4 5l-6 6v1l-10 8l-12 8h-1q-1 2 -5 3l-6 4l-4 2v0q-5 2 -9 4h-1q-2 1 -6 2l-7 2v1l-13 3l-11 1h-9l-3 1h-7l-9 -1q-3 0 -9 -1h-1h-3
q-4 -1 -6 -1q-1 -1 -4 -1q-10 -3 -15 -5q-1 0 -3 -1l-6 -3l-9 -4q-3 -1 -7 -3l-9 -6v0l-6 -5q-1 -1 -2 -1l-4 -4q-3 -2 -4 -2q-14 -13 -26 -29q-11 -15 -20 -32q-1 -3 -3 -6v-3v0q-3 -6 -4 -9q-3 -9 -5 -18q-9 -38 -1 -76q4 -19 12 -37l1 -2l3 -6v-1q4 -5 6 -8v-1q3 -5 4 -7
l3 -5l6 -8h1l7 -9q7 -8 12 -13q13 -12 27 -23q16 -10 32 -18q130 -56 236 -1q30 41 21.5 68t-85.5 0q-96 -22 -156 20q-8 5 -18 13l-6 6l-2 2l-4 4l-5 7q-3 4 -5 6l-1 1q-3 4 -6 9q-5 10 -8 21q-7 21 -4 45q4 22 16 44q8 9 17 18q0 1 1 1l3 3l1 1l1 1l3 2l4 3q0 1 1 2
q3 0 4 1l5 3l2 2h3q2 1 7 3q2 1 3 2h3q2 1 3 1h1h4l6 1h18l8 -1l8 -3q4 -1 5 -2h2l1 -1l8 -3l7 -5l7 -5l4 -4l1 -1l8 -8l4 -5v-1v-2l2 -2t1 -2l3 -5l1 -3q1 -1 1 -2q1 -1 1 -4l1 -1q0 -2 1 -8v-2v-5v-3v-2q-2 -21 -16 -38q0 -1 -1 -1v0l-4 -5q0 -1 -1 -1l-6 -5l-1 -1
q-8 -6 -18 -9q-17 -4 -35 3q-8 3 -15 8q-1 0 -2 1t-1 2v1h-1l-5 5l-2 3q-9 13 -7 28q3 30 28 38q10 3 19 1q8 -2 14 -5l1 -1v-1z" />
    <glyph glyph-name="degree" unicode="&#xb0;" horiz-adv-x="1186" 
d="M614 434q27 7 44 9l12 -306q-139 121 -390 173q169 86 334 124zM654 789v-236q-16 -5 -56 -12q-17 -2 -35 -6q-131 74 -293 114q220 117 384 140zM759 -2q8 129 13 272q1 24 3 111q1 48 1 73q81 2 219 -34l2 27q-60 82 -219 105q1 51 1 132q1 73 1 113q122 9 206 -8
l79 -12q-154 103 -283 109q1 38 1 62h401q8 0 13 6q5 5 5 12v39q0 8 -5 13t-13 5h-257q-5 1 -10 1h-794q-3 0 -5 -1h-121q-8 0 -13 -5t-5 -13v-39q0 -7 5 -12q5 -6 13 -6h653q0 -21 1 -45q-285 -49 -540 -202q-57 -35 -32 -81q22 -29 70 -34q174 -19 316 -75
q-182 -53 -356 -153q-54 -36 -29 -80q15 -26 69 -35q92 -9 209 -36q245 -56 313 -141q2 -35 4 -68h84zM916 220l-2 2l-2 1l-1 1v1l-3 3q-4 5 -11 2l-5 -4q-4 -6 0 -11l2 -4l3 -3q1 -1 1 -2q2 -1 4 -3q-1 0 1 -1l2 -2q10 -8 23 -12q17 -5 35 -1q9 2 19 7l4 3q1 0 1 1l6 4l2 1
l5 5q9 10 14 20q6 11 9 24q5 30 -9 57v1l-5 7l-6 8q0 1 -2 2l-2 3q-3 2 -4 4q-12 11 -27 19q-33 16 -70 9q-18 -4 -35 -14l-6 -3q-1 0 -2 -1l-8 -6l-3 -3l-8 -7q-1 -1 -2 -3q-1 0 -1 -1q-28 -30 -34 -70v-3q-1 -5 -1 -8v-11q0 -13 1 -20l1 -1q1 -6 1 -9q1 -1 1 -3q2 -5 2 -7
l4 -10q1 -3 3 -7q1 -2 1 -3l1 -2q1 -2 2 -3l7 -11v-1l9 -12h1l5 -6l7 -7v-1l12 -10l14 -9h1q1 -2 6 -4l7 -4l4 -2l1 -1l10 -4h1q2 -1 7 -3l8 -2v-1l16 -3l13 -2h10l4 -1h8l10 1q4 0 11 1h1q1 0 3 1q5 1 8 1q1 1 4 1q12 3 18 6q1 0 3 1q5 2 7 3l11 5q3 1 8 4l10 7h1l6 5
q2 1 3 2l5 4q3 2 4 3q17 15 30 33t24 38q1 3 3 7l1 3v1q3 6 4 10q4 11 6 21q10 45 1 89q-5 22 -14 43l-1 2q-2 5 -3 8l-1 1l-6 9v1q-4 6 -5 8l-4 6l-7 10h-1l-8 10q-8 10 -14 15q-15 15 -32 27q-19 12 -37 21q-100 50 -247 61q-61 -51 -60.5 -68.5t70.5 -40.5
q148 -4 218 -53q9 -6 21 -16l7 -7l2 -2l5 -5l6 -8q4 -4 6 -7l1 -1q4 -5 7 -11q6 -11 10 -24q8 -25 4 -53q-4 -26 -19 -51q-9 -11 -19 -21l-2 -2l-3 -3l-1 -1q-1 -1 -2 -1l-3 -3l-5 -3q0 -1 -1 -2q-3 -1 -4 -2l-6 -3q-1 -1 -3 -2t-3 -1q-3 -1 -8 -3q-3 -1 -4 -2h-4
q-2 -1 -3 -1h-1q-3 -1 -5 -1l-7 -1h-21l-9 2l-10 3q-4 1 -6 2h-2l-1 1l-9 4l-9 6l-8 6l-4 4l-2 2l-9 9l-4 6l-1 1v2l-2 2q-1 2 -1 3l-4 6l-1 3q-1 2 -1 3q-1 1 -1 4l-1 1q0 3 -1 10v2l-1 6v4q1 1 1 2q2 25 18 44q0 1 1 1v1l5 5q0 1 1 1l7 6l2 2q9 7 20 10q21 5 41 -3
q10 -4 18 -10q1 0 2 -1l2 -2v-1h1l5 -6l3 -4q10 -15 8 -33q-3 -35 -33 -44q-11 -3 -22 -1q-9 2 -16 6l-1 1zM940 624l-2 2l-2 1h-1v1l-3 3q-4 4 -10 0l-4 -4q-3 -5 1 -9l2 -4q1 0 3 -2q1 -1 1 -2q2 0 4 -2q-1 0 1 -1q1 0 2 -1q9 -6 21 -9q15 -3 31 2q8 3 16 8l3 3q1 0 1 1
l5 4l2 1l4 5q7 9 10 18q5 11 6 22q2 27 -12 50l-1 1l-5 5l-5 7q-1 1 -2 1l-2 3q-3 1 -4 3q-12 9 -26 14q-30 12 -62 3q-15 -5 -29 -16l-6 -3l-1 -1l-7 -6q-1 -1 -2 -3l-7 -6q0 -1 -1 -3q-1 0 -1 -1q-22 -29 -24 -65v-2v-7l1 -10q1 -11 3 -18h1q1 -6 1 -8q1 -1 1 -3l3 -6
l4 -8q1 -3 3 -6q1 -2 1 -3l1 -1q1 -2 2 -3l7 -9l1 -1l8 -10l1 1l5 -5q5 -4 7 -6v-1l11 -8l14 -6v0q1 -2 6 -3l6 -3l4 -2h1q5 -2 9 -3h1q2 -1 7 -2l7 -1v-1l14 -1l12 -1l9 1l3 -1l7 1l9 2q3 0 9 1l1 1q1 0 3 1q4 1 7 1q1 1 3 1q11 4 16 7l2 1q4 2 6 4l9 5q3 1 7 4l8 7h1l5 5
q2 1 2 2l4 4q3 2 4 3q13 15 23 31q10 17 18 36l2 6l1 3v1q2 5 3 9q2 10 3 19q5 40 -6 78q-7 19 -16 37l-1 2q-3 4 -4 6l-1 1q-4 5 -6 8v0q-4 5 -5 7l-4 5l-7 8h-1l-8 8q-7 8 -13 12q-15 12 -30 21q-18 9 -35 16q-92 35 -222 33q-49 -50 -47.5 -65.5t65.5 -29.5
q130 9 196 -29q8 -4 20 -12l6 -6q1 0 2 -1l5 -4l6 -7q4 -3 6 -5l1 -1q4 -4 7 -9q6 -9 11 -20q9 -22 8 -47q-2 -23 -13 -46q-7 -11 -15 -20q0 -1 -1 -2l-3 -3v-1q-1 -1 -2 -1l-2 -3l-5 -3v-2q-3 -1 -4 -2l-5 -3q0 -1 -2 -2t-3 -1q-2 -1 -7 -3l-3 -3h-3q-2 -1 -3 -1h-1
q-2 -1 -4 -1l-6 -2l-19 -2l-8 1l-9 2q-3 1 -5 1h-2l-1 1l-8 3l-9 4l-7 5l-4 3l-2 2l-9 7l-4 5l-1 1v1l-2 2q-1 2 -1 3l-4 5l-1 2q-1 2 -1 3q-1 0 -1 3l-1 1q0 2 -2 9v1l-1 6l-1 3q1 1 1 2q0 22 12 40q0 1 1 1v1l4 5q0 1 1 1l5 6l2 1q7 7 17 11q18 6 36 1q9 -3 17 -8h1l2 -2
v-1h1l5 -5l3 -3q10 -12 10 -28q0 -31 -25 -42q-10 -3 -20 -2q-8 1 -14 4h-1z" />
    <glyph glyph-name="plusminus" unicode="&#xb1;" horiz-adv-x="1382" 
d="M586 526v-6q-82 108 -321 158q190 85 318 105zM706 437q0 27 1 39q1 27 2 208q0 62 1 100q73 -1 131 -22q30 -11 43 -55q4 -53 -42 -111q-37 -47 -2 -91q63 -55 103 14q103 148 -20 270q-85 66 -211 85v11q1 38 1 63h348q18 0 18 18v39q0 18 -18 18h-1086q-18 0 -18 -18
v-39q0 -18 18 -18h605q0 -24 1 -63v-4q-26 1 -63 -2q-185 -17 -427 -155q-66 -37 -32 -93q27 -24 61 -26q293 -26 390 -112q43 -34 73 -56h123zM1240 1023l4 14q1 2 1 1l7 31q1 2 2 8q0 2 1 4q2 10 1 7q2 11 3 17v0v0v0v0v0l3 25q1 4 1 11v4l1 13q1 29 -1 58q-1 4 -2 11v4
l-2 14v1q-1 3 -2 10l-2 4v1v0q0 1 -1 4q-1 7 -2 11l-2 6q-4 15 -7 22q0 1 -2 4q-2 6 -3 10v0v0l-6 13q-2 5 -7 14l-2 4q-3 5 -5 8v1q-1 1 -3 6q-8 12 -12 17q-12 20 -32 41q-13 15 -34 33q-17 14 -31 24q-15 10 -26 16q-9 5 -17 9q-3 2 -7 3q-14 6 -20 -8q-7 -13 6 -20
q1 -1 5 -3l14 -10q9 -7 21 -17q12 -11 25 -25q16 -18 26 -32q15 -21 24 -39v0q3 -5 7 -15l3 -6q1 -3 3 -7q0 -2 1 -5q3 -7 4 -10v-1l4 -12q0 -2 1 -7q1 -4 2 -4v-1q-1 1 0 -4q8 -64 -12 -123q-34 -101 -139 -135h-520q-16 0 -16 -16v-43q0 -16 16 -16h70q0 -24 1 -59
q1 -34 1 -45q1 -21 2 -157q1 -180 2 -208q1 -23 2 -94q2 -89 3 -112q6 -142 13 -273h84v1h235v0h4q20 0 39 2q120 -7 219 54q82 66 103.5 117t23.5 50q10 39 13 79v7l1 13l-1 10v11q-1 23 -4 40q-15 85 -70 147q-28 32 -63 53q-18 11 -37 18q-21 9 -39 13q-4 1 -11 2
q-1 0 -3 1q-5 0 -7 1l-11 1q-2 0 -6 1h-3q-21 2 -42 -1q-43 -4 -81 -24q-37 -20 -65 -53q-27 -32 -41 -72q-7 -20 -10 -40l-1 -7v-4l-1 -10v0v0v-21q2 -22 8 -42q6 -21 17 -39q23 -38 59 -61q18 -11 38 -18q9 -3 20 -5q3 -1 8 -2h2h1l3 -1q5 -1 8 -1h7v0h3q4 -1 11 0
q12 0 21 2q22 4 41 14q39 21 61 60q5 9 9 19q4 11 6 21v2q1 5 1 8l1 5v1l1 4q0 11 -1 22q-5 46 -40 77q-16 14 -37 22q-20 7 -41 7h-2q-23 0 -43 -11t-33 -29t-17 -40q0 -2 -1 -4v-2v-4v-1v-1q-1 -6 0 -11q1 -12 5 -22q9 -22 28 -36q19 -13 42 -14q12 -1 13 11v7q1 5 -2 9
q-4 4 -9 5q-14 1 -24 9q-11 8 -15 21q-2 6 -2 13q-1 2 0 6v1v2v2l1 1v1v0v0q3 13 11 24q18 22 46 22v0q14 0 28 -5q13 -6 23 -16q21 -20 23 -48q1 -7 0 -13l-1 -4v-4q0 -2 -1 -5l-1 -2q-3 -14 -11 -26q-15 -25 -41 -38q-13 -6 -27 -8q-5 -1 -13 -1h-8l-7 1q-1 0 -4 1h-3
l-3 1q-3 0 -4 1q-9 2 -14 4q-14 6 -26 14q-24 16 -38 42t-15 55q-1 6 0 14l1 8v2l1 5q3 15 8 29q22 57 78 85q26 13 56 15q14 1 28 0l4 -1h4l8 -2v0h4l3 -1h1q4 -1 6 -2v0v0q60 -15 99 -63q39 -47 49 -110q2 -13 2 -30v-8v-8v-8v-3q-1 -4 -1 -5q-3 -32 -12 -61
q-35 -88 -124 -124q-87 -24 -150 -23q-15 -1 -32 -1h-8h-17h-15l-9 1q-5 0 -15 2v0q-12 1 -65 6q-60 10 -100 32q3 66 5 132q1 23 3 111q2 74 2 95q1 27 3 208q1 136 1 157q1 20 2 45q1 34 1 59h675q16 0 16 16v43q0 16 -16 16h-149z" />
    <glyph glyph-name="uni00B2" unicode="&#xb2;" horiz-adv-x="1465" 
d="M229 948h279q6 -127 89 -225q81 -95 204 -128q1 -94 1 -116q1 -22 2 -94v-4q0 -2 1 -3q-18 25 -38 45q-30 32 -63 57q-37 28 -75 45q-56 27 -115 34q-19 80 -69 138q-52 62 -129 87q-11 95 -87 164zM798 844q1 -24 2 -158v-6v-6q-147 10 -183 122q-20 62 -16 118
q5 23 -15 34h210q0 -23 1 -60q1 -26 1 -44zM795 14q-2 -2 -7 -5l-10 -8q-2 -2 -3 -2l-11 -10q-1 -1 -2 -1v-1l-4 -3q-7 -8 -11 -11q-23 -24 -40 -52q-73 -117 -31 -249q10 -31 26 -59l3 -4q4 -7 6 -10l5 -7q2 -4 4 -6l7 -10h1l9 -11v-1l15 -15l2 -2h1l9 -8q7 -6 23 -17l3 -2
q2 -2 6 -4l11 -5q8 -5 12 -7l15 -6q4 -1 11 -3q6 -2 5 -2l7 -2q1 -1 1 0q1 -1 5 -2l6 -1q8 -2 12 -2l16 -2h3q3 -1 5 -1h8q28 -1 62 7h1l18 5q0 1 1 1l21 8l21 11l2 1l16 11q4 2 5 4l16 12l6 6q7 7 19 21l2 2v1l10 15q0 1 1 1l8 16q1 0 1 1l7 17l1 5q3 8 4 13l3 15
q5 29 1 58q-4 28 -15 54q-1 1 -3 5q-7 13 -11 20l-5 6q-1 2 -1 3l-10 12l-2 2l-7 7l-8 8q-2 1 -3 2l-1 1q-3 2 -4 3h-1l-5 4q-8 5 -12 7q-23 13 -49 17q-25 4 -49 0q-23 -3 -46 -15l-7 -3q0 -1 -1 -1l-12 -8q-2 -1 -5 -4l-3 -2l-4 -4h-1l-3 -4q-16 -16 -26 -36
q-8 -19 -10 -39q-4 -38 14 -71q1 -3 5 -8l1 -2q2 -3 4 -5l5 -7l1 -1l3 -3q3 -4 10 -9l2 -1l1 -1l1 -1q7 -4 11 -6q3 -2 9 -4q2 -1 3 -2h1l5 -1q4 -2 7 -2l6 -1l6 -1h11q19 1 36 8l4 2q1 1 2 1l1 1q3 2 5 3l6 4l7 5q6 6 1 12l-6 9q-5 6 -12 1l-6 -3l-5 -4h-1l-2 -1
q-1 0 -3 -1q-1 -1 -2 -1q-12 -4 -24 -4q-1 0 -3 1h-5l-4 1l-4 1q-2 0 -4 1l-4 2q-1 0 -2 1q-4 2 -5 3h-1q-16 10 -25 31q-11 22 -6 47q2 13 8 24q7 12 17 21l3 2l3 2q1 0 3 2t4 3q3 1 6 3l7 3q15 7 29 8q11 1 21 -1q23 -2 41 -14v-1q2 -1 5 -3l5 -4l1 -1l1 -1q1 -1 3 -2
q2 -3 3 -4l5 -5l8 -12q1 -2 1 -1l2 -4v-1q2 -3 5 -10l2 -5q7 -17 8 -35q1 -19 -3 -37l-2 -9l-4 -11l-6 -11l-6 -10l-7 -9q-1 -2 -3 -3q-6 -7 -10 -10l-4 -3l-13 -10h-1q0 -1 -2 -1l-1 -1l-8 -5h-1q-1 -1 -1 0l-14 -7l-14 -4l-13 -3q-23 -4 -40 -2h-8l-2 1l-10 1l-15 4l-5 2
q-1 0 -4 1q-3 2 -5 2l-10 5q-2 1 -6 4l-8 4q-2 1 -2 2q-1 1 -5 3q-8 6 -11 10l-6 5l-1 1l-9 11l-5 6l-6 9q-1 1 -2 3l-4 6q-1 2 -3 5q-1 3 -2 4q-9 19 -15 40q-11 43 -2 83q4 21 12 40q8 18 20 35q12 16 27 30q2 1 7 5l2 2l12 9q1 0 1 1l7 5l4 2q35 22 74 32q49 12 100 7
q27 -4 53 -12q17 -6 34 -14q17 -9 31 -18q17 -12 27 -22q3 -2 8 -7l5 -5l1 -1l14 -16l2 -2l1 -1l10 -13l10 -13q3 -5 5 -7l9 -14q15 -27 27 -55q29 -73 42 -255q6 -16 17 -19q10 -3 16 10q9 20 20 419q12 176 20 379q1 24 3 110q2 71 2 92q1 26 3 204q1 132 1 154q1 17 1 43
q1 39 2 62h81q17 0 17 17v39q0 17 -17 17h-1492q-8 0 -13 -5t-5 -13v-39q0 -7 5 -13q5 -5 13 -5h97q11 -7 23 -7q5 -1 19 -4q29 -5 53 -16q38 -16 51 -52q10 -27 7 -71q-74 1 -124 -46q-50 -48 -50 -122q2 -42 25 -74q26 -24 52 -12q14 3 18 23q0 108 115 134
q131 29 150 -141l-14 -2q-26 -4 -44 -9l-5 -2l-9 -3l-9 -3l-10 -4q-3 -1 -8 -3l-3 -1q-23 -11 -41 -23q-80 -54 -114 -143q-8 -23 -13 -44q-5 -25 -6 -46q-3 -46 8 -90l1 -5q1 0 1 -2l3 -9q0 -1 1 -3l1 -3q3 -10 9 -23q10 -21 23 -40q27 -38 66 -64q63 -43 140 -43
q15 0 28 2q23 2 42 8l4 1l6 2l10 4l6 2l5 2q2 1 7 4l3 1q38 21 65 54q54 67 45 149q-2 19 -7 37l-1 4q-1 2 -1 3l-4 10q-1 3 -4 9q-1 3 -3 7l-1 2q-18 32 -48 55q-57 42 -124 30q-15 -3 -29 -8l-7 -3q-2 0 -5 -2l-2 -1q-3 -1 -7 -3l-1 -1q-4 -2 -5 -3q-24 -16 -39 -40
q-27 -43 -17 -91q1 -6 2 -10q1 -1 2 -4l1 -3v-1l3 -7l1 -3q2 -5 5 -9q9 -15 23 -26q23 -17 49 -20q17 -1 32 3q5 1 8 2l2 1q3 1 2 4l-2 11q-1 3 -4 2h-9q-13 -1 -23 3q-19 6 -31 20q-7 8 -11 18l-2 6v3q-1 0 -1 2v1q-1 7 -1 13q-1 14 4 27t14 24q11 12 24 18q4 2 7 3h2
q1 1 2 1l4 1q8 2 17 2q18 0 34 -6t30 -18q14 -13 20 -30q1 -1 1 -2q1 -1 1 -2v-1q1 -2 1 -3l2 -5v-2l1 -3q1 -10 1 -21q0 -20 -7 -40q-8 -20 -23 -36q-14 -16 -34 -24q-1 -1 -2 -1q-2 -1 -3 -1l-3 -1q-1 -1 -2 -1l-10 -3h-1q-10 -2 -24 -3q-50 -3 -92 26q-20 15 -35 36
q-7 11 -12 22q-3 6 -5 11v1q0 1 -1 1l-2 8l-1 3q-15 57 4 112q4 14 11 27q8 14 15 25q9 12 19 23q11 10 23 19q10 8 25 16q1 1 3 2l4 2l7 3q1 1 3 2q2 0 3 1l3 1l5 2q11 4 31 8q19 4 32 5q14 1 33 0l12 -1l13 -1l8 -2q31 -5 64 -19q30 -13 60 -33q28 -20 54 -45
q24 -25 45 -54q6 -8 10 -14l7 -11l2 -4q6 -10 16 -29q18 -43 27 -96q3 -65 6 -126q-12 -7 -23 -15zM1272 888q0 -26 1 -43q0 -22 1 -155q2 -176 3 -203q0 -21 2 -92q1 -86 2 -110q9 -208 21 -388l-11 18q-1 2 -2 3l-13 20h-1q0 1 -1 2l-4 4q-8 11 -12 15q-14 17 -36 35
q-18 16 -42 31q-22 14 -48 25q-25 10 -53 17q-27 7 -56 9q-56 5 -114 -9q5 100 9 206q1 24 3 111q1 73 2 95q1 19 1 87h2q14 -2 34 -5q58 -11 100 -36q118 -69 -5 -334q-4 -8 -4 -16q-2 -41 27 -63q19 -12 45 -8q19 4 29 24q129 276 -66 441q-67 56 -161 79v39q2 134 2 157
q1 16 1 44q1 37 2 60h340q0 -23 2 -60z" />
    <glyph glyph-name="uni00B3" unicode="&#xb3;" horiz-adv-x="1131" 
d="M666 526v-6q-142 108 -381 158q190 85 378 105zM894 395q-3 4 -9 11q-1 3 -2 4h-1l-3 4l-9 12q-4 5 -15 14l-3 3q-8 6 -12 11q-5 3 -14 9l-3 2l-3 2q-10 7 -15 10q-21 12 -39 18q-21 8 -43 13q-21 4 -45 5t-47 -2q-10 -2 -22 -4l-15 -4l-13 -4l-7 -3q-4 -1 -10 -3h-1
q-4 -2 -11 -6h-1q-3 -2 -8 -5h-2q-23 -13 -42 -28q-36 -33 -57 -77q-4 -11 -9 -23q-2 -4 -4 -10v-4q-1 -5 -2 -9q-5 -23 -5 -47t5 -46q0 -2 1 -6l1 -7q0 -1 1 -4l3 -9l5 -11q3 -7 5 -10l5 -9q2 -4 4 -9l3 -2q3 -6 11 -16q2 -3 3 -4q3 -2 7 -5l2 -4l1 -1q5 -5 9 -7l9 -8
q2 -2 6 -4q3 -2 4 -2l5 -4q1 -1 4 -2l12 -7l17 -7h1l7 -3q7 -1 9 -2h1q6 -2 11 -3l2 -1q3 0 4 -1l9 -1q5 0 9 -1h19l17 1q4 1 11 2l8 2h1l16 4v1l15 5q1 1 3 2l1 1q2 1 5 1q4 2 7 3l10 8q2 1 6 4q3 2 2 2q3 2 9 8l1 1q5 4 13 15l1 1l7 9q2 2 4 7q2 2 2 3q23 38 17 83
q0 3 -1 4l-2 11q0 4 -1 5l-3 8q0 2 -1 4v1l-2 5q-8 19 -23 34q-27 30 -67 36q-19 3 -36 1q-2 0 -7 -1h-3q-2 -1 -4 -1l-9 -3h-1l-9 -3h-1q-31 -14 -45 -44q-7 -13 -9 -27q-2 -11 -1 -26l2 -6v-4l3 -7l2 -5q6 -12 13 -20q13 -13 31 -21q15 -4 28 -4h4q1 1 1 0q3 1 5 1l2 1
q4 0 5 1l5 1q6 2 5 9l-3 8q-1 7 -8 4l-5 -1h-10q-10 0 -18 5q-12 6 -17 15q-23 27 -1 58q9 17 27 24l6 1l9 2h2q1 0 2 1h2q12 0 24 -3q23 -6 37 -25q7 -9 11 -19l1 -4l2 -9v-1l1 -1v-10q1 -26 -13 -48q-1 -2 -2 -3q-1 -2 -2 -3l-4 -5q-1 -1 -3 -2q-4 -5 -7 -8l-1 -1
q-2 -2 -4 -3h-2q-4 -2 -4 -3l-7 -3q-1 -1 -3 -1l-2 -2h-1l-1 -1l-9 -3l-14 -2h-3l-7 -1h-10l-12 1l-11 2h-2q-5 1 -8 3l-10 4l-10 5l-6 3l-1 1l-3 1l-3 3l-2 2q-2 2 -2 3l-6 4q-1 1 -5 4l-1 1q0 1 -2 2q-2 3 -2 4q-1 0 -3 3q-4 5 -4 8q0 1 -2 2q-2 3 -2 4l-3 7l-1 1l-1 3
q-1 1 -1 2l-2 7l-1 4v1l-1 2v1l-1 5v2q-2 15 -2 28q2 16 6 31q4 14 11 27q16 26 39 42q12 10 24 14q7 3 13 6h2q3 1 6 3l3 1h1l10 2l7 1h5q6 1 10 2q18 1 29 0q56 -2 103 -32q48 -35 61 -101q16 -99 -48 -163q-72 -70 -190 -68q-133 1 -233 47q-99 44 -189 167
q-36 51 -71 59q-19 5 -18 -15q1 -13 11 -27q111 -177 310 -276q90 -46 208 -51q95 -5 181 24q89 30 130 115q57 112 7 231q-19 42 -41 76zM786 437q0 27 1 39q1 27 2 208q0 62 1 100q73 -1 131 -22q30 -11 43 -55q8 -64 -30 -134q-41 -58 -9 -98q58 -65 98 4q95 177 -28 299
q-77 77 -203 96v11q1 38 1 63h348q18 0 18 18v39q0 18 -18 18h-1146q-18 0 -18 -18v-39q0 -18 18 -18h665q0 -24 1 -63v-4q-26 1 -63 -2q-245 -17 -487 -155q-66 -37 -32 -93q27 -24 61 -26q293 -26 450 -112q43 -34 73 -56h123z" />
    <glyph glyph-name="acute" unicode="&#xb4;" horiz-adv-x="1246" 
d="M1062 236q-157 204 -353 200v332q62 -4 112 -24q86 -35 42 -203q-19 -52 30 -87q53 -27 67 10q37 142 -37 254q-72 109 -214 138v102h353v-722zM613 756l3 -305q-152 121 -373 171q143 77 304 118q44 12 66 16zM1088 1015q-12 4 -19 0h-1035l13 -39q36 -18 64 -18h502
v-94q-29 -3 -84 -13q-250 -49 -429 -171q-56 -34 -32 -83q19 -32 74 -44q257 -23 429 -153q-76 -33 -124 -171q14 -85 53.5 -83t43.5 67q31 74 109 109q112 36 230 -5q121 -42 192 -259v-13q16 -32 36 -29q18 14 24 53l25 889q129 57 101 57h-173zM706 110l-1 -1
q-8 -5 -18 -7q-13 -2 -24 1q-34 10 -37 49q-2 21 9 38l3 4l6 7h1v1l2 2t3 1q9 7 19 12q22 9 46 3q12 -3 22 -11l2 -3l8 -6q1 0 1 -1l6 -6v-1q1 0 1 -1q17 -22 19 -50q0 -1 1 -2v-4l-1 -7v-2q-1 -8 -1 -12l-1 -1q0 -3 -1 -4q0 -1 -1 -4l-1 -3l-4 -7q0 -1 -1 -3l-2 -2v-3
l-1 -1l-5 -7l-10 -10l-2 -2l-5 -4l-9 -7l-10 -7l-10 -4l-1 -1h-2q-2 -2 -7 -3l-11 -3l-10 -2h-23l-8 1q-2 0 -5 1h-1q-1 0 -4 1h-4q-1 1 -5 2q-5 3 -9 4q-1 0 -3 1t-3 2l-7 3q-1 1 -5 3q-1 1 -1 2l-5 3l-4 4q-1 0 -2 1l-1 1l-4 3l-2 2q-11 12 -20 24q-17 28 -21 57
q-5 32 4 60q5 15 11 27q4 7 8 12l1 1l6 8l7 9l5 6q1 1 3 2q5 6 7 8q14 11 24 18q48 33 107 35q13 1 49 3t2 39.5t-137 50.5q-22 -6 -42 -15q-21 -10 -41 -23q-19 -14 -36 -31q-6 -5 -15 -16l-9 -12h-2l-7 -11l-5 -7q-1 -2 -6 -9v-1q-2 -3 -5 -10l-1 -1q-1 -3 -4 -9l-1 -2
q-10 -24 -15 -48q-11 -50 1 -100q2 -12 6 -24q2 -5 5 -11v-1l1 -4q2 -4 3 -8q12 -22 26 -42q15 -21 34 -37q1 -2 4 -4l6 -4l3 -3l7 -5h1l12 -8q5 -3 8 -5l12 -5l8 -4q2 -1 3 -1q7 -3 20 -6q4 0 5 -2q3 0 9 -1q2 -1 3 -1h1q8 -1 13 -1l11 -1h9l4 1h10l15 2l18 4v1l9 2
q6 2 8 3h1q6 3 11 5l1 1q3 1 5 2l8 5q5 2 6 4h1l15 10l14 12v1q2 2 7 8l6 6h1l10 14v1l8 12q1 1 2 4l2 2q0 1 1 3q2 5 3 8l5 11q0 3 2 8q0 3 1 4q0 3 1 10l1 1q1 8 1 22v13q0 3 -1 9v3q-7 45 -38 79q0 1 -1 1q-1 2 -2 3l-9 8q-3 2 -4 3l-9 7q-1 1 -2 1l-6 4q-19 11 -39 15
q-42 8 -77 -10q-17 -9 -31 -21q-1 -2 -4 -4l-3 -4q-2 -1 -2 -2l-7 -9l-5 -8v-1q-16 -30 -10 -64q3 -15 10 -27q5 -11 16 -23l5 -5l2 -1l7 -5q0 -1 1 -1l5 -3q11 -6 21 -8q19 -5 38 1q15 4 26 13q1 2 2 3q3 1 2 1q2 2 4 3q0 1 1 2q2 3 4 4l2 4q4 6 0 13l-6 4q-8 4 -12 -2
l-4 -3v-2l-1 -1l-2 -1l-2 -2zM599 948q0 -24 1 -63q1 -26 2 -44q0 -22 1 -158q2 -180 3 -207q0 -21 2 -90h116q1 69 2 90q1 27 2 208q1 135 2 157q0 15 1 44q1 38 1 63h308q0 -24 1 -63q1 -26 2 -44q0 -22 1 -158q2 -180 3 -207q0 -22 2 -94q2 -88 3 -112q9 -235 23 -431
q2 -19 4 -54l2 -15q2 -36 4 -51q3 -35 4 -43q1 -5 4 -8q4 -3 8 -3h11q5 0 8 3q4 3 4 8q1 8 4 43q2 15 5 51l1 15q3 34 4 54q15 196 24 431q1 24 3 111q1 73 2 95q1 27 2 208q1 135 2 157q0 15 1 44q1 38 1 63h82q8 0 13 6q5 5 5 12v39q0 8 -5 13t-13 5h-1259q-8 0 -13 -5
t-5 -13v-39q0 -7 5 -12q5 -6 13 -6h603z" />
    <glyph glyph-name="mu" unicode="&#xb5;" horiz-adv-x="1259" 
d="M658 77q-10 4 -18 8q-47 20 -98 37q-24 8 -49 15q-29 8 -51 13q-26 6 -51 11q-22 4 -51 8q-25 4 -51 6q-22 2 -51 4q-22 1 -51 1q-29 -1 -51 -2q-8 -1 -21 -2h-6q-2 0 -8 -1q-10 -1 -16 -2q-19 -2 -51 -7h-1q-34 -6 -50 -10q-24 -6 -49 -13q-7 -2 -6 -10l2 -11q1 -8 8 -7
l10 1q27 1 39 2q25 1 49 1q28 0 49 -1q23 -1 50 -3q15 -1 44 -5h4q24 -3 48 -7q29 -5 49 -9l1 -1q31 -7 46 -10q50 -13 94 -28q49 -16 92 -34q47 -20 89 -42q22 -11 44 -23v0q1 0 1 -1h88q2 31 9 229h-88q1 -17 2 -55q1 -34 1 -51zM258 561q-4 1 -9 3l-5 1q-8 4 -24 8
q248 142 411 171v-63q2 -178 3 -206q1 -21 2 -93q1 -56 2 -76q-6 8 -11 16q-134 167 -369 239zM-4 1022q-8 0 -13 -5q-5 -6 -5 -13v-39q0 -7 5 -13q5 -5 13 -5h631q1 -26 2 -65v-14q-14 -4 -36 -9q-22 -6 -53 -16q-262 -72 -480 -264q-12 -13 -14 -30q-4 -23 10 -42t37 -23
l25 -4l24 -4q347 -72 465 -286q22 -43 35 -90q3 -9 5 -19q3 -44 5 -81h9v0h68v0h7q8 133 13 271q1 11 1 33l5 269q1 21 1 109q1 39 1 85q72 4 132 -5l14 -3l7 -1q13 -3 25 -6q53 -14 92 -40q43 -27 70 -68q27 -42 33 -92q4 -25 2 -50q0 -1 -1 -2v-2l-1 -8l-1 -6l-1 -7
q-3 -14 -6 -23q-16 -49 -52 -80q-38 -32 -86 -36h-6v0h-2h-3h-6h-5h-2q-12 1 -23 4q-22 5 -41 19q-40 29 -49 77q-3 11 -3 23v4v2l1 6q0 7 1 11q5 22 19 41q15 18 36 28q10 5 22 7q5 1 12 2h3h5h3h5v0h1q2 -1 5 -1q7 -1 11 -3q11 -3 20 -10q19 -13 27 -35q3 -6 4 -11
q1 -6 2 -11v-1v-5v-6q-1 -5 -2 -11q-5 -22 -25 -35q-9 -6 -20 -9q-11 -2 -23 -1q-23 4 -34 25q-5 9 -6 21v5v1q1 3 1 5q1 5 4 10q5 9 15 15q10 5 21 4q9 0 9 8l1 9q1 8 -7 9q-19 3 -37 -5q-17 -9 -28 -25q-5 -8 -8 -18q-1 -4 -2 -10v-1v-3v-1v-3q-1 -19 7 -37q8 -17 23 -29
t35 -16q18 -4 36 -1q19 3 35 13q34 20 46 58l4 18v4v0v5q1 3 1 7v2q-1 18 -7 36q-12 36 -42 60q-14 12 -32 18q-7 3 -18 6q-6 1 -9 2h-2h-1l-5 1h-4h-6h-3h-6q-11 0 -18 -1q-19 -3 -35 -10q-35 -13 -60 -41q-12 -15 -21 -31q-8 -16 -13 -34q-2 -8 -4 -19l-1 -8v-3v-6
q-1 -18 2 -36q5 -36 23 -68q19 -32 47 -55q29 -23 65 -34q18 -5 36 -7l3 -1h5l9 -1h7h3h8q17 1 36 5q18 3 35 10q33 12 62 35q56 44 82 114q6 14 11 34l2 8l1 8l2 12q0 4 1 6q4 35 1 69q-3 36 -13 68q-10 33 -28 64q-34 62 -93 104q-54 40 -123 60q-16 4 -33 8l-8 1l-16 3
l-17 2l-9 1q-6 1 -17 1q-44 5 -105 5v10q1 34 2 58h493q7 0 13 5q5 6 5 13v39q0 7 -5 13q-6 5 -13 5h-1258z" />
    <glyph glyph-name="paragraph" unicode="&#xb6;" horiz-adv-x="1257" 
d="M219 948h279q6 -127 89 -225q81 -95 204 -128q1 -94 1 -116q1 -22 2 -94v-4q0 -2 1 -3q-18 25 -38 45q-30 32 -63 57q-37 28 -75 45q-56 27 -115 34q-19 80 -69 138q-52 62 -129 87q-11 95 -87 164zM788 844q1 -24 2 -158v-6v-6q-147 10 -183 122q-20 62 -16 118
q5 23 -15 34h210q0 -23 1 -60q1 -26 1 -44zM915 648v39q2 134 2 157q1 16 1 44q1 37 2 60h354q8 0 13 5q5 6 5 13v39q0 8 -5 13t-13 5h-1294q-8 0 -13 -5t-5 -13v-39q0 -7 5 -13q5 -5 13 -5h97q11 -7 23 -7q5 -1 19 -4q29 -5 53 -16q38 -16 51 -52q10 -27 7 -71
q-74 1 -124 -46q-50 -48 -50 -122q2 -42 25 -74q26 -24 52 -12q14 3 18 23q0 108 115 134q131 29 150 -141l-14 -2q-26 -4 -44 -9l-5 -2l-9 -3l-9 -3l-10 -4q-3 -1 -8 -3l-3 -1q-23 -11 -41 -23q-80 -54 -114 -143q-8 -23 -13 -44q-5 -25 -6 -46q-3 -46 8 -90l1 -5q1 0 1 -2
l3 -9q0 -1 1 -3l1 -3q3 -10 9 -23q10 -21 23 -40q27 -38 66 -64q63 -43 140 -43q15 0 28 2q23 2 42 8l4 1l6 2l10 4l6 2l5 2q2 1 7 4l3 1q38 21 65 54q54 67 45 149q-2 19 -7 37l-1 4q-1 2 -1 3l-4 10q-1 3 -4 9v0q-1 3 -3 7l-1 2q-18 32 -48 55q-57 42 -124 30
q-15 -3 -29 -8l-7 -3q-2 0 -5 -2l-2 -1q-3 -1 -7 -3l-1 -1q-4 -2 -5 -3q-24 -16 -39 -40q-27 -43 -17 -91q1 -6 2 -10q1 -1 2 -4l1 -3v-1l3 -7l1 -3q2 -5 5 -9q9 -15 23 -26q23 -17 49 -20q17 -1 32 3q5 1 8 2l2 1q3 1 2 4l-2 11q-1 3 -4 2h-3h-6q-13 -1 -23 3q-19 6 -31 20
q-7 8 -11 18l-2 6v1v2q-1 0 -1 2v1q-1 7 -1 13q-1 14 4 27t14 24q11 12 24 18q4 2 7 3h2q1 1 2 1l4 1q8 2 17 2q18 0 34 -6t30 -18q14 -13 20 -30q1 -1 1 -2q1 -1 1 -2v-1q1 -2 1 -3l2 -5v-2v0l1 -3q1 -10 1 -21q0 -20 -7 -40q-8 -20 -23 -36q-14 -16 -34 -24q-1 -1 -2 -1
q-2 -1 -3 -1l-3 -1q-1 -1 -2 -1l-10 -3v0v0h-1q-10 -2 -24 -3q-50 -3 -92 26q-20 15 -35 36q-7 11 -12 22q-3 6 -5 11v1q0 1 -1 1l-2 8v0l-1 3q-15 57 4 112q4 14 11 27q8 14 15 25q9 12 19 23q11 10 23 19q10 8 25 16q1 1 3 2l4 2l7 3q1 1 3 2q2 0 3 1l3 1l5 2q11 4 31 8
q19 4 32 5q14 1 33 0l12 -1l13 -1l8 -2q31 -5 64 -19q30 -13 60 -33q28 -20 54 -45q24 -25 45 -54q6 -8 10 -14l7 -11l2 -4q6 -10 16 -29q18 -43 27 -96q4 -80 8 -155h85q8 132 13 273q1 24 3 111q1 73 2 95q1 19 1 87h2q14 -2 34 -5q58 -11 100 -36q118 -69 -5 -334
q-4 -8 -4 -16q-2 -41 27 -63q19 -12 45 -8q19 4 29 24q129 276 -66 441q-67 56 -161 79z" />
    <glyph glyph-name="periodcentered" unicode="&#xb7;" horiz-adv-x="1233" 
d="M578 752l3 -274q-112 100 -332 149q179 89 329 125zM1036 341q-67 94 -141 130q-89 44 -173 -4q-19 -10 -22 -12q3 321 2 320q19 4 76 -10q58 -14 72 -61q12 -35 -1 -103q-16 -43 34 -74q60 -45 71 54q0 97 -63 172q-75 95 -188 115l1 83l316 2zM506 848
q-224 -56 -448 -192q-38 -20 -15 -63q18 -29 89 -30q89 -8 200 -37q184 -48 251 -126v-18q1 -46 2 -75q-30 -45 -41 -62q-46 -64 -114 -93q-117 -28 -189 36l-69 -66q104 -100 252 -94q106 7 205 127q29 28 82 110q46 73 87 104q80 61 154 -12q60 -60 83 -160h1l3 -8
q4 -98 9 -189h85q8 128 13 270q1 24 3 111q1 73 2 95q1 27 2 208q1 135 2 157q0 15 1 44q1 38 1 63h72q8 0 13 6q5 5 5 12v39q0 8 -5 13t-13 5h-1242q-8 0 -13 -5t-5 -13v-39q0 -7 5 -12q5 -6 13 -6h587q0 -24 1 -63q0 -11 1 -20q-24 -5 -70 -17zM346 338l2 -2l2 -1l1 -1v-1
l3 -3q4 -5 11 -2l5 4q4 6 0 11l-2 4l-3 3q-1 1 -1 2q-2 1 -4 3q1 0 -1 1l-2 2q-10 8 -23 12q-17 5 -35 1q-9 -2 -19 -7l-4 -3q-1 0 -1 -1l-6 -4l-2 -1l-5 -5q-9 -10 -14 -20q-6 -11 -9 -24q-5 -30 9 -57v-1l5 -7l6 -8q0 -1 2 -2l2 -3q3 -2 4 -4q12 -11 27 -19q33 -16 70 -9
q18 4 35 14l6 3q1 0 2 1l8 6l3 3l8 7q1 1 2 3q1 0 1 1q28 30 34 70v3q1 5 1 8v11q0 13 -1 20l-1 1q-1 6 -1 9q-1 1 -1 3q-2 5 -2 7l-4 10q-1 3 -3 7q-1 2 -1 3l-1 2q-1 2 -2 3l-7 11v1l-9 12h-1l-5 6l-7 7v1l-12 10l-14 9h-1q-1 2 -6 4l-7 4l-4 2l-1 1l-10 4h-1q-2 1 -7 3
l-8 2v1l-16 3l-13 2h-10l-4 1h-8l-10 -1q-4 0 -11 -1h-1q-1 0 -3 -1q-5 -1 -8 -1q-1 -1 -4 -1q-12 -3 -18 -6q-1 0 -3 -1q-5 -2 -7 -3l-11 -5q-3 -1 -8 -4l-10 -7h-1l-6 -5q-2 -1 -3 -2l-5 -4q-3 -2 -4 -3q-17 -15 -30 -33t-24 -38q-1 -3 -3 -7l-1 -3v-1q-3 -6 -4 -10
q-4 -11 -6 -21q-10 -45 -1 -89q5 -22 14 -43l1 -2q2 -5 3 -8l1 -1l6 -9v-1q4 -6 5 -8l4 -6l7 -10h1l8 -10q8 -10 14 -15q15 -15 32 -27q19 -12 37 -21q100 -50 221 -2q90 49 80 80.5t-100 -0.5q-112 -26 -182 23q-9 6 -21 16l-7 7l-2 2l-5 5l-6 8q-4 4 -6 7l-1 1q-4 5 -7 11
q-6 11 -10 24q-8 25 -4 53q4 26 19 51q9 11 19 21l2 2l3 3l1 1q1 1 2 1l3 3l5 3q0 1 1 2q3 1 4 2l6 3q1 1 3 2t3 1q3 1 8 3q3 1 4 2h4q2 1 3 1h1q3 1 5 1l7 1h21l9 -2l10 -3q4 -1 6 -2h2l1 -1l9 -4l9 -6l8 -6l4 -4l2 -2l9 -9l4 -6l1 -1v-2l2 -2q1 -2 1 -3l4 -6l1 -3
q1 -2 1 -3q1 -1 1 -4l1 -1q0 -3 1 -10v-2l1 -6v-4q-1 -1 -1 -2q-2 -25 -18 -44q0 -1 -1 -1v-1l-5 -5q0 -1 -1 -1l-7 -6l-2 -2q-9 -7 -20 -10q-21 -5 -41 3q-10 4 -18 10q-1 0 -2 1l-2 2v1h-1l-5 6l-3 4q-10 15 -8 33q3 35 33 44q11 3 22 1q9 -2 16 -6l1 -1z" />
    <glyph glyph-name="cedilla" unicode="&#xb8;" horiz-adv-x="890" 
d="M763 960l126 62h-176q-5 0 -8 -2q-5 -29 -3 -62l-16 -139q-69 110 -179 168q-169 78 -316 -14q-144 -80 -161 -244q-4 -51 19 -78q22 -29 68 -9q51 21 113 34q71 14 112 -17q45 -38 24 -127q-35 -113 -224 -210q-51 -32 -9 -84q46 -43 111 -13q107 69 170 155
q76 105 40 207q-33 94 -116 140q-77 42 -177 34q28 96 130 149q93 42 199 1q107 -35 159 -170q28 -73 39 -257l36 -6q26 52 39 482zM789 0q8 128 13 270q1 24 3 111q1 73 2 95q1 27 2 208q1 135 2 157q0 15 1 44q1 38 1 63h82q8 0 13 6q5 5 5 12v39q0 8 -5 13t-13 5h-198
q-8 0 -13 -5t-5 -13l1 -57q0 -24 1 -63q1 -26 2 -44q0 -22 1 -158q2 -180 3 -207q0 -22 2 -94q2 -88 3 -112q5 -142 13 -270h84zM436 -235q-5 69 36 111t119 43q54 -6 104 -31q0 -1 1 -1q-6 -204 -101 -232q-139 -22 -159 110zM1321 -360q-165 -27 -289 98
q-103 106 -160 168q-49 47 -86 68q0 -1 3 74l-86 2l2 -45q-177 62 -309 -41q-110 -98 -80 -220q21 -98 107.5 -145.5t185.5 -23.5q135 34 163 217l1 17q3 27 4 39q27 -13 58 -49q41 -48 113 -100q213 -144 373 -94q27 6 24 26q-2 13 -24 9z" />
    <glyph glyph-name="uni00B9" unicode="&#xb9;" horiz-adv-x="1284" 
d="M1072 948q0 -24 1 -63q1 -26 2 -44q0 -20 1 -131q-45 63 -125 105q-132 61 -250 10q1 11 1 16q0 15 1 44q1 38 1 63h368zM507 575q-4 -47 18 -72q20 -27 63 -9q47 20 105 32q66 13 104 -16q42 -35 23 -118q-33 -105 -209 -196q-47 -29 -8 -78q43 -40 103 -12
q100 64 158 144q71 98 38 193q-31 88 -108 130q-72 40 -165 32q26 89 121 139q86 39 185 1q116 -66 143 -225q1 -34 1 -44q0 -22 2 -94q2 -88 3 -112q9 -235 23 -431q2 -19 4 -54l2 -15q2 -36 4 -51q3 -35 4 -43q1 -5 4 -8q4 -3 8 -3h11q5 0 8 3q4 3 4 8q1 8 4 43q2 15 5 51
l1 15q3 34 4 54q15 196 24 431q1 24 3 111q1 73 2 95q1 27 2 208q1 135 2 157q0 15 1 44q1 38 1 63h92q8 0 13 6q5 5 5 12v39q0 8 -5 13t-13 5h-709q-8 0 -13 -5t-5 -13l1 -57q0 -20 1 -49q-8 9 -17 17q-99 98 -230 107q-114 8 -194 -63q-79 -71 -82 -183q-4 -46 22 -77
q32 -23 66 -9q36 15 86 23q35 5 74 -3q42 -27 12 -121q-28 -75 -128 -125q-65 -40 -22 -86q43 -47 103 -10q59 28 109 102q60 88 29 177q-26 76 -89 119q-60 41 -137 42q37 75 109 104q67 27 139 13q75 -15 113 -83q25 -43 40 -106q-58 -65 -68 -162z" />
    <glyph glyph-name="ordmasculine" unicode="&#xba;" horiz-adv-x="1291" 
d="M544 916q-99 98 -230 107q-114 8 -194 -63q-79 -71 -82 -183q-4 -46 22 -77q32 -23 66 -9q36 15 86 23q35 5 74 -3q42 -27 12 -121q-28 -75 -128 -125q-65 -40 -22 -86q43 -47 103 -10q59 28 109 102q60 88 29 177q-26 76 -89 119q-60 41 -137 42q37 75 109 104
q67 27 139 13q75 -15 113 -83q43 -74 56 -206q1 -110 2 -131q0 -13 1 -36v-50q-1 -78 30 -98q37 -25 74 4q228 257 369 296q-104 -338 76 -674q12 -41 37 -44q30 1 23 30q-94 219 -82 395q13 208 100 338q25 32 7 73q-25 33 -66 22q-235 -54 -450 -229q0 36 2 150
q1 126 1 149q1 18 1 42q2 42 2 75h591q17 0 17 18v38q0 18 -17 18h-709q-18 0 -18 -18l4 -56q0 -28 1 -68q-15 18 -32 35z" />
    <glyph glyph-name="guillemotright" unicode="&#xbb;" horiz-adv-x="1360" 
d="M1156 686v-36q2 -182 2 -209q1 -25 3 -96q1 -90 2 -113q2 -33 2 -37q-155 183 -410 224q42 33 130 96q92 66 119 83q58 39 152 88zM548 679q-99 98 -230 107q-114 8 -194 -63q-79 -71 -82 -183q-4 -46 22 -77q32 -23 66 -9q36 15 86 23q35 5 74 -3q34 -8 10 -97
q-26 -99 -126 -149q-65 -40 -22 -86q43 -47 103 -10q59 28 109 102q60 88 29 177q-26 76 -89 119q-60 41 -137 42q37 75 109 104q67 27 139 13q75 -15 113 -83q42 -72 28 -188q-13 -24 12 -59q26 -28 72 -28q173 18 315 -41q161 -67 215 -210q1 -26 3 -29q3 -45 4 -53h84
q9 124 13 234q1 26 3 113q1 75 2 96q1 27 2 210q1 138 2 159q0 16 1 64q0 8 1 31v43h87q18 0 18 18v39q0 18 -18 18l-220 -1v-74q0 -5 1 -43v-31q1 -48 1 -64v-4q-90 -48 -149 -83q-67 -40 -71 -41q-6 -1 -9 -1l-8 -1h-5q-2 -1 -3 -1h-15q-18 0 -31 2h-1q-3 0 -10 1
q-3 1 -5 1q-1 0 -5 1q-7 2 -11 3q-16 4 -31 10q-66 27 -106 85q-9 11 -19 30q-2 3 -6 11q-1 3 -2 5l-3 8l-5 14l-1 4q-1 2 -2 6l-1 2q-2 9 -3 17q-2 18 -1 35q2 37 19 70q17 32 49 56q15 11 33 19l2 2l5 2h1l2 1h2l6 2l8 2q1 1 2 1q4 1 6 1l10 2h4q3 1 5 1h17q2 -1 5 -1
t4 -1h1q5 0 7 -1l9 -2q1 0 5 -2q2 0 4 -1l4 -1q1 -1 2 -1l2 -1l8 -4l12 -7l11 -7q4 -4 7 -6q1 -1 1 -2l2 -1l10 -10l8 -10l7 -12l6 -11l6 -15l3 -11v-2l1 -1v-4q1 -3 1 -4l1 -9q0 -1 -1 -5v-12l-3 -12q0 -1 -1 -3l-2 -9q-1 -1 -2 -4q-1 -2 -1 -3q-14 -30 -43 -48q-1 0 -1 -1
l-2 -1l-8 -4l-1 -1h-1l-9 -4l-7 -2q-14 -3 -28 -2q-30 2 -52 22q-10 9 -17 21q-1 1 -2 3t-1 3l-1 1v1l-4 10l-2 6q-5 24 5 46q10 20 29 31q17 10 34 9q15 -1 28 -9q9 -6 16 -15l1 -2h1q0 -1 1 -1q1 -2 1 -3t2 -3q0 -1 1 -2l2 -6q3 -8 11 -5l10 4q8 2 6 10l-1 6l-3 6l-1 2
q0 3 -2 6q-1 1 -1 2q-2 2 -2 4q-9 14 -23 25q-20 15 -43 18q-13 2 -29 0l-6 -2h-2l-9 -3q-1 0 -3 -1l-8 -3q-1 0 -1 -1q-16 -7 -27 -18q-13 -12 -23 -27q-21 -36 -15 -77v-1l2 -11l4 -13q1 -1 2 -4l1 -4q3 -5 4 -8q9 -19 25 -36q34 -36 84 -44q25 -4 51 1l8 1v1h3l12 4
q2 0 6 2l13 5q2 1 4 3q2 0 2 1q49 25 76 74q1 1 2 4q3 5 5 8l5 13v2q17 45 5 109l-6 20l-4 10q-4 10 -6 13v1l-10 18v1l-12 17l-1 1q-2 2 -6 8l-8 8q-1 2 -3 4l-2 2l-10 10h-1q-2 2 -8 7l-9 7l-18 12h-1l-15 8q-3 2 -5 3l-7 3q-1 0 -4 1q-6 3 -10 4l-14 4q-5 2 -15 4h-1
q-1 0 -4 1q-7 1 -11 2h-6q-16 2 -24 2h-5q-7 0 -11 -1l-15 -1q-4 0 -12 -2l-16 -3l-1 -1l-10 -2q-3 -1 -5 -2l-8 -3q-5 -1 -7 -2q-28 -11 -53 -28q-25 -16 -47 -38l-7 -7l-3 -4l-1 -1q-6 -6 -9 -10q-10 -13 -18 -25q-33 -52 -43 -112q-4 -30 -3 -61l1 -3q0 -8 1 -12v-2
q1 -9 2 -13v-2q2 -9 3 -13l2 -9v-1l4 -15v-1l6 -16q6 -16 11 -27q12 -26 29 -49q17 -24 36 -43t42 -35q19 -14 45 -27q7 -4 20 -9l4 -2h1l3 -2q13 -4 19 -6q-20 -16 -101 -79q-36 106 -108 177z" />
    <glyph glyph-name="onequarter" unicode="&#xbc;" horiz-adv-x="1729" 
d="M435 923q27 21 56 21q33 0 60 -27q24 -23 20 -55q-2 -25 -17 -40q-23 -25 -73 -44q-31 -12 -76 -12q-11 0 -21 1q-3 54 14 102q11 33 37 54zM730 561q-4 1 -9 3l-5 1q-8 4 -24 8q248 142 411 171v-63q2 -178 3 -206q1 -21 2 -93q1 -56 2 -76q-6 8 -11 16
q-134 167 -369 239zM1079 190q22 -43 35 -90q3 -9 5 -19q3 -44 5 -81h84q8 133 13 271q1 11 1 33l5 269q1 21 1 109q1 39 1 85q72 4 132 -5l14 -3l7 -1q13 -3 25 -6q53 -14 92 -40q43 -27 70 -68q27 -42 33 -92q4 -25 2 -50q0 -1 -1 -2v-2l-1 -8l-1 -6l-1 -7q-3 -14 -6 -23
q-16 -49 -52 -80q-38 -32 -86 -36h-24q-12 1 -23 4q-22 5 -41 19q-40 29 -49 77q-3 11 -3 23v6l1 6q0 7 1 11q5 22 19 41q15 18 36 28q10 5 22 7q5 1 12 2h17q2 -1 5 -1q7 -1 11 -3q11 -3 20 -10q19 -13 27 -35q3 -6 4 -11q1 -6 2 -11v-12q-1 -5 -2 -11q-5 -22 -25 -35
q-9 -6 -20 -9q-11 -2 -23 -1q-23 4 -34 25q-5 9 -6 21v6q1 3 1 5q1 5 4 10q5 9 15 15q10 5 21 4q9 0 9 8l1 9q1 8 -7 9q-19 3 -37 -5q-17 -9 -28 -25q-5 -8 -8 -18q-1 -4 -2 -10v-8q-1 -19 7 -37q8 -17 23 -29t35 -16q18 -4 36 -1q19 3 35 13q34 20 46 58l4 18v9q1 3 1 7v2
q-1 18 -7 36q-12 36 -42 60q-14 12 -32 18q-7 3 -18 6q-6 1 -9 2h-3l-5 1h-19q-11 0 -18 -1q-19 -3 -35 -10q-35 -13 -60 -41q-12 -15 -21 -31q-8 -16 -13 -34q-2 -8 -4 -19l-1 -8v-9q-1 -18 2 -36q5 -36 23 -68q19 -32 47 -55q29 -23 65 -34q18 -5 36 -7l3 -1h5l9 -1h18
q17 1 36 5q18 3 35 10q33 12 62 35q56 44 82 114q6 14 11 34l2 8l1 8l2 12q0 4 1 6q4 35 1 69q-3 36 -13 68q-10 33 -28 64q-34 62 -93 104q-54 40 -123 60q-16 4 -33 8l-8 1l-16 3l-17 2l-9 1q-6 1 -17 1q-44 5 -105 5v10q1 34 2 58h493q7 0 13 5q5 6 5 13v39q0 7 -5 13
q-6 5 -13 5h-869q-8 0 -13 -5q-5 -6 -5 -13v-39q0 -7 5 -13q5 -5 13 -5h242q1 -26 2 -65v-14q-14 -4 -36 -9q-22 -6 -53 -16q-219 -60 -396 -182q-4 -1 -8 -3q-65 -36 -116 -36q-64 0 -95 51h2q170 0 233 91q40 57 10 138q-20 51 -73 86t-111 35q-51 0 -89 -29
q-94 -73 -78 -223q-77 14 -124 53q-22 19 -52 63q-6 8 -19 40h1q-4 7 -8 24q-11 43 -33 47q-20 3 -32 -13q-10 -14 -5 -30q70 -238 285 -269q44 -162 209 -162q58 0 113 19q12 -85 -21 -162q-37 -87 -120 -123q-70 -31 -145 -31q-128 0 -185 93q-28 54 0 115q15 29 54 46
q26 13 59 13q27 0 43 -13l1 -1q18 -16 25 -26q5 -8 8 -17v-1l1 -1v-3h1l2 -10v-18q0 -2 -1 -3v-4l-1 -1v-2l-2 -5l-1 -2l-1 -2l-1 -2v-1l-3 -5l-4 -6l-4 -5q-2 -1 -3 -3l-7 -5l-6 -4l-6 -3l-5 -2l-9 -3l-4 -1h-12l-3 1h-3q-2 1 -6 2l-5 2q-1 0 -2 1t-2 1q-13 8 -21 22v2
l-2 4l-2 7v2q-2 6 0 13q2 14 12 23q5 4 11 7l1 1h2l5 2l3 1q11 1 21 -4q18 -11 15 -30q-1 -6 -5 -11q-3 -4 -7 -7h-1l-1 -1q-1 -1 -2 -1l-4 -1q-10 -3 -8 -13l2 -6q2 -10 12 -8l3 1q2 0 4 1h1q2 1 5 2q2 1 3 1q9 4 16 12q10 11 13 25q2 7 2 17l-1 4v1l-1 5v2l-2 5v1
q-4 9 -9 17q-7 8 -15 14q-18 14 -41 14q-2 0 -3 -1h-8l-7 -2h-2l-3 -1q-3 -1 -4 -2q-12 -4 -23 -12q-22 -18 -29 -46q-4 -14 -3 -29l1 -4v-4l1 -5q1 -2 1 -5l3 -7q0 -1 1 -3v-1q12 -29 39 -47l1 -1q4 -2 5 -3l7 -3l1 -1q10 -4 14 -5h1q5 -2 7 -2l3 -1q3 0 6 -1l7 -1h13l10 2
l12 2l6 2l8 2l11 5h1l9 6h1q2 1 5 4l5 3l2 2l1 1q4 2 6 5h1q2 2 4 5l4 4l8 10l1 1l5 7q1 2 1 3l3 6q2 3 3 5l3 8q1 2 3 8q1 2 1 3q1 4 1 6l1 3q2 9 2 14v2q1 5 1 7v7q0 3 -1 8l-1 9l-1 6q0 2 -1 3l-1 4l-1 4q-4 17 -12 31q-8 15 -19 28q-1 2 -4 5l-2 2l-6 6q-6 6 -12 11
q-27 21 -61 29q-16 5 -33 5h-18q-5 -1 -8 -1l-4 -1l-9 -1l-10 -3q-10 -2 -16 -4q-15 -6 -28 -14q-14 -8 -26 -17q-11 -10 -21 -22q-9 -9 -18 -24q-2 -3 -6 -10l-2 -4q-4 -8 -5 -11q-1 -4 -4 -11l-1 -3q-3 -8 -4 -13q-1 -3 -2 -10l-1 -7q-1 -6 -1 -9q-3 -26 2 -51q0 -2 2 -8
q19 -96 101 -142q100 -76 289 -63q130 9 210 150q43 76 44 153q252 -71 355 -257z" />
    </font>
</defs>
</svg>
